# https://github.com/mikedh/trimesh
v -0.24499999 0.66504995 -0.10299998
v -0.24391591 0.66500102 -0.09702637
v -0.24391102 0.66500102 -0.10299998
v -0.24608897 0.66500102 -0.10299998
v -0.24609387 0.66500102 -0.09702637
v -0.24500244 0.66504752 -0.09702637
v -0.24283427 0.66485908 -0.09702637
v -0.24283183 0.66485908 -0.10299998
v -0.24716816 0.66485908 -0.10299998
v -0.24717306 0.66485665 -0.09702637
v -0.24176977 0.66462415 -0.09702637
v -0.24176487 0.66462172 -0.10299998
v -0.24823511 0.66462172 -0.10299998
v -0.24823756 0.66462172 -0.09702637
v -0.24072973 0.66429625 -0.09702637
v -0.24072484 0.66429379 -0.10299998
v -0.24927515 0.66429379 -0.10299998
v -0.24927760 0.66429379 -0.09702637
v -0.23972396 0.66388023 -0.09702637
v -0.23971906 0.66387779 -0.10299998
v -0.25028092 0.66387779 -0.10299998
v -0.25028582 0.66387534 -0.09702637
v -0.23875489 0.66337612 -0.09702637
v -0.23875000 0.66337367 -0.10299998
v -0.25124999 0.66337367 -0.10299998
v -0.25125244 0.66337123 -0.09702637
v -0.23783477 0.66279126 -0.09702637
v -0.23783232 0.66278880 -0.10299998
v -0.25216767 0.66278880 -0.10299998
v -0.25217256 0.66278635 -0.09702637
v -0.23697093 0.66212807 -0.09702637
v -0.23696603 0.66212318 -0.10299998
v -0.25303396 0.66212318 -0.10299998
v -0.25303640 0.66212073 -0.09702637
v -0.23616582 0.66139149 -0.09702637
v -0.23616337 0.66138660 -0.10299998
v -0.25383662 0.66138660 -0.10299998
v -0.25384151 0.66138414 -0.09702637
v -0.23542923 0.66058638 -0.09702637
v -0.23542678 0.66058393 -0.10299998
v -0.25457321 0.66058393 -0.10299998
v -0.25457810 0.66057904 -0.09702637
v -0.23476360 0.65972255 -0.09702637
v -0.23476116 0.65971764 -0.10299998
v -0.25523883 0.65971764 -0.10299998
v -0.25524128 0.65971520 -0.09702637
v -0.23417874 0.65880242 -0.09702637
v -0.23417629 0.65879996 -0.10299998
v -0.25582370 0.65879996 -0.10299998
v -0.25582614 0.65879507 -0.09702637
v -0.23367463 0.65783579 -0.09702637
v -0.23367218 0.65783090 -0.10299998
v -0.25632781 0.65783090 -0.10299998
v -0.25633026 0.65782602 -0.09702637
v -0.23325617 0.65682758 -0.09702637
v -0.23325617 0.65682513 -0.10299998
v -0.25674382 0.65682513 -0.10299998
v -0.25674627 0.65682024 -0.09702637
v -0.23292825 0.65578754 -0.09702637
v -0.23292825 0.65578509 -0.10299998
v -0.25707174 0.65578509 -0.10299998
v -0.25707418 0.65578020 -0.09702637
v -0.23269332 0.65472304 -0.09702637
v -0.23269088 0.65472058 -0.10299998
v -0.25730912 0.65472058 -0.10299998
v -0.25730912 0.65471570 -0.09702637
v -0.23254894 0.65364385 -0.09702637
v -0.23254894 0.65363894 -0.10299998
v -0.25745105 0.65363894 -0.10299998
v -0.25745105 0.65363405 -0.09702637
v -0.23250245 0.65255243 -0.09702637
v -0.23250245 0.65254997 -0.10299998
v -0.25749999 0.65254997 -0.10299998
v -0.25749754 0.65254752 -0.09702637
v -0.23254894 0.65146589 -0.09702637
v -0.23254894 0.65146100 -0.10299998
v -0.25745105 0.65146100 -0.10299998
v -0.25745105 0.65145609 -0.09702637
v -0.23269088 0.65038425 -0.09702637
v -0.23269088 0.65037936 -0.10299998
v -0.25730912 0.65037936 -0.10299998
v -0.25730667 0.65037690 -0.09702637
v -0.23292580 0.64931974 -0.09702637
v -0.23292825 0.64931485 -0.10299998
v -0.25707174 0.64931240 -0.09702637
v -0.25707174 0.64931485 -0.10299998
v -0.23325372 0.64827970 -0.09702637
v -0.23325617 0.64827481 -0.10299998
v -0.25674382 0.64827236 -0.09702637
v -0.25674382 0.64827481 -0.10299998
v -0.23366973 0.64727393 -0.09702637
v -0.23367218 0.64726904 -0.10299998
v -0.25632781 0.64726904 -0.10299998
v -0.25632536 0.64726415 -0.09702637
v -0.23417385 0.64630487 -0.09702637
v -0.23417629 0.64629998 -0.10299998
v -0.25582370 0.64629998 -0.10299998
v -0.25582125 0.64629753 -0.09702637
v -0.23475871 0.64538474 -0.09702637
v -0.23476116 0.64538231 -0.10299998
v -0.25523883 0.64538231 -0.10299998
v -0.25523639 0.64537740 -0.09702637
v -0.23542189 0.64452091 -0.09702637
v -0.23542678 0.64451602 -0.10299998
v -0.25457321 0.64451602 -0.10299998
v -0.25457076 0.64451356 -0.09702637
v -0.23615847 0.64371580 -0.09702637
v -0.23616337 0.64371334 -0.10299998
v -0.25383662 0.64371334 -0.10299998
v -0.25383417 0.64370845 -0.09702637
v -0.23696359 0.64297922 -0.09702637
v -0.23696603 0.64297676 -0.10299998
v -0.25303396 0.64297676 -0.10299998
v -0.25302907 0.64297187 -0.09702637
v -0.23782743 0.64231360 -0.09702637
v -0.23783232 0.64231114 -0.10299998
v -0.25216767 0.64231114 -0.10299998
v -0.25216522 0.64230868 -0.09702637
v -0.23874755 0.64172871 -0.09702637
v -0.23875000 0.64172628 -0.10299998
v -0.25124999 0.64172628 -0.10299998
v -0.25124510 0.64172382 -0.09702637
v -0.23971417 0.64122461 -0.09702637
v -0.23971906 0.64122215 -0.10299998
v -0.25028092 0.64122215 -0.10299998
v -0.25027603 0.64121972 -0.09702637
v -0.24072239 0.64080615 -0.09702637
v -0.24072484 0.64080615 -0.10299998
v -0.24927515 0.64080615 -0.10299998
v -0.24927025 0.64080369 -0.09702637
v -0.24176243 0.64047823 -0.09702637
v -0.24176487 0.64047823 -0.10299998
v -0.24823511 0.64047823 -0.10299998
v -0.24823022 0.64047579 -0.09702637
v -0.24282693 0.64024329 -0.09702637
v -0.24283183 0.64024086 -0.10299998
v -0.24716816 0.64024086 -0.10299998
v -0.24716571 0.64024086 -0.09702637
v -0.24390612 0.64009892 -0.09702637
v -0.24391102 0.64009892 -0.10299998
v -0.24608897 0.64009892 -0.10299998
v -0.24608408 0.64009892 -0.09702637
v -0.24499755 0.64005242 -0.09702637
v -0.24499999 0.64005242 -0.10299998
f 1 2 3
f 1 3 8
f 1 8 12
f 1 12 16
f 1 16 20
f 1 20 24
f 1 24 28
f 1 28 32
f 1 32 36
f 1 36 40
f 1 40 44
f 1 44 48
f 1 48 52
f 1 52 56
f 1 56 60
f 1 60 64
f 1 64 68
f 1 68 72
f 1 72 76
f 1 76 80
f 1 80 84
f 1 84 88
f 1 88 92
f 1 92 96
f 1 96 100
f 1 100 104
f 1 104 108
f 1 108 112
f 1 112 116
f 1 116 120
f 1 120 124
f 1 124 128
f 1 128 132
f 1 132 136
f 1 136 140
f 1 140 144
f 1 144 141
f 1 141 137
f 1 137 133
f 1 133 129
f 1 129 125
f 1 125 121
f 1 121 117
f 1 117 113
f 1 113 109
f 1 109 105
f 1 105 101
f 1 101 97
f 1 97 93
f 1 93 90
f 1 90 86
f 1 86 81
f 1 81 77
f 1 77 73
f 1 73 69
f 1 69 65
f 1 65 61
f 1 61 57
f 1 57 53
f 1 53 49
f 1 49 45
f 1 45 41
f 1 41 37
f 1 37 33
f 1 33 29
f 1 29 25
f 1 25 21
f 1 21 17
f 1 17 13
f 1 13 9
f 1 9 4
f 1 4 5
f 1 5 6
f 1 6 2
f 2 7 3
f 2 6 5
f 2 5 10
f 2 10 14
f 2 14 18
f 2 18 22
f 2 22 26
f 2 26 30
f 2 30 34
f 2 34 38
f 2 38 42
f 2 42 46
f 2 46 50
f 2 50 54
f 2 54 58
f 2 58 62
f 2 62 66
f 2 66 70
f 2 70 74
f 2 74 78
f 2 78 82
f 2 82 85
f 2 85 89
f 2 89 94
f 2 94 98
f 2 98 102
f 2 102 106
f 2 106 110
f 2 110 114
f 2 114 118
f 2 118 122
f 2 122 126
f 2 126 130
f 2 130 134
f 2 134 138
f 2 138 142
f 2 142 143
f 2 143 139
f 2 139 135
f 2 135 131
f 2 131 127
f 2 127 123
f 2 123 119
f 2 119 115
f 2 115 111
f 2 111 107
f 2 107 103
f 2 103 99
f 2 99 95
f 2 95 91
f 2 91 87
f 2 87 83
f 2 83 79
f 2 79 75
f 2 75 71
f 2 71 67
f 2 67 63
f 2 63 59
f 2 59 55
f 2 55 51
f 2 51 47
f 2 47 43
f 2 43 39
f 2 39 35
f 2 35 31
f 2 31 27
f 2 27 23
f 2 23 19
f 2 19 15
f 2 15 11
f 2 11 7
f 3 7 8
f 4 9 5
f 5 9 10
f 7 11 8
f 8 11 12
f 9 13 14
f 9 14 10
f 11 15 16
f 11 16 12
f 13 17 18
f 13 18 14
f 15 19 20
f 15 20 16
f 17 21 18
f 18 21 22
f 19 23 24
f 19 24 20
f 21 25 22
f 22 25 26
f 23 27 24
f 24 27 28
f 25 29 30
f 25 30 26
f 27 31 28
f 28 31 32
f 29 33 30
f 30 33 34
f 31 35 32
f 32 35 36
f 33 37 38
f 33 38 34
f 35 39 40
f 35 40 36
f 37 41 38
f 38 41 42
f 39 43 40
f 40 43 44
f 41 45 42
f 42 45 46
f 43 47 48
f 43 48 44
f 45 49 46
f 46 49 50
f 47 51 48
f 48 51 52
f 49 53 54
f 49 54 50
f 51 55 52
f 52 55 56
f 53 57 58
f 53 58 54
f 55 59 60
f 55 60 56
f 57 61 62
f 57 62 58
f 59 63 64
f 59 64 60
f 61 65 62
f 62 65 66
f 63 67 64
f 64 67 68
f 65 69 70
f 65 70 66
f 67 71 72
f 67 72 68
f 69 73 70
f 70 73 74
f 71 75 76
f 71 76 72
f 73 77 78
f 73 78 74
f 75 79 80
f 75 80 76
f 77 81 78
f 78 81 82
f 79 83 80
f 80 83 84
f 81 85 82
f 81 86 85
f 83 87 88
f 83 88 84
f 85 86 90
f 85 90 89
f 87 91 92
f 87 92 88
f 89 93 94
f 89 90 93
f 91 95 96
f 91 96 92
f 93 97 94
f 94 97 98
f 95 99 96
f 96 99 100
f 97 101 102
f 97 102 98
f 99 103 100
f 100 103 104
f 101 105 102
f 102 105 106
f 103 107 104
f 104 107 108
f 105 109 110
f 105 110 106
f 107 111 112
f 107 112 108
f 109 113 110
f 110 113 114
f 111 115 112
f 112 115 116
f 113 117 114
f 114 117 118
f 115 119 120
f 115 120 116
f 117 121 118
f 118 121 122
f 119 123 120
f 120 123 124
f 121 125 126
f 121 126 122
f 123 127 124
f 124 127 128
f 125 129 130
f 125 130 126
f 127 131 132
f 127 132 128
f 129 133 134
f 129 134 130
f 131 135 136
f 131 136 132
f 133 137 134
f 134 137 138
f 135 139 136
f 136 139 140
f 137 141 138
f 138 141 142
f 139 143 144
f 139 144 140
f 141 144 143
f 141 143 142

