# https://github.com/mikedh/trimesh
v -0.09366877 0.08205397 -0.10558125
v -0.09366877 0.08205397 -0.17423829
v -0.09366877 0.07251882 -0.10558125
v -0.08544427 0.07673492 -0.10558125
v -0.05798688 0.07086949 -0.12000493
v -0.09366877 0.07251882 -0.17423829
v -0.05798688 0.07086949 -0.15999606
v -0.05744027 0.05861293 -0.17423829
v -0.07320284 0.04736659 -0.12000493
v 0.03592758 -0.02324520 -0.12000493
v -0.06008432 0.05078894 -0.10558125
v -0.06341479 0.06247855 -0.10558125
v -0.02750409 0.03923335 -0.10558125
v -0.01602536 0.04370714 -0.12000493
v -0.07320284 0.04736659 -0.15999606
v -0.02213972 0.02623459 -0.17423829
v -0.01602536 0.04370714 -0.15999606
v -0.02145330 0.03531619 -0.17423829
v 0.03592758 -0.02324520 -0.15999606
v 0.03599113 -0.02318336 -0.12000493
v -0.01456351 0.02133814 -0.10558125
v -0.02145330 0.03531619 -0.10558125
v -0.01531351 0.04320203 -0.12000493
v -0.01456351 0.02133814 -0.17423829
v -0.01531351 0.04320203 -0.15999606
v -0.01463980 0.04263507 -0.15999606
v -0.01402961 0.04201658 -0.15999606
v -0.01348303 0.04134653 -0.15999606
v 0.03599113 -0.02197729 -0.15999606
v 0.03608011 -0.02212159 -0.15999606
v 0.03599113 -0.02318336 -0.15999606
v 0.03608011 -0.02303905 -0.12000493
v 0.03611825 -0.02295658 -0.12000493
v 0.03616909 -0.02279164 -0.12000493
v 0.03618180 -0.02270918 -0.12000493
v 0.03618180 -0.02245147 -0.12000493
v 0.03616909 -0.02236900 -0.12000493
v 0.03611825 -0.02220406 -0.12000493
v 0.03608011 -0.02212159 -0.12000493
v 0.03599113 -0.02197729 -0.12000493
v -0.01348303 0.04134653 -0.12000493
v -0.01402961 0.04201658 -0.12000493
v -0.01463980 0.04263507 -0.12000493
v 0.03611825 -0.02220406 -0.15999606
v 0.03616909 -0.02236900 -0.15999606
v 0.03618180 -0.02245147 -0.15999606
v 0.03618180 -0.02270918 -0.15999606
v 0.03616909 -0.02279164 -0.15999606
v 0.03611825 -0.02295658 -0.15999606
v 0.03608011 -0.02303905 -0.15999606
f 1 2 6
f 1 6 3
f 1 3 11
f 1 11 21
f 1 21 22
f 1 22 13
f 1 13 12
f 1 12 4
f 1 4 5
f 1 5 7
f 1 7 2
f 2 7 8
f 2 8 18
f 2 18 24
f 2 24 16
f 2 16 6
f 3 6 15
f 3 15 9
f 3 9 10
f 3 10 11
f 4 12 5
f 5 12 13
f 5 13 14
f 5 14 17
f 5 17 7
f 6 16 15
f 7 17 8
f 8 17 18
f 9 15 19
f 9 19 10
f 10 19 31
f 10 31 20
f 10 20 21
f 10 21 11
f 13 22 14
f 14 23 25
f 14 25 17
f 14 22 23
f 15 16 19
f 16 24 19
f 17 25 18
f 18 25 26
f 18 26 27
f 18 27 28
f 18 28 29
f 18 29 30
f 18 30 24
f 19 24 31
f 20 32 21
f 20 31 50
f 20 50 32
f 21 32 33
f 21 33 34
f 21 34 35
f 21 35 36
f 21 36 37
f 21 37 38
f 21 38 39
f 21 39 22
f 22 39 40
f 22 40 41
f 22 41 42
f 22 42 43
f 22 43 23
f 23 43 26
f 23 26 25
f 24 30 44
f 24 44 45
f 24 45 46
f 24 46 47
f 24 47 48
f 24 48 49
f 24 49 50
f 24 50 31
f 26 43 42
f 26 42 27
f 27 42 41
f 27 41 28
f 28 41 40
f 28 40 29
f 29 40 39
f 29 39 30
f 30 39 38
f 30 38 44
f 32 50 49
f 32 49 33
f 33 49 48
f 33 48 34
f 34 48 47
f 34 47 35
f 35 47 46
f 35 46 36
f 36 46 45
f 36 45 37
f 37 45 44
f 37 44 38

