# https://github.com/mikedh/trimesh
v -0.09366877 0.08205397 -0.25992498
v -0.09285522 0.08152825 -0.25992498
v -0.05798688 0.07086949 -0.26000061
v -0.09366877 0.08205397 -0.28484537
v -0.09366877 0.07251882 -0.25992498
v -0.06341479 0.06247855 -0.25992498
v -0.05771993 0.07070456 -0.28484537
v -0.05798688 0.07086949 -0.28484537
v -0.01602536 0.04370714 -0.26000061
v -0.01601265 0.04370714 -0.28484537
v -0.09366877 0.07251882 -0.28484537
v -0.07320284 0.04736659 -0.26000061
v 0.03592758 -0.02324520 -0.26000061
v -0.01456351 0.02133814 -0.25992498
v -0.02145330 0.03531619 -0.25992498
v -0.01531351 0.04320203 -0.26000061
v -0.01530079 0.04320203 -0.28484537
v -0.07320284 0.04736659 -0.28484537
v -0.00542375 0.00350481 -0.28484537
v 0.03592758 -0.02324520 -0.28484537
v 0.03599113 -0.02318336 -0.26000061
v 0.03608011 -0.02303905 -0.26000061
v 0.03611825 -0.02295658 -0.26000061
v 0.03616909 -0.02279164 -0.26000061
v 0.03618180 -0.02270918 -0.26000061
v 0.03618180 -0.02245147 -0.26000061
v 0.03616909 -0.02236900 -0.26000061
v 0.03611825 -0.02220406 -0.26000061
v 0.03608011 -0.02212159 -0.26000061
v -0.01348303 0.04134653 -0.26000061
v -0.01402961 0.04201658 -0.26000061
v -0.01463980 0.04263507 -0.26000061
v 0.03599113 -0.02197729 -0.26000061
v -0.01463980 0.04263507 -0.28484537
v 0.03599113 -0.02318336 -0.28484537
v 0.03608011 -0.02303905 -0.28484537
v 0.03611825 -0.02295658 -0.28484537
v 0.03616909 -0.02279164 -0.28484537
v 0.03618180 -0.02270918 -0.28484537
v 0.03618180 -0.02245147 -0.28484537
v 0.03616909 -0.02236900 -0.28484537
v 0.03611825 -0.02220406 -0.28484537
v 0.03608011 -0.02212159 -0.28484537
v -0.01347031 0.04133623 -0.28484537
v -0.01402961 0.04201658 -0.28484537
v 0.03599113 -0.02197729 -0.28484537
f 1 2 3
f 1 3 8
f 1 8 4
f 1 4 11
f 1 11 5
f 1 5 14
f 1 14 15
f 1 15 6
f 1 6 2
f 2 6 3
f 3 7 8
f 3 6 15
f 3 15 9
f 3 9 10
f 3 10 7
f 4 8 7
f 4 7 10
f 4 10 17
f 4 17 34
f 4 34 45
f 4 45 44
f 4 44 46
f 4 46 43
f 4 43 42
f 4 42 41
f 4 41 40
f 4 40 39
f 4 39 38
f 4 38 37
f 4 37 36
f 4 36 35
f 4 35 20
f 4 20 19
f 4 19 18
f 4 18 11
f 5 11 18
f 5 18 12
f 5 12 13
f 5 13 14
f 9 15 16
f 9 16 17
f 9 17 10
f 12 19 13
f 12 18 19
f 13 19 20
f 13 20 35
f 13 35 21
f 13 21 14
f 14 21 22
f 14 22 23
f 14 23 24
f 14 24 25
f 14 25 26
f 14 26 27
f 14 27 28
f 14 28 29
f 14 29 15
f 15 30 31
f 15 31 32
f 15 32 16
f 15 29 33
f 15 33 30
f 16 32 17
f 17 32 34
f 21 35 36
f 21 36 22
f 22 36 37
f 22 37 23
f 23 37 38
f 23 38 24
f 24 38 39
f 24 39 25
f 25 39 40
f 25 40 26
f 26 40 41
f 26 41 27
f 27 41 42
f 27 42 28
f 28 42 43
f 28 43 29
f 29 43 46
f 29 46 33
f 30 44 31
f 30 33 44
f 31 45 34
f 31 34 32
f 31 44 45
f 33 46 44

