# https://github.com/mikedh/trimesh
v -0.10987255 0.61046576 0.09699795
v -0.09753669 0.61035854 0.09711106
v -0.05154566 0.61046164 0.09699795
v -0.10987255 0.61046576 0.08500143
v -0.29339142 0.61046576 0.09699795
v -0.09926528 0.61021833 0.09711106
v -0.09578190 0.61034616 0.09711106
v -0.08449367 0.60615207 0.09711106
v -0.08318413 0.60501796 0.09711106
v -0.07794598 0.60016404 0.09711106
v -0.05159804 0.61031729 0.09699795
v -0.05154566 0.61046164 0.08500143
v -0.09405331 0.61018120 0.09711106
v -0.09232472 0.60986779 0.09711106
v -0.09064851 0.60940176 0.09711106
v -0.08899849 0.60879555 0.09711106
v -0.08742704 0.60804498 0.09711106
v -0.08593417 0.60716244 0.09711106
v -0.29339142 0.61046576 0.08500143
v -0.09753669 0.61035854 0.08483044
v -0.31332261 0.59246044 0.09699795
v -0.31911078 0.57695422 0.09706634
v -0.31497263 0.57854197 0.09706634
v -0.30583204 0.58161022 0.09706634
v -0.28977709 0.58579195 0.09706634
v -0.10987255 0.60889864 0.09711106
v -0.09937004 0.61020595 0.09711106
v -0.06039815 0.60016404 0.09699795
v -0.05269805 0.60845327 0.09699795
v -0.05240996 0.60878318 0.09699795
v -0.05214805 0.60913783 0.09699795
v -0.05193852 0.60951724 0.09699795
v -0.05175519 0.60990902 0.09699795
v -0.08975802 0.60017640 0.09711106
v -0.31911078 0.56833510 0.09706634
v -0.05159804 0.61031729 0.08500143
v -0.10987255 0.60084038 0.08367433
v -0.10987255 0.60889452 0.08367433
v -0.11112972 0.60874193 0.08367433
v -0.27298879 0.58860863 0.08367433
v -0.27343404 0.58855089 0.08367433
v -0.28977709 0.58579195 0.08367433
v -0.30583204 0.58161434 0.08367433
v -0.31497263 0.57854197 0.08367433
v -0.31911078 0.57695422 0.08367433
v -0.31332261 0.59246044 0.08500143
v -0.31363689 0.59216763 0.09699795
v -0.31389881 0.59185008 0.09699795
v -0.31413452 0.59151192 0.09699795
v -0.31437024 0.59115313 0.09699795
v -0.31455358 0.59077784 0.09699795
v -0.31468453 0.59038606 0.09699795
v -0.10987255 0.60084038 0.09711106
v -0.06039815 0.60016404 0.08500143
v -0.05269805 0.60845327 0.08500143
v -0.05240996 0.60878318 0.08500143
v -0.05214805 0.60913783 0.08500143
v -0.05193852 0.60951724 0.08500143
v -0.05175519 0.60990902 0.08500143
v -0.31911078 0.56833510 0.08367433
v -0.31468453 0.59038606 0.08500143
v -0.31455358 0.59077784 0.08500143
v -0.31437024 0.59115313 0.08500143
v -0.31413452 0.59151192 0.08500143
v -0.31389881 0.59185008 0.08500143
v -0.31363689 0.59216763 0.08500143
f 1 2 3
f 1 3 12
f 1 12 4
f 1 4 19
f 1 19 5
f 1 5 2
f 2 5 6
f 2 6 27
f 2 27 26
f 2 26 53
f 2 53 34
f 2 34 10
f 2 10 9
f 2 9 8
f 2 8 18
f 2 18 17
f 2 17 16
f 2 16 15
f 2 15 14
f 2 14 13
f 2 13 7
f 2 7 3
f 3 8 9
f 3 9 10
f 3 10 11
f 3 11 36
f 3 36 12
f 3 7 13
f 3 13 14
f 3 14 15
f 3 15 16
f 3 16 17
f 3 17 18
f 3 18 8
f 4 12 20
f 4 20 19
f 5 19 46
f 5 46 21
f 5 21 22
f 5 22 23
f 5 23 24
f 5 24 25
f 5 25 26
f 5 26 27
f 5 27 6
f 10 28 29
f 10 29 30
f 10 30 31
f 10 31 32
f 10 32 33
f 10 33 11
f 10 34 35
f 10 35 28
f 11 33 59
f 11 59 36
f 12 36 37
f 12 37 38
f 12 38 20
f 19 20 38
f 19 38 39
f 19 39 40
f 19 40 41
f 19 41 42
f 19 42 43
f 19 43 44
f 19 44 45
f 19 45 46
f 21 46 66
f 21 66 47
f 21 47 22
f 22 45 60
f 22 60 35
f 22 35 53
f 22 53 26
f 22 26 23
f 22 47 48
f 22 48 49
f 22 49 50
f 22 50 51
f 22 51 52
f 22 52 61
f 22 61 45
f 23 26 24
f 24 26 25
f 28 54 55
f 28 55 29
f 28 35 60
f 28 60 54
f 29 55 56
f 29 56 30
f 30 56 57
f 30 57 31
f 31 57 58
f 31 58 32
f 32 58 59
f 32 59 33
f 34 53 35
f 36 59 37
f 37 60 45
f 37 45 44
f 37 44 43
f 37 43 42
f 37 42 41
f 37 41 40
f 37 40 39
f 37 39 38
f 37 59 58
f 37 58 57
f 37 57 56
f 37 56 55
f 37 55 54
f 37 54 60
f 45 61 62
f 45 62 63
f 45 63 64
f 45 64 65
f 45 65 66
f 45 66 46
f 47 66 65
f 47 65 48
f 48 65 64
f 48 64 49
f 49 64 63
f 49 63 50
f 50 63 62
f 50 62 51
f 51 62 61
f 51 61 52

