# https://github.com/mikedh/trimesh
v -0.05798192 0.07087848 0.15999701
v -0.02353707 0.03667475 0.16499675
v -0.01601968 0.04370532 0.15999701
v -0.05798192 0.07087848 0.12000637
v -0.07335986 0.06890661 0.16499675
v -0.07328480 0.06886053 0.16499675
v -0.02144593 0.03531102 0.16499675
v -0.01531191 0.04320773 0.15999701
v -0.01601968 0.04370532 0.12000637
v -0.02144593 0.03531102 0.09097891
v -0.05123665 0.05459668 0.09097891
v -0.07335986 0.06890661 0.09097891
v -0.07335986 0.05937895 0.16499675
v -0.01490441 0.02203312 0.16499675
v 0.03611946 -0.02220507 0.15999701
v 0.03607656 -0.02212212 0.15999701
v 0.03599078 -0.02197470 0.15999701
v -0.01347814 0.04134642 0.15999701
v -0.01403577 0.04201908 0.15999701
v -0.01464703 0.04263643 0.15999701
v -0.01531191 0.04320773 0.12000637
v -0.01464703 0.04263643 0.12000637
v -0.01403577 0.04201908 0.12000637
v -0.01347814 0.04134642 0.12000637
v 0.03599078 -0.02197470 0.12000637
v 0.03607656 -0.02212212 0.12000637
v 0.03611946 -0.02220507 0.12000637
v -0.01944056 0.03125670 0.09097891
v -0.07335986 0.05937895 0.09097891
v -0.07319900 0.04736341 0.15999701
v 0.03593716 -0.02325550 0.15999701
v -0.01456125 0.02133281 0.16499675
v 0.03614090 -0.02227877 0.15999701
v 0.03614090 -0.02227877 0.12000637
v -0.01456125 0.02133281 0.09097891
v -0.07319900 0.04736341 0.12000637
v 0.03593716 -0.02325550 0.12000637
v 0.03599078 -0.02318178 0.15999701
v 0.03603366 -0.02311729 0.15999701
v 0.03611946 -0.02296064 0.15999701
v 0.03618380 -0.02271185 0.15999701
v 0.03618380 -0.02245386 0.15999701
v 0.03616236 -0.02236170 0.15999701
v 0.03616236 -0.02236170 0.12000637
v 0.03618380 -0.02245386 0.12000637
v 0.03618380 -0.02271185 0.12000637
v 0.03611946 -0.02296064 0.12000637
v 0.03603366 -0.02311729 0.12000637
v 0.03599078 -0.02318178 0.12000637
f 1 2 3
f 1 3 9
f 1 9 4
f 1 4 12
f 1 12 5
f 1 5 6
f 1 6 2
f 2 7 3
f 2 6 5
f 2 5 13
f 2 13 32
f 2 32 14
f 2 14 7
f 3 8 21
f 3 21 9
f 3 7 8
f 4 9 10
f 4 10 11
f 4 11 12
f 5 12 29
f 5 29 13
f 7 14 15
f 7 15 16
f 7 16 17
f 7 17 18
f 7 18 19
f 7 19 20
f 7 20 8
f 8 20 22
f 8 22 21
f 9 21 10
f 10 21 22
f 10 22 23
f 10 23 24
f 10 24 25
f 10 25 26
f 10 26 27
f 10 27 28
f 10 28 35
f 10 35 29
f 10 29 12
f 10 12 11
f 13 29 36
f 13 36 30
f 13 30 31
f 13 31 32
f 14 32 15
f 15 33 34
f 15 34 27
f 15 27 26
f 15 26 16
f 15 32 33
f 16 26 25
f 16 25 17
f 17 25 24
f 17 24 18
f 18 24 23
f 18 23 19
f 19 23 22
f 19 22 20
f 27 34 35
f 27 35 28
f 29 35 37
f 29 37 36
f 30 36 37
f 30 37 31
f 31 37 49
f 31 49 38
f 31 38 32
f 32 38 39
f 32 39 40
f 32 40 41
f 32 41 42
f 32 42 43
f 32 43 33
f 33 43 44
f 33 44 34
f 34 44 35
f 35 44 45
f 35 45 46
f 35 46 47
f 35 47 48
f 35 48 49
f 35 49 37
f 38 49 48
f 38 48 39
f 39 48 47
f 39 47 40
f 40 47 46
f 40 46 41
f 41 46 45
f 41 45 42
f 42 45 44
f 42 44 43

