# https://github.com/mikedh/trimesh
v -0.08592731 0.71230483 -0.08500072
v -0.08624127 0.68480362 -0.08483001
v -0.08514237 0.68475607 -0.08483001
v -0.08259916 0.71213836 -0.08500072
v -0.08592731 0.71230483 -0.09699953
v -0.08925544 0.71218591 -0.08500072
v -0.08734019 0.68475607 -0.08483001
v -0.08407484 0.68461336 -0.08483001
v -0.08259916 0.71213836 -0.09699953
v -0.07930242 0.71169441 -0.08500072
v -0.08514237 0.68475607 -0.09702579
v -0.08624127 0.68480362 -0.09702579
v -0.08925544 0.71218591 -0.09699953
v -0.09255218 0.71179746 -0.08500072
v -0.24608615 0.66500815 -0.08483001
v -0.08300734 0.68437553 -0.08483001
v -0.07606847 0.71098091 -0.08500072
v -0.08407484 0.68461336 -0.09702579
v -0.07930242 0.71169441 -0.09699953
v -0.08734019 0.68475607 -0.09702579
v -0.09255218 0.71179746 -0.09699953
v -0.25142373 0.69202575 -0.08500072
v -0.24715366 0.66486546 -0.08483001
v -0.08197122 0.68405048 -0.08483001
v -0.07286592 0.71000580 -0.08500072
v -0.07606847 0.71098091 -0.09699953
v -0.08300734 0.68437553 -0.09702579
v -0.24608615 0.66500815 -0.09702579
v -0.25142373 0.69202575 -0.09699953
v -0.25453209 0.69138361 -0.08500072
v -0.24822118 0.66462761 -0.08483001
v -0.08096650 0.68363032 -0.08483001
v -0.06978897 0.70876115 -0.08500072
v -0.07286592 0.71000580 -0.09699953
v -0.08197122 0.68405048 -0.09702579
v -0.24715366 0.66486546 -0.09702579
v -0.25453209 0.69138361 -0.09699953
v -0.25760904 0.69050364 -0.08500072
v -0.24925730 0.66430258 -0.08483001
v -0.07999316 0.68313088 -0.08483001
v -0.06680621 0.70726282 -0.08500072
v -0.06978897 0.70876115 -0.09699953
v -0.08096650 0.68363032 -0.09702579
v -0.24822118 0.66462761 -0.09702579
v -0.25760904 0.69050364 -0.09699953
v -0.26059181 0.68937791 -0.08500072
v -0.25026202 0.66388242 -0.08483001
v -0.07908264 0.68254422 -0.08483001
v -0.06398043 0.70552664 -0.08500072
v -0.06680621 0.70726282 -0.09699953
v -0.07999316 0.68313088 -0.09702579
v -0.24925730 0.66429465 -0.09702579
v -0.26059181 0.68937791 -0.09699953
v -0.26348039 0.68801433 -0.08500072
v -0.25123535 0.66338296 -0.08483001
v -0.07820350 0.68187831 -0.08483001
v -0.06128024 0.70356058 -0.08500072
v -0.06398043 0.70552664 -0.09699953
v -0.07908264 0.68254422 -0.09702579
v -0.25026202 0.66388242 -0.09702579
v -0.26348039 0.68801433 -0.09699953
v -0.26624337 0.68643674 -0.08500072
v -0.33917986 0.64070974 -0.08500072
v -0.25214587 0.66279632 -0.08483001
v -0.07738717 0.68114103 -0.08483001
v -0.05876844 0.70138045 -0.08500072
v -0.06128024 0.70356058 -0.09699953
v -0.07820350 0.68187831 -0.09702579
v -0.25123535 0.66337505 -0.09702579
v -0.26624337 0.68643674 -0.09699953
v -0.33917986 0.64070974 -0.09699953
v -0.33917986 0.63131541 -0.08500072
v -0.25748346 0.65256166 -0.08483001
v -0.25745205 0.65363982 -0.08483001
v -0.25729507 0.65472591 -0.08483001
v -0.25704389 0.65578822 -0.08483001
v -0.25672991 0.65682675 -0.08483001
v -0.25632174 0.65783358 -0.08483001
v -0.25581939 0.65880075 -0.08483001
v -0.25522283 0.65972038 -0.08483001
v -0.25456348 0.66059241 -0.08483001
v -0.25380994 0.66139311 -0.08483001
v -0.25302500 0.66213039 -0.08483001
v -0.07666503 0.68034033 -0.08483001
v -0.05644501 0.69899422 -0.08500072
v -0.05876844 0.70138045 -0.09699953
v -0.07741856 0.68114103 -0.09702579
v -0.25214587 0.66278839 -0.09702579
v -0.33917986 0.63131541 -0.09699953
v -0.25302500 0.66212246 -0.09702579
v -0.25384134 0.66139311 -0.09702579
v -0.25456348 0.66058450 -0.09702579
v -0.25522283 0.65972038 -0.09702579
v -0.25581939 0.65880075 -0.09702579
v -0.25632174 0.65783358 -0.09702579
v -0.25672991 0.65682675 -0.09702579
v -0.25704389 0.65578822 -0.09702579
v -0.25729507 0.65471800 -0.09702579
v -0.25745205 0.65363982 -0.09702579
v -0.25748346 0.65254581 -0.09702579
v -0.06479676 0.63131541 -0.08500072
v -0.24498724 0.64005174 -0.08483001
v -0.24608615 0.64009931 -0.08483001
v -0.24715366 0.64024200 -0.08483001
v -0.24822118 0.64047983 -0.08483001
v -0.24925730 0.64080488 -0.08483001
v -0.25026202 0.64122504 -0.08483001
v -0.25123535 0.64173241 -0.08483001
v -0.25214587 0.64231114 -0.08483001
v -0.25302500 0.64297707 -0.08483001
v -0.25380994 0.64371433 -0.08483001
v -0.25456348 0.64452297 -0.08483001
v -0.25522283 0.64538709 -0.08483001
v -0.25581939 0.64630669 -0.08483001
v -0.25632174 0.64727388 -0.08483001
v -0.25672991 0.64828069 -0.08483001
v -0.25704389 0.64931922 -0.08483001
v -0.25729507 0.65038153 -0.08483001
v -0.25745205 0.65146762 -0.08483001
v -0.07600568 0.67946827 -0.08483001
v -0.01945871 0.65029432 -0.08500072
v -0.05434137 0.69642564 -0.08500072
v -0.05644501 0.69899422 -0.09699953
v -0.07666503 0.68034033 -0.09702579
v -0.25742066 0.65145971 -0.09702579
v -0.25729507 0.65038153 -0.09702579
v -0.25704389 0.64931130 -0.09702579
v -0.25672991 0.64827275 -0.09702579
v -0.25632174 0.64726595 -0.09702579
v -0.25581939 0.64629878 -0.09702579
v -0.25522283 0.64537915 -0.09702579
v -0.25456348 0.64451503 -0.09702579
v -0.25380994 0.64371433 -0.09702579
v -0.25302500 0.64297707 -0.09702579
v -0.25214587 0.64231114 -0.09702579
v -0.25123535 0.64172448 -0.09702579
v -0.25026202 0.64122504 -0.09702579
v -0.24925730 0.64080488 -0.09702579
v -0.24822118 0.64047983 -0.09702579
v -0.24715366 0.64024200 -0.09702579
v -0.24605475 0.64009931 -0.09702579
v -0.24498724 0.64005174 -0.09702579
v -0.06479676 0.63131541 -0.09699953
v -0.03339922 0.63137091 -0.08500072
v -0.24388832 0.64009931 -0.08483001
v -0.07540914 0.67854867 -0.08483001
v -0.01920754 0.64993758 -0.08500072
v -0.01945871 0.65029432 -0.09699953
v -0.05434137 0.69642564 -0.09699953
v -0.07600568 0.67947621 -0.09702579
v -0.24388832 0.64009931 -0.09702579
v -0.03339922 0.63137091 -0.09699953
v -0.03295965 0.63140261 -0.08500072
v -0.08514237 0.65985515 -0.08483001
v -0.07490676 0.67758148 -0.08483001
v -0.01898775 0.64955706 -0.08500072
v -0.01920754 0.64993758 -0.09699953
v -0.07540914 0.67855658 -0.09702579
v -0.08514237 0.65985515 -0.09702579
v -0.03295965 0.63140261 -0.09699953
v -0.03252008 0.63147396 -0.08500072
v -0.08407484 0.65999783 -0.08483001
v -0.07449861 0.67657467 -0.08483001
v -0.01879936 0.64916066 -0.08500072
v -0.01898775 0.64955706 -0.09699953
v -0.07490676 0.67758941 -0.09702579
v -0.08407484 0.65999783 -0.09702579
v -0.03252008 0.63147396 -0.09699953
v -0.03211192 0.63158495 -0.08500072
v -0.08300734 0.66023566 -0.08483001
v -0.07415324 0.67553614 -0.08483001
v -0.01864238 0.64874843 -0.08500072
v -0.01879936 0.64916066 -0.09699953
v -0.07449861 0.67658261 -0.09702579
v -0.08300734 0.66023566 -0.09702579
v -0.03211192 0.63158495 -0.09699953
v -0.03170375 0.63173557 -0.08500072
v -0.08197122 0.66056071 -0.08483001
v -0.07393345 0.67447383 -0.08483001
v -0.01854819 0.64832826 -0.08500072
v -0.01864238 0.64874843 -0.09699953
v -0.07415324 0.67554406 -0.09702579
v -0.08197122 0.66056862 -0.09702579
v -0.03170375 0.63173557 -0.09699953
v -0.03129559 0.63191792 -0.08500072
v -0.08096650 0.66098088 -0.08483001
v -0.07377645 0.67338774 -0.08483001
v -0.01842260 0.64746414 -0.08500072
v -0.01854819 0.64832826 -0.09699953
v -0.07393345 0.67447383 -0.09702579
v -0.08096650 0.66098088 -0.09702579
v -0.03129559 0.63191792 -0.09699953
v -0.03091881 0.63213196 -0.08500072
v -0.07999316 0.66148825 -0.08483001
v -0.07374506 0.67230164 -0.08483001
v -0.01845399 0.64702019 -0.08500072
v -0.01842260 0.64746414 -0.09699953
v -0.07377645 0.67122346 -0.08483001
v -0.07377645 0.67339565 -0.09702579
v -0.07999316 0.66148825 -0.09702579
v -0.03091881 0.63213196 -0.09699953
v -0.03057344 0.63237772 -0.08500072
v -0.07908264 0.66206697 -0.08483001
v -0.01848538 0.64659208 -0.08500072
v -0.01845399 0.64702019 -0.09699953
v -0.07377645 0.67122346 -0.09702579
v -0.07374506 0.67230955 -0.09702579
v -0.07393345 0.67013738 -0.08483001
v -0.07905125 0.66207489 -0.09702579
v -0.03057344 0.63237772 -0.09699953
v -0.03022807 0.63265520 -0.08500072
v -0.07820350 0.66273290 -0.08483001
v -0.01854819 0.64616400 -0.08500072
v -0.01848538 0.64659208 -0.09699953
v -0.07393345 0.67014530 -0.09702579
v -0.07415324 0.66907505 -0.08483001
v -0.07820350 0.66274082 -0.09702579
v -0.03022807 0.63265520 -0.09699953
v -0.02991408 0.63296438 -0.08500072
v -0.07738717 0.66347016 -0.08483001
v -0.01854819 0.64616400 -0.09699953
v -0.01867377 0.64574383 -0.08500072
v -0.07415324 0.66908299 -0.09702579
v -0.07449861 0.66803652 -0.08483001
v -0.07738717 0.66347810 -0.09702579
v -0.02991408 0.63296438 -0.09699953
v -0.01977269 0.64387289 -0.08500072
v -0.07666503 0.66427880 -0.08483001
v -0.01867377 0.64574383 -0.09699953
v -0.01883075 0.64533158 -0.08500072
v -0.07449861 0.66803652 -0.09702579
v -0.07490676 0.66702972 -0.08483001
v -0.07666503 0.66427880 -0.09702579
v -0.01977269 0.64387289 -0.09699953
v -0.01949011 0.64420585 -0.08500072
v -0.07600568 0.66514292 -0.08483001
v -0.01883075 0.64533158 -0.09699953
v -0.01901915 0.64493520 -0.08500072
v -0.07490676 0.66702972 -0.09702579
v -0.07540914 0.66606252 -0.08483001
v -0.07600568 0.66514292 -0.09702579
v -0.01949011 0.64420585 -0.09699953
v -0.01923893 0.64456260 -0.08500072
v -0.01901915 0.64493520 -0.09699953
v -0.07540914 0.66606252 -0.09702579
v -0.01923893 0.64456260 -0.09699953
f 1 2 3
f 1 3 4
f 1 4 9
f 1 9 5
f 1 5 13
f 1 13 6
f 1 6 2
f 2 6 7
f 2 7 15
f 2 15 23
f 2 23 31
f 2 31 39
f 2 39 47
f 2 47 55
f 2 55 64
f 2 64 83
f 2 83 82
f 2 82 81
f 2 81 80
f 2 80 79
f 2 79 78
f 2 78 77
f 2 77 76
f 2 76 75
f 2 75 74
f 2 74 73
f 2 73 119
f 2 119 118
f 2 118 117
f 2 117 116
f 2 116 115
f 2 115 114
f 2 114 113
f 2 113 112
f 2 112 111
f 2 111 110
f 2 110 109
f 2 109 108
f 2 108 107
f 2 107 106
f 2 106 105
f 2 105 104
f 2 104 103
f 2 103 102
f 2 102 145
f 2 145 154
f 2 154 162
f 2 162 170
f 2 170 178
f 2 178 186
f 2 186 194
f 2 194 203
f 2 203 212
f 2 212 220
f 2 220 228
f 2 228 236
f 2 236 240
f 2 240 232
f 2 232 224
f 2 224 216
f 2 216 208
f 2 208 198
f 2 198 195
f 2 195 187
f 2 187 179
f 2 179 171
f 2 171 163
f 2 163 155
f 2 155 146
f 2 146 120
f 2 120 84
f 2 84 65
f 2 65 56
f 2 56 48
f 2 48 40
f 2 40 32
f 2 32 24
f 2 24 16
f 2 16 8
f 2 8 3
f 3 8 4
f 4 8 10
f 4 10 19
f 4 19 9
f 5 9 11
f 5 11 12
f 5 12 13
f 6 13 21
f 6 21 14
f 6 14 7
f 7 14 15
f 8 16 17
f 8 17 10
f 9 18 11
f 9 19 18
f 10 17 26
f 10 26 19
f 11 18 27
f 11 27 35
f 11 35 43
f 11 43 51
f 11 51 59
f 11 59 68
f 11 68 87
f 11 87 124
f 11 124 150
f 11 150 158
f 11 158 166
f 11 166 174
f 11 174 182
f 11 182 190
f 11 190 199
f 11 199 207
f 11 207 206
f 11 206 215
f 11 215 223
f 11 223 231
f 11 231 239
f 11 239 245
f 11 245 241
f 11 241 233
f 11 233 225
f 11 225 217
f 11 217 209
f 11 209 200
f 11 200 191
f 11 191 183
f 11 183 175
f 11 175 167
f 11 167 159
f 11 159 151
f 11 151 142
f 11 142 141
f 11 141 140
f 11 140 139
f 11 139 138
f 11 138 137
f 11 137 136
f 11 136 135
f 11 135 134
f 11 134 133
f 11 133 132
f 11 132 131
f 11 131 130
f 11 130 129
f 11 129 128
f 11 128 127
f 11 127 126
f 11 126 125
f 11 125 100
f 11 100 99
f 11 99 98
f 11 98 97
f 11 97 96
f 11 96 95
f 11 95 94
f 11 94 93
f 11 93 92
f 11 92 91
f 11 91 90
f 11 90 88
f 11 88 69
f 11 69 60
f 11 60 52
f 11 52 44
f 11 44 36
f 11 36 28
f 11 28 20
f 11 20 12
f 12 20 13
f 13 20 21
f 14 21 29
f 14 29 22
f 14 22 15
f 15 22 23
f 16 24 25
f 16 25 17
f 17 25 34
f 17 34 26
f 18 19 26
f 18 26 27
f 20 28 21
f 21 28 29
f 22 29 37
f 22 37 30
f 22 30 23
f 23 30 31
f 24 32 33
f 24 33 25
f 25 33 42
f 25 42 34
f 26 34 27
f 27 34 35
f 28 36 29
f 29 36 37
f 30 37 45
f 30 45 38
f 30 38 31
f 31 38 39
f 32 40 41
f 32 41 33
f 33 41 50
f 33 50 42
f 34 42 35
f 35 42 43
f 36 44 37
f 37 44 45
f 38 45 53
f 38 53 46
f 38 46 39
f 39 46 47
f 40 48 49
f 40 49 41
f 41 49 58
f 41 58 50
f 42 50 43
f 43 50 51
f 44 52 45
f 45 52 53
f 46 53 61
f 46 61 54
f 46 54 47
f 47 54 55
f 48 56 57
f 48 57 49
f 49 57 67
f 49 67 58
f 50 58 51
f 51 58 59
f 52 60 53
f 53 60 61
f 54 61 70
f 54 70 62
f 54 62 55
f 55 62 63
f 55 63 64
f 56 65 66
f 56 66 57
f 57 66 86
f 57 86 67
f 58 67 59
f 59 67 68
f 60 69 61
f 61 69 70
f 62 70 71
f 62 71 63
f 63 71 89
f 63 89 72
f 63 72 73
f 63 73 74
f 63 74 75
f 63 75 76
f 63 76 77
f 63 77 78
f 63 78 79
f 63 79 80
f 63 80 81
f 63 81 82
f 63 82 83
f 63 83 64
f 65 84 85
f 65 85 66
f 66 85 123
f 66 123 86
f 67 86 68
f 68 86 87
f 69 88 71
f 69 71 70
f 71 88 90
f 71 90 91
f 71 91 92
f 71 92 93
f 71 93 94
f 71 94 95
f 71 95 96
f 71 96 97
f 71 97 98
f 71 98 99
f 71 99 100
f 71 100 89
f 72 101 102
f 72 102 103
f 72 103 104
f 72 104 105
f 72 105 106
f 72 106 107
f 72 107 108
f 72 108 109
f 72 109 110
f 72 110 111
f 72 111 112
f 72 112 113
f 72 113 114
f 72 114 115
f 72 115 116
f 72 116 117
f 72 117 118
f 72 118 119
f 72 119 73
f 72 89 143
f 72 143 101
f 84 120 121
f 84 121 122
f 84 122 85
f 85 122 149
f 85 149 123
f 86 123 87
f 87 123 124
f 89 100 125
f 89 125 126
f 89 126 127
f 89 127 128
f 89 128 129
f 89 129 130
f 89 130 131
f 89 131 132
f 89 132 133
f 89 133 134
f 89 134 135
f 89 135 136
f 89 136 137
f 89 137 138
f 89 138 139
f 89 139 140
f 89 140 141
f 89 141 142
f 89 142 143
f 101 143 152
f 101 152 144
f 101 144 102
f 102 144 145
f 120 146 147
f 120 147 121
f 121 147 157
f 121 157 148
f 121 148 149
f 121 149 122
f 123 149 124
f 124 149 150
f 142 151 152
f 142 152 143
f 144 152 160
f 144 160 153
f 144 153 145
f 145 153 154
f 146 155 156
f 146 156 147
f 147 156 165
f 147 165 157
f 148 157 150
f 148 150 149
f 150 157 158
f 151 159 160
f 151 160 152
f 153 160 168
f 153 168 161
f 153 161 162
f 153 162 154
f 155 163 164
f 155 164 156
f 156 164 173
f 156 173 165
f 157 165 158
f 158 165 166
f 159 167 160
f 160 167 168
f 161 168 176
f 161 176 169
f 161 169 170
f 161 170 162
f 163 171 172
f 163 172 164
f 164 172 181
f 164 181 173
f 165 173 166
f 166 173 174
f 167 175 168
f 168 175 176
f 169 176 184
f 169 184 177
f 169 177 178
f 169 178 170
f 171 179 180
f 171 180 172
f 172 180 189
f 172 189 181
f 173 181 174
f 174 181 182
f 175 183 176
f 176 183 184
f 177 184 192
f 177 192 185
f 177 185 186
f 177 186 178
f 179 187 188
f 179 188 180
f 180 188 197
f 180 197 189
f 181 189 182
f 182 189 190
f 183 191 184
f 184 191 192
f 185 192 201
f 185 201 193
f 185 193 194
f 185 194 186
f 187 195 188
f 188 196 205
f 188 205 197
f 188 195 198
f 188 198 196
f 189 197 199
f 189 199 190
f 191 200 192
f 192 200 201
f 193 201 210
f 193 210 202
f 193 202 203
f 193 203 194
f 196 198 204
f 196 204 214
f 196 214 205
f 197 205 206
f 197 206 207
f 197 207 199
f 198 208 204
f 200 209 201
f 201 209 210
f 202 210 218
f 202 218 211
f 202 211 212
f 202 212 203
f 204 208 213
f 204 213 221
f 204 221 214
f 205 214 206
f 206 214 215
f 208 216 213
f 209 217 210
f 210 217 218
f 211 218 226
f 211 226 219
f 211 219 220
f 211 220 212
f 213 216 222
f 213 222 229
f 213 229 221
f 214 221 215
f 215 221 223
f 216 224 222
f 217 225 218
f 218 225 226
f 219 226 234
f 219 234 227
f 219 227 220
f 220 227 228
f 221 229 223
f 222 224 230
f 222 230 237
f 222 237 229
f 223 229 231
f 224 232 230
f 225 233 234
f 225 234 226
f 227 234 242
f 227 242 235
f 227 235 228
f 228 235 236
f 229 237 231
f 230 232 238
f 230 238 244
f 230 244 237
f 231 237 239
f 232 240 238
f 233 241 242
f 233 242 234
f 235 242 246
f 235 246 243
f 235 243 236
f 236 243 240
f 237 244 239
f 238 240 243
f 238 243 246
f 238 246 244
f 239 244 245
f 241 245 246
f 241 246 242
f 244 246 245

