# https://github.com/mikedh/trimesh
v -0.41337946 0.30330114 0.09097168
v -0.40418579 0.30330114 0.09097168
v -0.41337946 0.30330114 0.28484826
v -0.41915222 0.31347154 0.09097168
v -0.43139434 0.38736323 0.09097168
v -0.40418579 0.30330114 0.28484826
v -0.41915222 0.31347154 0.28484826
v -0.42370078 0.32341153 0.09097168
v -0.43941551 0.38736323 0.09097168
v -0.43139434 0.38736323 0.28484826
v -0.42604919 0.32854610 0.28484826
v -0.42604919 0.32854610 0.09097168
v -0.43911893 0.38367687 0.09097168
v -0.43854304 0.37653456 0.28484826
v -0.43941207 0.38735500 0.28484826
v -0.43160469 0.34415551 0.28484826
v -0.42971491 0.33883992 0.09097168
v -0.43854304 0.37653456 0.09097168
v -0.43578081 0.36019281 0.28484826
v -0.43760506 0.37097211 0.09097168
v -0.43436004 0.35472910 0.09097168
v -0.43160469 0.34415551 0.09097168
v -0.43578081 0.36019281 0.09097168
f 1 2 6
f 1 6 3
f 1 3 7
f 1 7 4
f 1 4 8
f 1 8 12
f 1 12 17
f 1 17 22
f 1 22 21
f 1 21 23
f 1 23 20
f 1 20 18
f 1 18 13
f 1 13 9
f 1 9 5
f 1 5 2
f 2 5 10
f 2 10 6
f 3 6 10
f 3 10 15
f 3 15 14
f 3 14 19
f 3 19 16
f 3 16 11
f 3 11 7
f 4 7 8
f 5 9 10
f 7 11 8
f 8 11 12
f 9 13 14
f 9 14 15
f 9 15 10
f 11 16 17
f 11 17 12
f 13 18 14
f 14 18 20
f 14 20 19
f 16 19 21
f 16 21 22
f 16 22 17
f 19 20 23
f 19 23 21

