# https://github.com/mikedh/trimesh
v -0.07210429 0.38734077 -0.28500114
v -0.21074195 0.15781053 -0.28484539
v -0.05491937 0.15781053 -0.28500114
v -0.07210429 0.38734077 -0.29999854
v -0.43136507 0.38734077 -0.28484539
v -0.22549392 0.15781053 -0.28484539
v -0.05491937 0.15781053 -0.29999854
v -0.44943817 0.38734077 -0.29999854
v -0.43939756 0.38734077 -0.28484539
v -0.35316416 0.24045489 -0.28484539
v -0.35864789 0.23209609 -0.28500114
v -0.24387596 0.15781053 -0.28500114
v -0.24387596 0.15781053 -0.29999854
v -0.44843411 0.37529689 -0.29999854
v -0.44943817 0.38734077 -0.28500114
v -0.43850934 0.37653273 -0.28484539
v -0.36671897 0.25009449 -0.28484539
v -0.37285920 0.24220755 -0.28500114
v -0.35864789 0.23209609 -0.29999854
v -0.44553779 0.35808493 -0.29999854
v -0.44843411 0.37529689 -0.28500114
v -0.43576750 0.36019711 -0.28484539
v -0.37934698 0.26085758 -0.28484539
v -0.38614371 0.25350992 -0.28500114
v -0.37285920 0.24220755 -0.29999854
v -0.44553779 0.35808493 -0.28500114
v -0.44113535 0.34121002 -0.29999854
v -0.43159678 0.34415358 -0.28484539
v -0.39097091 0.27263182 -0.28484539
v -0.39838552 0.26593579 -0.28500114
v -0.38614371 0.25350992 -0.29999854
v -0.44113535 0.34121002 -0.28500114
v -0.43530408 0.32476204 -0.29999854
v -0.43530408 0.32476204 -0.28500114
v -0.42603582 0.32853699 -0.28484539
v -0.40155218 0.28539474 -0.28484539
v -0.40950743 0.27937280 -0.28500114
v -0.39838552 0.26593579 -0.29999854
v -0.42804396 0.30889828 -0.29999854
v -0.42804396 0.30889828 -0.28500114
v -0.41912326 0.31345967 -0.28484539
v -0.41093629 0.29905645 -0.28484539
v -0.41943220 0.29373108 -0.28500114
v -0.40950743 0.27937280 -0.29999854
v -0.41943220 0.29373108 -0.29999854
f 1 2 3
f 1 3 7
f 1 7 4
f 1 4 8
f 1 8 15
f 1 15 9
f 1 9 5
f 1 5 2
f 2 6 12
f 2 12 13
f 2 13 7
f 2 7 3
f 2 5 9
f 2 9 16
f 2 16 22
f 2 22 28
f 2 28 35
f 2 35 41
f 2 41 42
f 2 42 36
f 2 36 29
f 2 29 23
f 2 23 17
f 2 17 10
f 2 10 6
f 4 7 13
f 4 13 19
f 4 19 25
f 4 25 31
f 4 31 38
f 4 38 44
f 4 44 45
f 4 45 39
f 4 39 33
f 4 33 27
f 4 27 20
f 4 20 14
f 4 14 8
f 6 10 11
f 6 11 12
f 8 14 21
f 8 21 15
f 9 15 16
f 10 17 11
f 11 17 18
f 11 18 25
f 11 25 19
f 11 19 13
f 11 13 12
f 14 20 26
f 14 26 21
f 15 21 16
f 16 21 22
f 17 23 24
f 17 24 18
f 18 24 31
f 18 31 25
f 20 27 32
f 20 32 26
f 21 26 22
f 22 26 28
f 23 29 24
f 24 29 30
f 24 30 38
f 24 38 31
f 26 32 28
f 27 33 34
f 27 34 32
f 28 32 34
f 28 34 35
f 29 36 30
f 30 36 37
f 30 37 44
f 30 44 38
f 33 39 40
f 33 40 34
f 34 40 35
f 35 40 41
f 36 42 43
f 36 43 37
f 37 43 45
f 37 45 44
f 39 45 43
f 39 43 40
f 40 43 41
f 41 43 42

