# https://github.com/mikedh/trimesh
v -0.39591401 0.50856740 -0.23844479
v -0.39591401 0.52143031 -0.23844479
v -0.33918539 0.55845166 -0.23844479
v -0.39591401 0.50856740 -0.04236167
v -0.39591401 0.52143031 -0.04236167
v -0.38916655 0.52935974 -0.23844479
v -0.33918539 0.56764771 -0.23844479
v -0.33918539 0.55845166 -0.04236167
v -0.38916655 0.52935974 -0.04236167
v -0.37735989 0.54099073 -0.23844479
v -0.34977030 0.56163269 -0.23844479
v -0.33918539 0.56764771 -0.04236167
v -0.37735989 0.54099073 -0.04236167
v -0.36600307 0.55038920 -0.23844479
v -0.35094763 0.56096179 -0.23844479
v -0.35094763 0.56096179 -0.04236167
v -0.36459248 0.55155174 -0.04236167
v -0.36459248 0.55155174 -0.23844479
v -0.35245261 0.55992651 -0.23844479
v -0.35878356 0.55555983 -0.04236167
f 1 2 6
f 1 6 10
f 1 10 14
f 1 14 18
f 1 18 19
f 1 19 15
f 1 15 11
f 1 11 7
f 1 7 3
f 1 3 8
f 1 8 4
f 1 4 5
f 1 5 2
f 2 5 9
f 2 9 6
f 3 7 12
f 3 12 8
f 4 8 12
f 4 12 16
f 4 16 20
f 4 20 17
f 4 17 13
f 4 13 9
f 4 9 5
f 6 9 13
f 6 13 10
f 7 11 12
f 10 13 14
f 11 15 16
f 11 16 12
f 13 17 14
f 14 17 18
f 15 19 16
f 16 19 20
f 17 20 18
f 18 20 19

