# https://github.com/mikedh/trimesh
v -0.31911077 0.56833906 -0.04236167
v -0.31911077 0.56833906 0.08367251
v -0.31911077 0.57695668 -0.04236167
v -0.07794253 0.60016454 -0.04236167
v -0.10985909 0.60083915 0.08483038
v -0.31911077 0.57695668 0.08367251
v -0.07794253 0.60016454 0.08483038
v -0.08974599 0.60016454 0.08483038
v -0.31497956 0.57854032 -0.04236167
v -0.08318327 0.60502248 -0.04236167
v -0.10985909 0.60890143 0.08483038
v -0.31497956 0.57854032 0.08367251
v -0.08318327 0.60502248 0.08483038
v -0.30579646 0.58162539 0.08367251
v -0.30582007 0.58161305 -0.04236167
v -0.08450525 0.60615367 -0.04236167
v -0.09944842 0.61019716 0.08483038
v -0.27345499 0.58854826 0.08367251
v -0.28979097 0.58578818 0.08367251
v -0.08450525 0.60615367 0.08483038
v -0.28979097 0.58578818 -0.04236167
v -0.08594528 0.60716146 -0.04236167
v -0.09925957 0.61021772 0.08483038
v -0.09925957 0.61021772 -0.04236167
v -0.10988268 0.60890143 -0.04236167
v -0.10988268 0.60890143 0.08367251
v -0.27345499 0.58854826 -0.04236167
v -0.08594528 0.60716146 0.08483038
v -0.08705479 0.60782373 -0.04236167
v -0.09883465 0.61025474 -0.04236167
v -0.09753627 0.61036170 0.08483038
v -0.08743251 0.60804586 0.08483038
v -0.08743251 0.60804586 -0.04236167
v -0.09753627 0.61036170 -0.04236167
v -0.09578936 0.61034524 0.08483038
v -0.08861286 0.60860527 -0.04236167
v -0.08901417 0.60879449 0.08483038
v -0.09578936 0.61034524 -0.04236167
v -0.09534082 0.61030411 -0.04236167
v -0.09404244 0.61018072 0.08483038
v -0.08901417 0.60879449 -0.04236167
v -0.09064305 0.60940327 0.08483038
v -0.09404244 0.61018072 -0.04236167
v -0.09231914 0.60986809 0.08483038
v -0.09064305 0.60940327 -0.04236167
v -0.09231914 0.60986809 -0.04236167
f 1 2 6
f 1 6 3
f 1 3 9
f 1 9 15
f 1 15 21
f 1 21 27
f 1 27 25
f 1 25 24
f 1 24 30
f 1 30 34
f 1 34 38
f 1 38 39
f 1 39 43
f 1 43 46
f 1 46 45
f 1 45 41
f 1 41 36
f 1 36 33
f 1 33 29
f 1 29 22
f 1 22 16
f 1 16 10
f 1 10 4
f 1 4 7
f 1 7 2
f 2 5 11
f 2 11 6
f 2 7 8
f 2 8 5
f 3 6 12
f 3 12 9
f 4 10 13
f 4 13 7
f 5 8 7
f 5 7 13
f 5 13 20
f 5 20 28
f 5 28 32
f 5 32 37
f 5 37 42
f 5 42 44
f 5 44 40
f 5 40 35
f 5 35 31
f 5 31 23
f 5 23 17
f 5 17 11
f 6 11 12
f 9 12 14
f 9 14 15
f 10 16 20
f 10 20 13
f 11 17 18
f 11 18 19
f 11 19 14
f 11 14 12
f 14 19 21
f 14 21 15
f 16 22 28
f 16 28 20
f 17 23 24
f 17 24 25
f 17 25 26
f 17 26 18
f 18 26 25
f 18 25 27
f 18 27 21
f 18 21 19
f 22 29 28
f 23 30 24
f 23 31 30
f 28 29 32
f 29 33 32
f 30 31 34
f 31 35 38
f 31 38 34
f 32 33 36
f 32 36 37
f 35 39 38
f 35 40 39
f 36 41 37
f 37 41 45
f 37 45 42
f 39 40 43
f 40 44 46
f 40 46 43
f 42 45 46
f 42 46 44

