# https://github.com/mikedh/trimesh
v -0.43941137 0.38736324 -0.04236167
v -0.43139657 0.38736324 -0.04236167
v -0.43941137 0.38736324 0.23450554
v -0.43957378 0.38936663 -0.04236167
v -0.38802327 0.51836855 -0.04236167
v -0.43139657 0.38736324 0.23450554
v -0.43987327 0.39306521 0.23450554
v -0.43987327 0.39306521 -0.04236167
v -0.38802327 0.53048700 -0.04236167
v -0.38802327 0.51836855 0.23450554
v -0.43982250 0.40012613 -0.04236167
v -0.43977175 0.40708899 0.23450554
v -0.38917042 0.52935222 -0.04236167
v -0.38802327 0.53048700 0.23450554
v -0.43975145 0.40963877 -0.04236167
v -0.43975145 0.40963877 0.23450554
v -0.39991603 0.51672941 -0.04236167
v -0.38917042 0.52935222 0.23450554
v -0.43819315 0.42614227 -0.04236167
v -0.43819315 0.42614227 0.23450554
v -0.40951958 0.50320999 -0.04236167
v -0.39991603 0.51672941 0.23450554
v -0.43519840 0.44244964 -0.04236167
v -0.43519840 0.44244964 0.23450554
v -0.41789982 0.48892002 -0.04236167
v -0.41026065 0.50194911 0.23450554
v -0.40951958 0.50320999 0.23450554
v -0.43079255 0.45842076 -0.04236167
v -0.43147270 0.45596906 0.23450554
v -0.42198591 0.48031803 -0.04236167
v -0.41789982 0.48892002 0.23450554
v -0.42833073 0.46503338 -0.04236167
v -0.43079255 0.45842076 0.23450554
v -0.42501113 0.47394358 -0.04236167
v -0.42501113 0.47394358 0.23450554
v -0.42552378 0.47257062 0.23450554
f 1 2 6
f 1 6 3
f 1 3 4
f 1 4 8
f 1 8 11
f 1 11 15
f 1 15 19
f 1 19 23
f 1 23 28
f 1 28 32
f 1 32 34
f 1 34 30
f 1 30 25
f 1 25 21
f 1 21 17
f 1 17 13
f 1 13 9
f 1 9 5
f 1 5 2
f 2 5 10
f 2 10 6
f 3 6 10
f 3 10 14
f 3 14 18
f 3 18 22
f 3 22 27
f 3 27 26
f 3 26 31
f 3 31 35
f 3 35 36
f 3 36 33
f 3 33 29
f 3 29 24
f 3 24 20
f 3 20 16
f 3 16 12
f 3 12 7
f 3 7 4
f 4 7 8
f 5 9 14
f 5 14 10
f 7 11 8
f 7 12 11
f 9 13 18
f 9 18 14
f 11 12 15
f 12 16 15
f 13 17 22
f 13 22 18
f 15 16 20
f 15 20 19
f 17 21 27
f 17 27 22
f 19 20 24
f 19 24 23
f 21 25 26
f 21 26 27
f 23 24 29
f 23 29 28
f 25 30 31
f 25 31 26
f 28 29 33
f 28 33 32
f 30 34 35
f 30 35 31
f 32 33 36
f 32 36 34
f 34 36 35

