# https://github.com/mikedh/trimesh
v -0.05798192 0.07087848 0.28486477
v -0.01601968 0.04370532 0.28486477
v -0.05798192 0.07087848 0.26000237
v -0.07335986 0.06890661 0.28486477
v -0.01531191 0.04320773 0.28486477
v -0.01601968 0.04370532 0.26000237
v -0.06326876 0.06238284 0.25964437
v -0.07335986 0.06890661 0.25964437
v -0.02144593 0.03531102 0.25964437
v -0.07335986 0.05937895 0.28486477
v -0.01531191 0.04320773 0.26000237
v -0.01464703 0.04263643 0.28486477
v -0.07335986 0.05937895 0.25964437
v -0.01464703 0.04263643 0.26000237
v -0.01403577 0.04201908 0.26000237
v -0.01347814 0.04134642 0.26000237
v 0.03599078 -0.02197470 0.26000237
v -0.02141375 0.03526494 0.25964437
v -0.07319900 0.04736341 0.28486477
v -0.01403577 0.04201908 0.28486477
v -0.07319900 0.04736341 0.26000237
v -0.01475427 0.02145261 0.25964437
v -0.01347814 0.04134642 0.28486477
v 0.03596932 -0.02194706 0.28486477
v 0.03602294 -0.02202078 0.28486477
v 0.03607656 -0.02212212 0.26000237
v -0.01456125 0.02133281 0.25964437
v 0.03611946 -0.02220507 0.26000237
v 0.03593716 -0.02325550 0.28486477
v 0.03593716 -0.02325550 0.26000237
v 0.03606584 -0.02209450 0.28486477
v 0.03614090 -0.02227877 0.26000237
v 0.03616236 -0.02236170 0.26000237
v 0.03618380 -0.02245386 0.26000237
v 0.03618380 -0.02271185 0.26000237
v 0.03611946 -0.02296064 0.26000237
v 0.03603366 -0.02311729 0.26000237
v 0.03599078 -0.02318178 0.26000237
v 0.03609802 -0.02216820 0.28486477
v 0.03616236 -0.02233406 0.28486477
v 0.03605512 -0.02308044 0.28486477
v 0.03618380 -0.02250914 0.28486477
v 0.03617308 -0.02241699 0.28486477
v 0.03618380 -0.02267500 0.28486477
v 0.03617308 -0.02276714 0.28486477
v 0.03613018 -0.02293299 0.28486477
v 0.03609802 -0.02300671 0.28486477
f 1 2 6
f 1 6 3
f 1 3 8
f 1 8 4
f 1 4 10
f 1 10 19
f 1 19 29
f 1 29 41
f 1 41 47
f 1 47 46
f 1 46 45
f 1 45 44
f 1 44 42
f 1 42 43
f 1 43 40
f 1 40 39
f 1 39 31
f 1 31 25
f 1 25 24
f 1 24 23
f 1 23 20
f 1 20 12
f 1 12 5
f 1 5 2
f 2 5 11
f 2 11 6
f 3 7 8
f 3 6 9
f 3 9 7
f 4 8 13
f 4 13 10
f 5 12 14
f 5 14 11
f 6 11 9
f 7 9 18
f 7 18 27
f 7 27 22
f 7 22 13
f 7 13 8
f 9 11 14
f 9 14 15
f 9 15 16
f 9 16 17
f 9 17 18
f 10 13 21
f 10 21 19
f 12 20 15
f 12 15 14
f 13 22 21
f 15 20 23
f 15 23 16
f 16 23 24
f 16 24 17
f 17 24 25
f 17 25 31
f 17 31 26
f 17 26 18
f 18 26 28
f 18 28 27
f 19 21 30
f 19 30 29
f 21 22 30
f 22 27 30
f 26 31 28
f 27 28 32
f 27 32 33
f 27 33 34
f 27 34 35
f 27 35 36
f 27 36 37
f 27 37 38
f 27 38 30
f 28 31 39
f 28 39 40
f 28 40 32
f 29 30 38
f 29 38 41
f 32 40 33
f 33 40 34
f 34 42 44
f 34 44 35
f 34 40 43
f 34 43 42
f 35 44 45
f 35 45 46
f 35 46 36
f 36 46 47
f 36 47 37
f 37 41 38
f 37 47 41

