# https://github.com/mikedh/trimesh
v -0.31911077 0.56833906 0.09706853
v -0.31911077 0.56833906 0.23450554
v -0.31911077 0.57695668 0.09706853
v -0.10988268 0.60083503 0.09706853
v -0.07794253 0.60016454 0.09712235
v -0.31911077 0.57692787 0.23450554
v -0.07794253 0.60016454 0.23450554
v -0.31911077 0.57695668 0.21662635
v -0.31538087 0.57839224 0.09706853
v -0.10988268 0.60890143 0.09706853
v -0.08318327 0.60501838 0.09712235
v -0.08318327 0.60502248 0.23450554
v -0.30582007 0.58161305 0.23450554
v -0.31911077 0.57694021 0.22841127
v -0.31497956 0.57854032 0.09706853
v -0.10988268 0.60890143 0.23450554
v -0.09925957 0.61022184 0.09712235
v -0.09753627 0.61036170 0.09712235
v -0.09578936 0.61034524 0.09712235
v -0.09404244 0.61018072 0.09712235
v -0.09231914 0.60986809 0.09712235
v -0.09064305 0.60940327 0.09712235
v -0.08901417 0.60879449 0.09712235
v -0.08743251 0.60804586 0.09712235
v -0.08592167 0.60716146 0.09712235
v -0.08450525 0.60615367 0.09712235
v -0.27345499 0.58854826 0.09706853
v -0.08353737 0.60532688 0.23450554
v -0.28979097 0.58578818 0.23450554
v -0.28979097 0.58578818 0.09706853
v -0.30582007 0.58160895 0.09706853
v -0.27345499 0.58854826 0.23450554
v -0.09925957 0.61021772 0.23450554
v -0.09753627 0.61036170 0.23450554
v -0.09578936 0.61034524 0.23450554
v -0.09451458 0.61022596 0.23450554
v -0.09404244 0.61018072 0.23450554
v -0.09231914 0.60986809 0.23450554
v -0.09064305 0.60940327 0.23450554
v -0.08901417 0.60879449 0.23450554
v -0.08785744 0.60824740 0.23450554
v -0.08743251 0.60804586 0.23450554
v -0.08594528 0.60716146 0.23450554
v -0.08488296 0.60642516 0.23450554
v -0.08450525 0.60615367 0.23450554
f 1 2 6
f 1 6 14
f 1 14 8
f 1 8 3
f 1 3 9
f 1 9 15
f 1 15 31
f 1 31 30
f 1 30 27
f 1 27 10
f 1 10 4
f 1 4 5
f 1 5 7
f 1 7 2
f 2 7 12
f 2 12 28
f 2 28 45
f 2 45 44
f 2 44 43
f 2 43 42
f 2 42 41
f 2 41 40
f 2 40 39
f 2 39 38
f 2 38 37
f 2 37 36
f 2 36 35
f 2 35 34
f 2 34 33
f 2 33 16
f 2 16 32
f 2 32 29
f 2 29 13
f 2 13 6
f 3 8 9
f 4 10 5
f 5 11 12
f 5 12 7
f 5 10 11
f 6 13 14
f 8 14 13
f 8 13 15
f 8 15 9
f 10 16 17
f 10 17 18
f 10 18 19
f 10 19 20
f 10 20 21
f 10 21 22
f 10 22 23
f 10 23 24
f 10 24 25
f 10 25 26
f 10 26 11
f 10 27 32
f 10 32 16
f 11 26 28
f 11 28 12
f 13 29 30
f 13 30 31
f 13 31 15
f 16 33 17
f 17 33 34
f 17 34 18
f 18 34 35
f 18 35 19
f 19 35 36
f 19 36 20
f 20 37 38
f 20 38 21
f 20 36 37
f 21 38 39
f 21 39 22
f 22 39 40
f 22 40 23
f 23 40 41
f 23 41 24
f 24 41 42
f 24 42 25
f 25 43 44
f 25 44 26
f 25 42 43
f 26 45 28
f 26 44 45
f 27 30 29
f 27 29 32

