# https://github.com/mikedh/trimesh
v -0.04417658 0.56877798 -0.04236167
v -0.06571200 0.58879880 -0.04236167
v -0.04649289 0.56628409 -0.04236167
v -0.04461794 0.56830149 -0.23844479
v -0.04417658 0.56877798 -0.23844479
v -0.05020395 0.57438437 -0.23844479
v -0.06849441 0.59138186 -0.04236167
v -0.06849441 0.59138186 -0.23844479
v -0.04962134 0.56291803 -0.04236167
v -0.04962134 0.56291803 -0.23844479
v -0.08024550 0.59138186 -0.04236167
v -0.08024550 0.59138186 -0.23844479
f 1 2 7
f 1 7 11
f 1 11 9
f 1 9 3
f 1 3 4
f 1 4 5
f 1 5 6
f 1 6 2
f 2 6 8
f 2 8 7
f 3 9 10
f 3 10 4
f 4 10 12
f 4 12 8
f 4 8 6
f 4 6 5
f 7 8 12
f 7 12 11
f 9 11 12
f 9 12 10

