# https://github.com/mikedh/trimesh
v -0.09040134 0.62136686 -0.28500101
v -0.08949929 0.62134395 -0.28500101
v -0.09040134 0.62136686 -0.30000001
v -0.09126239 0.62127523 -0.28500101
v -0.09933979 0.61021182 -0.28494649
v -0.09753570 0.61034925 -0.28494649
v -0.09577261 0.61032636 -0.28494649
v -0.08863827 0.62127523 -0.28500101
v -0.08949929 0.62134395 -0.30000001
v -0.09126239 0.62127523 -0.30000001
v -0.27466471 0.59846127 -0.28500101
v -0.27343465 0.58854313 -0.28494649
v -0.09405053 0.61016603 -0.28494649
v -0.08777721 0.62111489 -0.28500101
v -0.08863827 0.62127523 -0.30000001
v -0.09232845 0.60986825 -0.28494649
v -0.27466471 0.59846127 -0.30000001
v -0.29188559 0.59555225 -0.28500101
v -0.28979448 0.58577154 -0.28494649
v -0.08695718 0.62088584 -0.28500101
v -0.08777721 0.62111489 -0.30000001
v -0.09064736 0.60938723 -0.28494649
v -0.29188559 0.59555225 -0.30000001
v -0.30877844 0.59115436 -0.28500101
v -0.30582630 0.58160274 -0.28494649
v -0.08613712 0.62056515 -0.28500101
v -0.08695718 0.62088584 -0.30000001
v -0.08900727 0.60879169 -0.28494649
v -0.30877844 0.59115436 -0.30000001
v -0.32522028 0.58531345 -0.28500101
v -0.32144809 0.57603668 -0.28494649
v -0.08613712 0.62056515 -0.30000001
v -0.08535808 0.62019867 -0.28500101
v -0.08744920 0.60803579 -0.28494649
v -0.32522028 0.58531345 -0.30000001
v -0.34104708 0.57805235 -0.28500101
v -0.33649587 0.56914209 -0.28494649
v -0.08535808 0.62019867 -0.30000001
v -0.08457906 0.61976346 -0.28500101
v -0.08593211 0.60716538 -0.28494649
v -0.34104708 0.57805235 -0.30000001
v -0.35621785 0.56941694 -0.28500101
v -0.35092859 0.56096479 -0.28494649
v -0.08457906 0.61976346 -0.30000001
v -0.08388202 0.61925955 -0.28500101
v -0.08453804 0.60613464 -0.28494649
v -0.35621785 0.56941694 -0.30000001
v -0.37060959 0.55952173 -0.28500101
v -0.36458230 0.55155058 -0.28494649
v -0.08388202 0.61925955 -0.30000001
v -0.08318499 0.60501226 -0.28494649
v -0.08322598 0.61868690 -0.28500101
v -0.37060959 0.55952173 -0.30000001
v -0.38405828 0.54838962 -0.28500101
v -0.37733393 0.54099110 -0.28494649
v -0.08322598 0.61868690 -0.30000001
v -0.04419200 0.56877561 -0.28494649
v -0.03738565 0.57608249 -0.28500101
v -0.38405828 0.54838962 -0.30000001
v -0.39648191 0.53615802 -0.28500101
v -0.38914253 0.52935507 -0.28494649
v -0.03738565 0.57608249 -0.30000001
v -0.04964528 0.56291176 -0.28494649
v -0.07211441 0.38736325 -0.28500101
v -0.03139935 0.55750603 -0.28500101
v -0.03111233 0.55917815 -0.28500101
v -0.03098933 0.56087316 -0.28500101
v -0.03103032 0.56256817 -0.28500101
v -0.03119434 0.56426320 -0.28500101
v -0.03152235 0.56593529 -0.28500101
v -0.03197338 0.56758451 -0.28500101
v -0.03254742 0.56916500 -0.28500101
v -0.03328544 0.57069967 -0.28500101
v -0.03414649 0.57218853 -0.28500101
v -0.03508953 0.57358578 -0.28500101
v -0.03619658 0.57489139 -0.28500101
v -0.39648191 0.53615802 -0.30000001
v -0.40779848 0.52287278 -0.28500101
v -0.39988508 0.51673407 -0.28494649
v -0.03619658 0.57489139 -0.30000001
v -0.43137469 0.38736325 -0.28494649
v -0.07211441 0.38736325 -0.30000001
v -0.03139935 0.55750603 -0.30000001
v -0.03111233 0.55917815 -0.30000001
v -0.03098933 0.56087316 -0.30000001
v -0.03103032 0.56256817 -0.30000001
v -0.03119434 0.56426320 -0.30000001
v -0.03152235 0.56593529 -0.30000001
v -0.03197338 0.56758451 -0.30000001
v -0.03254742 0.56916500 -0.30000001
v -0.03328544 0.57069967 -0.30000001
v -0.03414649 0.57218853 -0.30000001
v -0.03508953 0.57358578 -0.30000001
v -0.40779848 0.52287278 -0.30000001
v -0.41788501 0.50864839 -0.28500101
v -0.40947957 0.50324267 -0.28494649
v -0.43941110 0.38736325 -0.28494649
v -0.44941559 0.38736325 -0.30000001
v -0.41788501 0.50864839 -0.30000001
v -0.42670046 0.49362232 -0.28500101
v -0.41788501 0.48894957 -0.28494649
v -0.43986211 0.39306674 -0.28494649
v -0.44986663 0.39270024 -0.28500101
v -0.44941559 0.38736325 -0.28500101
v -0.44986663 0.39270024 -0.30000001
v -0.42670046 0.49362232 -0.30000001
v -0.43420383 0.47786326 -0.28500101
v -0.42497836 0.47396932 -0.28494649
v -0.43973911 0.40965039 -0.28494649
v -0.44970261 0.41015432 -0.28500101
v -0.44970261 0.41015432 -0.30000001
v -0.43420383 0.47786326 -0.30000001
v -0.44027213 0.46150867 -0.28500101
v -0.43075967 0.45843932 -0.28494649
v -0.43818103 0.42614242 -0.28494649
v -0.44806254 0.42751676 -0.28500101
v -0.44806254 0.42751676 -0.30000001
v -0.44027213 0.46150867 -0.30000001
v -0.44494637 0.44469596 -0.28500101
v -0.43518788 0.44245120 -0.28494649
v -0.44494637 0.44469596 -0.30000001
f 1 2 9
f 1 9 3
f 1 3 10
f 1 10 4
f 1 4 5
f 1 5 6
f 1 6 7
f 1 7 2
f 2 8 15
f 2 15 9
f 2 7 8
f 3 9 15
f 3 15 21
f 3 21 27
f 3 27 32
f 3 32 38
f 3 38 44
f 3 44 50
f 3 50 56
f 3 56 62
f 3 62 80
f 3 80 93
f 3 93 92
f 3 92 91
f 3 91 90
f 3 90 89
f 3 89 88
f 3 88 87
f 3 87 86
f 3 86 85
f 3 85 84
f 3 84 83
f 3 83 82
f 3 82 98
f 3 98 105
f 3 105 111
f 3 111 117
f 3 117 121
f 3 121 118
f 3 118 112
f 3 112 106
f 3 106 99
f 3 99 94
f 3 94 77
f 3 77 59
f 3 59 53
f 3 53 47
f 3 47 41
f 3 41 35
f 3 35 29
f 3 29 23
f 3 23 17
f 3 17 10
f 4 10 17
f 4 17 11
f 4 11 5
f 5 11 12
f 5 12 19
f 5 19 25
f 5 25 31
f 5 31 37
f 5 37 43
f 5 43 49
f 5 49 55
f 5 55 61
f 5 61 79
f 5 79 96
f 5 96 101
f 5 101 108
f 5 108 114
f 5 114 120
f 5 120 115
f 5 115 109
f 5 109 102
f 5 102 97
f 5 97 81
f 5 81 63
f 5 63 57
f 5 57 51
f 5 51 46
f 5 46 40
f 5 40 34
f 5 34 28
f 5 28 22
f 5 22 16
f 5 16 13
f 5 13 7
f 5 7 6
f 7 13 8
f 8 14 21
f 8 21 15
f 8 13 16
f 8 16 14
f 11 17 23
f 11 23 18
f 11 18 12
f 12 18 19
f 14 20 27
f 14 27 21
f 14 16 20
f 16 22 20
f 18 23 29
f 18 29 24
f 18 24 25
f 18 25 19
f 20 26 32
f 20 32 27
f 20 22 28
f 20 28 26
f 24 29 35
f 24 35 30
f 24 30 25
f 25 30 31
f 26 28 33
f 26 33 38
f 26 38 32
f 28 34 33
f 30 35 41
f 30 41 36
f 30 36 37
f 30 37 31
f 33 39 44
f 33 44 38
f 33 34 39
f 34 40 39
f 36 41 47
f 36 47 42
f 36 42 43
f 36 43 37
f 39 40 45
f 39 45 50
f 39 50 44
f 40 46 45
f 42 47 53
f 42 53 48
f 42 48 43
f 43 48 49
f 45 46 51
f 45 51 52
f 45 52 56
f 45 56 50
f 48 53 59
f 48 59 54
f 48 54 49
f 49 54 55
f 51 57 52
f 52 57 58
f 52 58 62
f 52 62 56
f 54 59 77
f 54 77 60
f 54 60 55
f 55 60 61
f 57 63 64
f 57 64 65
f 57 65 66
f 57 66 67
f 57 67 68
f 57 68 69
f 57 69 70
f 57 70 71
f 57 71 72
f 57 72 73
f 57 73 74
f 57 74 75
f 57 75 76
f 57 76 58
f 58 76 80
f 58 80 62
f 60 77 94
f 60 94 78
f 60 78 61
f 61 78 79
f 63 81 64
f 64 82 83
f 64 83 65
f 64 81 97
f 64 97 104
f 64 104 98
f 64 98 82
f 65 83 84
f 65 84 66
f 66 84 85
f 66 85 67
f 67 85 86
f 67 86 68
f 68 86 87
f 68 87 69
f 69 87 88
f 69 88 70
f 70 88 89
f 70 89 71
f 71 89 90
f 71 90 72
f 72 90 91
f 72 91 73
f 73 91 92
f 73 92 74
f 74 92 93
f 74 93 75
f 75 93 80
f 75 80 76
f 78 94 99
f 78 99 95
f 78 95 96
f 78 96 79
f 95 99 106
f 95 106 100
f 95 100 101
f 95 101 96
f 97 102 103
f 97 103 104
f 98 104 103
f 98 103 105
f 100 106 112
f 100 112 107
f 100 107 101
f 101 107 108
f 102 109 103
f 103 109 110
f 103 110 111
f 103 111 105
f 107 112 118
f 107 118 113
f 107 113 114
f 107 114 108
f 109 115 116
f 109 116 110
f 110 116 117
f 110 117 111
f 113 118 121
f 113 121 119
f 113 119 114
f 114 119 120
f 115 120 119
f 115 119 116
f 116 119 121
f 116 121 117

