# https://github.com/mikedh/trimesh
v -0.09568199 0.61034090 -0.23844933
v -0.09568199 0.61034090 -0.27537732
v -0.09568199 0.60245875 -0.23844933
v -0.09533912 0.61030841 -0.23844933
v -0.09568199 0.61033625 -0.28494500
v -0.09403326 0.61018306 -0.28494500
v -0.04962343 0.56291801 -0.23844933
v -0.09568199 0.60245875 -0.28494500
v -0.09403326 0.61018306 -0.23844933
v -0.09231394 0.60986741 -0.28494500
v -0.04962343 0.56292266 -0.28494500
v -0.04417808 0.56878089 -0.28494500
v -0.04462178 0.56830276 -0.23844933
v -0.09231394 0.60986741 -0.23844933
v -0.09063495 0.60940321 -0.28494500
v -0.05020326 0.57438380 -0.23844933
v -0.04417808 0.56878089 -0.23844933
v -0.08316777 0.60502114 -0.28494500
v -0.09063495 0.60940321 -0.23844933
v -0.09022655 0.60925467 -0.23844933
v -0.08899631 0.60879511 -0.28494500
v -0.08316777 0.60502114 -0.23844933
v -0.08449382 0.60615380 -0.28494500
v -0.08899631 0.60879511 -0.23844933
v -0.08742321 0.60804774 -0.28494500
v -0.08449382 0.60615380 -0.23844933
v -0.08556271 0.60691508 -0.23844933
v -0.08591565 0.60716576 -0.28494500
v -0.08742321 0.60804774 -0.23844933
v -0.08705010 0.60782956 -0.23844933
v -0.08591565 0.60716576 -0.23844933
f 1 2 5
f 1 5 8
f 1 8 3
f 1 3 7
f 1 7 13
f 1 13 17
f 1 17 16
f 1 16 22
f 1 22 26
f 1 26 27
f 1 27 31
f 1 31 30
f 1 30 29
f 1 29 24
f 1 24 20
f 1 20 19
f 1 19 14
f 1 14 9
f 1 9 4
f 1 4 2
f 2 4 6
f 2 6 5
f 3 8 7
f 4 9 6
f 5 6 10
f 5 10 15
f 5 15 21
f 5 21 25
f 5 25 28
f 5 28 23
f 5 23 18
f 5 18 12
f 5 12 11
f 5 11 8
f 6 9 14
f 6 14 10
f 7 11 12
f 7 12 13
f 7 8 11
f 10 14 19
f 10 19 15
f 12 16 17
f 12 17 13
f 12 18 16
f 15 19 20
f 15 20 21
f 16 18 22
f 18 23 26
f 18 26 22
f 20 24 21
f 21 24 29
f 21 29 25
f 23 27 26
f 23 28 27
f 25 29 30
f 25 30 28
f 27 28 31
f 28 30 31

