# https://github.com/mikedh/trimesh
v -0.43941286 0.38736324 -0.23844479
v -0.43139640 0.38736324 -0.23844479
v -0.43941286 0.38736324 -0.04236167
v -0.43987327 0.39307177 -0.23844479
v -0.39591401 0.50855490 -0.23844479
v -0.43139640 0.38736324 -0.04236167
v -0.43987327 0.39307177 -0.04236167
v -0.43975279 0.40964622 -0.23844479
v -0.39591401 0.52142864 -0.23844479
v -0.39591401 0.50855490 -0.04236167
v -0.43975279 0.40964622 -0.04236167
v -0.43909013 0.41666708 -0.04236167
v -0.43836293 0.42433096 -0.23844479
v -0.39991149 0.51673057 -0.23844479
v -0.39591401 0.52142864 -0.04236167
v -0.43819080 0.42614194 -0.04236167
v -0.43819080 0.42614194 -0.23844479
v -0.40873260 0.50431614 -0.23844479
v -0.39991149 0.51673057 -0.04236167
v -0.43691713 0.43308405 -0.04236167
v -0.43794555 0.42748049 -0.23844479
v -0.40951574 0.50321380 -0.23844479
v -0.40951574 0.50321380 -0.04236167
v -0.43519592 0.44245393 -0.04236167
v -0.43552727 0.44065607 -0.23844479
v -0.41044087 0.50163903 -0.23844479
v -0.41433507 0.49501187 -0.04236167
v -0.43332414 0.44925168 -0.04236167
v -0.43483878 0.44375312 -0.23844479
v -0.43519592 0.44245393 -0.23844479
v -0.41722239 0.49009072 -0.23844479
v -0.41790226 0.48892276 -0.04236167
v -0.43079397 0.45841160 -0.04236167
v -0.43128021 0.45665311 -0.23844479
v -0.41790226 0.48892276 -0.23844479
v -0.42198578 0.48032714 -0.04236167
v -0.42501507 0.47394933 -0.04236167
v -0.42565191 0.47224333 -0.23844479
v -0.43079397 0.45841160 -0.23844479
v -0.42501507 0.47394933 -0.23844479
f 1 2 6
f 1 6 3
f 1 3 7
f 1 7 4
f 1 4 8
f 1 8 13
f 1 13 17
f 1 17 21
f 1 21 25
f 1 25 30
f 1 30 29
f 1 29 34
f 1 34 39
f 1 39 38
f 1 38 40
f 1 40 35
f 1 35 31
f 1 31 26
f 1 26 22
f 1 22 18
f 1 18 14
f 1 14 9
f 1 9 5
f 1 5 2
f 2 5 10
f 2 10 6
f 3 6 10
f 3 10 15
f 3 15 19
f 3 19 23
f 3 23 27
f 3 27 32
f 3 32 36
f 3 36 37
f 3 37 33
f 3 33 28
f 3 28 24
f 3 24 20
f 3 20 16
f 3 16 12
f 3 12 11
f 3 11 7
f 4 7 11
f 4 11 8
f 5 9 15
f 5 15 10
f 8 11 12
f 8 12 13
f 9 14 19
f 9 19 15
f 12 16 13
f 13 16 17
f 14 18 19
f 16 20 21
f 16 21 17
f 18 22 23
f 18 23 19
f 20 24 25
f 20 25 21
f 22 26 27
f 22 27 23
f 24 28 29
f 24 29 30
f 24 30 25
f 26 31 27
f 27 31 32
f 28 33 34
f 28 34 29
f 31 35 32
f 32 35 36
f 33 37 38
f 33 38 39
f 33 39 34
f 35 40 36
f 36 40 37
f 37 40 38

