# https://github.com/mikedh/trimesh
v -0.01456294 0.02132994 -0.17423829
v -0.02047168 0.03333090 -0.17423829
v -0.09366877 0.07251980 -0.17423829
v -0.01456294 0.02132994 -0.25992498
v -0.02145518 0.03532216 -0.25992498
v -0.02145518 0.03532216 -0.17423829
v -0.09366877 0.07251980 -0.25992498
v -0.09366877 0.08205399 -0.17423829
v -0.06342037 0.06248035 -0.25992498
v -0.06761768 0.06519676 -0.17423829
v -0.09366877 0.08205399 -0.25992498
v -0.09273174 0.08144771 -0.25992498
f 1 2 6
f 1 6 10
f 1 10 8
f 1 8 3
f 1 3 7
f 1 7 4
f 1 4 2
f 2 4 5
f 2 5 6
f 3 8 11
f 3 11 7
f 4 7 11
f 4 11 12
f 4 12 9
f 4 9 5
f 5 9 10
f 5 10 6
f 8 10 12
f 8 12 11
f 9 12 10

