# https://github.com/mikedh/trimesh
v -0.08591261 0.71229488 0.09699918
v -0.08591261 0.71229488 0.08500108
v -0.08926798 0.71218523 0.09699918
v -0.08623638 0.68480151 0.10299822
v -0.08514735 0.68475166 0.10299822
v -0.08261610 0.71213538 0.09699918
v -0.08261610 0.71213538 0.08500108
v -0.08514735 0.68475166 0.08486797
v -0.08623638 0.68480151 0.08486797
v -0.08926798 0.71218523 0.08500108
v -0.09256448 0.71179643 0.09699918
v -0.08732539 0.68475166 0.10299822
v -0.08405834 0.68461211 0.10299822
v -0.07929017 0.71169675 0.09699918
v -0.08405834 0.68461211 0.08486797
v -0.07929017 0.71169675 0.08500108
v -0.08732539 0.68475166 0.08486797
v -0.09256448 0.71179643 0.08500108
v -0.25141472 0.69202874 0.09699918
v -0.24608734 0.66499394 0.10299822
v -0.08299874 0.68437286 0.10299822
v -0.07605254 0.71097902 0.09699918
v -0.07605254 0.71097902 0.08500108
v -0.08299874 0.68437286 0.08486797
v -0.24608734 0.66499394 0.08486797
v -0.25141472 0.69202874 0.08500108
v -0.25453463 0.69139076 0.09699918
v -0.24714693 0.66485437 0.10299822
v -0.08196858 0.68404391 0.10299822
v -0.07287376 0.71000210 0.09699918
v -0.07287376 0.71000210 0.08500108
v -0.08196858 0.68404391 0.08486797
v -0.24714693 0.66485437 0.08486797
v -0.25453463 0.69139076 0.08500108
v -0.24820652 0.66461512 0.10299822
v -0.25759567 0.69050355 0.09699918
v -0.08096786 0.68362523 0.10299822
v -0.06978329 0.70875602 0.09699918
v -0.06978329 0.70875602 0.08500108
v -0.08096786 0.68363518 0.08486797
v -0.24823595 0.66461512 0.08486797
v -0.25759567 0.69050355 0.08500108
v -0.24926611 0.66429614 0.10299822
v -0.26059784 0.68937710 0.09699918
v -0.07999656 0.68312678 0.10299822
v -0.06681055 0.70726074 0.09699918
v -0.06681055 0.70726074 0.08500108
v -0.07999656 0.68312678 0.08486797
v -0.24926611 0.66428617 0.08486797
v -0.26059784 0.68937710 0.08500108
v -0.25026683 0.66387746 0.10299822
v -0.26348228 0.68802137 0.09699918
v -0.07905471 0.68253865 0.10299822
v -0.06395555 0.70552621 0.09699918
v -0.06395555 0.70552621 0.08500108
v -0.07908414 0.68253865 0.08486797
v -0.25026683 0.66387746 0.08486797
v -0.26348228 0.68802137 0.08500108
v -0.25123813 0.66336906 0.10299822
v -0.26624898 0.68643637 0.09699918
v -0.07820116 0.68188072 0.10299822
v -0.06127714 0.70356240 0.09699918
v -0.06127714 0.70356240 0.08500108
v -0.07820116 0.68188072 0.08486797
v -0.25123813 0.66336906 0.08486797
v -0.26624898 0.68643637 0.08500108
v -0.25215055 0.66278091 0.10299822
v -0.31911077 0.65329080 0.09699918
v -0.07740646 0.68114305 0.10299822
v -0.05877533 0.70137927 0.09699918
v -0.05877533 0.70137927 0.08500108
v -0.07740646 0.68114305 0.08486797
v -0.25215055 0.66278091 0.08486797
v -0.31911077 0.65329080 0.08500108
v -0.25303354 0.66212298 0.10299822
v -0.31911077 0.63692240 0.09699918
v -0.25747793 0.65255315 0.10299822
v -0.25744850 0.65363971 0.10299822
v -0.25730133 0.65472628 0.10299822
v -0.25706587 0.65579294 0.10299822
v -0.25674211 0.65682967 0.10299822
v -0.25630061 0.65783649 0.10299822
v -0.25580025 0.65880345 0.10299822
v -0.25521159 0.65972055 0.10299822
v -0.25456406 0.66058783 0.10299822
v -0.25382823 0.66138531 0.10299822
v -0.07667062 0.68033559 0.10299822
v -0.05645011 0.69899678 0.09699918
v -0.05645011 0.69899678 0.08500108
v -0.07667062 0.68033559 0.08486797
v -0.25303354 0.66212298 0.08486797
v -0.31911077 0.63692240 0.08500108
v -0.25382823 0.66138531 0.08486797
v -0.25456406 0.66058783 0.08486797
v -0.25521159 0.65972055 0.08486797
v -0.25580025 0.65880345 0.08486797
v -0.25630061 0.65783649 0.08486797
v -0.25674211 0.65682967 0.08486797
v -0.25706587 0.65579294 0.08486797
v -0.25730133 0.65472628 0.08486797
v -0.25744850 0.65363971 0.08486797
v -0.25747793 0.65255315 0.08486797
v -0.29341570 0.61046578 0.09699918
v -0.25382823 0.64372097 0.10299822
v -0.25456406 0.64451845 0.10299822
v -0.25521159 0.64538573 0.10299822
v -0.25580025 0.64630283 0.10299822
v -0.25630061 0.64726978 0.10299822
v -0.25674211 0.64827661 0.10299822
v -0.25706587 0.64932332 0.10299822
v -0.25730133 0.65037999 0.10299822
v -0.25744850 0.65146657 0.10299822
v -0.07599367 0.67946832 0.10299822
v -0.05433094 0.69642488 0.09699918
v -0.05433094 0.69642488 0.08500108
v -0.07599367 0.67946832 0.08486797
v -0.25744850 0.65146657 0.08486797
v -0.25730133 0.65037999 0.08486797
v -0.25706587 0.64932332 0.08486797
v -0.25674211 0.64827661 0.08486797
v -0.25630061 0.64726978 0.08486797
v -0.25580025 0.64630283 0.08486797
v -0.25521159 0.64538573 0.08486797
v -0.25456406 0.64451845 0.08486797
v -0.25382823 0.64371100 0.08486797
v -0.29341570 0.61046578 0.08500108
v -0.05156422 0.61046578 0.09699918
v -0.24499832 0.64005253 0.10299822
v -0.24608734 0.64010238 0.10299822
v -0.24714693 0.64024193 0.10299822
v -0.24820652 0.64048118 0.10299822
v -0.24926611 0.64081014 0.10299822
v -0.25026683 0.64122884 0.10299822
v -0.25123813 0.64172726 0.10299822
v -0.25215055 0.64231539 0.10299822
v -0.25303354 0.64298329 0.10299822
v -0.07540500 0.67855121 0.10299822
v -0.01918785 0.64993139 0.09699918
v -0.01945275 0.65029027 0.09699918
v -0.01945275 0.65029027 0.08500108
v -0.07540500 0.67855121 0.08486797
v -0.01918785 0.64993139 0.08500108
v -0.25303354 0.64298329 0.08486797
v -0.25215055 0.64231539 0.08486797
v -0.25123813 0.64172726 0.08486797
v -0.25026683 0.64122884 0.08486797
v -0.24926611 0.64081014 0.08486797
v -0.24820652 0.64048118 0.08486797
v -0.24714693 0.64024193 0.08486797
v -0.24608734 0.64010238 0.08486797
v -0.24499832 0.64005253 0.08486797
v -0.05156422 0.61046578 0.08500108
v -0.02990149 0.63296486 0.09699918
v -0.07740646 0.66345876 0.10299822
v -0.07820116 0.66272109 0.10299822
v -0.07905471 0.66206316 0.10299822
v -0.07999656 0.66147503 0.10299822
v -0.08096786 0.66098656 0.10299822
v -0.08196858 0.66056788 0.10299822
v -0.08299874 0.66023893 0.10299822
v -0.08405834 0.65999968 0.10299822
v -0.08514735 0.65986010 0.10299822
v -0.24390929 0.64010238 0.10299822
v -0.07490465 0.67758426 0.10299822
v -0.01898184 0.64955259 0.09699918
v -0.01898184 0.64955259 0.08500108
v -0.07490465 0.67758426 0.08486797
v -0.24390929 0.64010238 0.08486797
v -0.08514735 0.65986010 0.08486797
v -0.08405834 0.65999968 0.08486797
v -0.08299874 0.66023893 0.08486797
v -0.08196858 0.66056788 0.08486797
v -0.08096786 0.66098656 0.08486797
v -0.07999656 0.66147503 0.08486797
v -0.07905471 0.66206316 0.08486797
v -0.07820116 0.66272109 0.08486797
v -0.07740646 0.66345876 0.08486797
v -0.02990149 0.63296486 0.08500108
v -0.01977653 0.64387050 0.09699918
v -0.07667062 0.66426622 0.10299822
v -0.07449258 0.67657743 0.10299822
v -0.01880524 0.64916382 0.09699918
v -0.01880524 0.64916382 0.08500108
v -0.07449258 0.67657743 0.08486797
v -0.07667062 0.66426622 0.08486797
v -0.01977653 0.64387050 0.08500108
v -0.01948219 0.64420942 0.09699918
v -0.07599367 0.66513349 0.10299822
v -0.07416882 0.67554070 0.10299822
v -0.01865806 0.64874514 0.09699918
v -0.01865806 0.64874514 0.08500108
v -0.07416882 0.67554070 0.08486797
v -0.07599367 0.66513349 0.08486797
v -0.01948219 0.64420942 0.08500108
v -0.01924673 0.64455833 0.09699918
v -0.07540500 0.66605060 0.10299822
v -0.07393335 0.67447405 0.10299822
v -0.01854034 0.64832646 0.09699918
v -0.01854034 0.64832646 0.08500108
v -0.07393335 0.67447405 0.08486797
v -0.07540500 0.66605060 0.08486797
v -0.01924673 0.64455833 0.08500108
v -0.01901125 0.64493715 0.09699918
v -0.07490465 0.66701755 0.10299822
v -0.07378618 0.67338747 0.10299822
v -0.01848146 0.64789781 0.09699918
v -0.01848146 0.64789781 0.08500108
v -0.07378618 0.67338747 0.08486797
v -0.07490465 0.66701755 0.08486797
v -0.01901125 0.64493715 0.08500108
v -0.01883466 0.64533588 0.09699918
v -0.07449258 0.66802438 0.10299822
v -0.07372733 0.67230092 0.10299822
v -0.01842260 0.64745918 0.09699918
v -0.01842260 0.64745918 0.08500108
v -0.07372733 0.67230092 0.08486797
v -0.07449258 0.66802438 0.08486797
v -0.01883466 0.64533588 0.08500108
v -0.01868750 0.64574460 0.09699918
v -0.07416882 0.66906111 0.10299822
v -0.07378618 0.67121434 0.10299822
v -0.01845204 0.64702058 0.09699918
v -0.01845204 0.64702058 0.08500108
v -0.07378618 0.67121434 0.08486797
v -0.07416882 0.66907108 0.08486797
v -0.01868750 0.64574460 0.08500108
v -0.01856976 0.64616328 0.09699918
v -0.07393335 0.67012776 0.10299822
v -0.01848146 0.64659193 0.09699918
v -0.01848146 0.64659193 0.08500108
v -0.07393335 0.67012776 0.08486797
v -0.01856976 0.64616328 0.08500108
f 1 2 10
f 1 10 3
f 1 3 4
f 1 4 5
f 1 5 6
f 1 6 7
f 1 7 2
f 2 7 8
f 2 8 9
f 2 9 10
f 3 10 18
f 3 18 11
f 3 11 12
f 3 12 4
f 4 12 20
f 4 20 28
f 4 28 35
f 4 35 43
f 4 43 51
f 4 51 59
f 4 59 67
f 4 67 75
f 4 75 86
f 4 86 85
f 4 85 84
f 4 84 83
f 4 83 82
f 4 82 81
f 4 81 80
f 4 80 79
f 4 79 78
f 4 78 77
f 4 77 112
f 4 112 111
f 4 111 110
f 4 110 109
f 4 109 108
f 4 108 107
f 4 107 106
f 4 106 105
f 4 105 104
f 4 104 136
f 4 136 135
f 4 135 134
f 4 134 133
f 4 133 132
f 4 132 131
f 4 131 130
f 4 130 129
f 4 129 128
f 4 128 163
f 4 163 162
f 4 162 161
f 4 161 160
f 4 160 159
f 4 159 158
f 4 158 157
f 4 157 156
f 4 156 155
f 4 155 154
f 4 154 180
f 4 180 188
f 4 188 196
f 4 196 204
f 4 204 212
f 4 212 220
f 4 220 228
f 4 228 221
f 4 221 213
f 4 213 205
f 4 205 197
f 4 197 189
f 4 189 181
f 4 181 164
f 4 164 137
f 4 137 113
f 4 113 87
f 4 87 69
f 4 69 61
f 4 61 53
f 4 53 45
f 4 45 37
f 4 37 29
f 4 29 21
f 4 21 13
f 4 13 5
f 5 13 6
f 6 13 14
f 6 14 16
f 6 16 7
f 7 15 8
f 7 16 15
f 8 15 24
f 8 24 32
f 8 32 40
f 8 40 48
f 8 48 56
f 8 56 64
f 8 64 72
f 8 72 90
f 8 90 116
f 8 116 141
f 8 141 167
f 8 167 184
f 8 184 192
f 8 192 200
f 8 200 208
f 8 208 216
f 8 216 224
f 8 224 231
f 8 231 225
f 8 225 217
f 8 217 209
f 8 209 201
f 8 201 193
f 8 193 185
f 8 185 177
f 8 177 176
f 8 176 175
f 8 175 174
f 8 174 173
f 8 173 172
f 8 172 171
f 8 171 170
f 8 170 169
f 8 169 168
f 8 168 151
f 8 151 150
f 8 150 149
f 8 149 148
f 8 148 147
f 8 147 146
f 8 146 145
f 8 145 144
f 8 144 143
f 8 143 125
f 8 125 124
f 8 124 123
f 8 123 122
f 8 122 121
f 8 121 120
f 8 120 119
f 8 119 118
f 8 118 117
f 8 117 102
f 8 102 101
f 8 101 100
f 8 100 99
f 8 99 98
f 8 98 97
f 8 97 96
f 8 96 95
f 8 95 94
f 8 94 93
f 8 93 91
f 8 91 73
f 8 73 65
f 8 65 57
f 8 57 49
f 8 49 41
f 8 41 33
f 8 33 25
f 8 25 17
f 8 17 9
f 9 17 10
f 10 17 18
f 11 18 26
f 11 26 19
f 11 19 12
f 12 19 20
f 13 21 22
f 13 22 14
f 14 22 23
f 14 23 16
f 15 16 23
f 15 23 24
f 17 25 26
f 17 26 18
f 19 26 34
f 19 34 27
f 19 27 28
f 19 28 20
f 21 29 30
f 21 30 22
f 22 30 31
f 22 31 23
f 23 31 24
f 24 31 32
f 25 33 26
f 26 33 34
f 27 35 28
f 27 34 42
f 27 42 36
f 27 36 35
f 29 37 38
f 29 38 30
f 30 38 39
f 30 39 31
f 31 39 32
f 32 39 40
f 33 41 34
f 34 41 42
f 35 36 43
f 36 42 50
f 36 50 44
f 36 44 43
f 37 45 46
f 37 46 38
f 38 46 47
f 38 47 39
f 39 47 40
f 40 47 48
f 41 49 42
f 42 49 50
f 43 44 51
f 44 50 58
f 44 58 52
f 44 52 51
f 45 53 54
f 45 54 46
f 46 54 55
f 46 55 47
f 47 55 48
f 48 55 56
f 49 57 50
f 50 57 58
f 51 52 59
f 52 58 66
f 52 66 60
f 52 60 59
f 53 61 62
f 53 62 54
f 54 62 63
f 54 63 55
f 55 63 56
f 56 63 64
f 57 65 58
f 58 65 66
f 59 60 68
f 59 68 67
f 60 66 74
f 60 74 68
f 61 69 70
f 61 70 62
f 62 70 71
f 62 71 63
f 63 71 64
f 64 71 72
f 65 73 74
f 65 74 66
f 67 68 75
f 68 74 92
f 68 92 76
f 68 76 77
f 68 77 78
f 68 78 79
f 68 79 80
f 68 80 81
f 68 81 82
f 68 82 83
f 68 83 84
f 68 84 85
f 68 85 86
f 68 86 75
f 69 87 88
f 69 88 70
f 70 88 89
f 70 89 71
f 71 89 72
f 72 89 90
f 73 91 74
f 74 91 93
f 74 93 94
f 74 94 95
f 74 95 96
f 74 96 97
f 74 97 98
f 74 98 99
f 74 99 100
f 74 100 101
f 74 101 102
f 74 102 92
f 76 103 104
f 76 104 105
f 76 105 106
f 76 106 107
f 76 107 108
f 76 108 109
f 76 109 110
f 76 110 111
f 76 111 112
f 76 112 77
f 76 92 126
f 76 126 103
f 87 113 114
f 87 114 88
f 88 114 115
f 88 115 89
f 89 115 90
f 90 115 116
f 92 102 117
f 92 117 118
f 92 118 119
f 92 119 120
f 92 120 121
f 92 121 122
f 92 122 123
f 92 123 124
f 92 124 125
f 92 125 126
f 103 127 128
f 103 128 129
f 103 129 130
f 103 130 131
f 103 131 132
f 103 132 133
f 103 133 134
f 103 134 135
f 103 135 136
f 103 136 104
f 103 126 152
f 103 152 127
f 113 137 138
f 113 138 139
f 113 139 114
f 114 139 140
f 114 140 115
f 115 140 116
f 116 140 142
f 116 142 141
f 125 143 126
f 126 143 144
f 126 144 145
f 126 145 146
f 126 146 147
f 126 147 148
f 126 148 149
f 126 149 150
f 126 150 151
f 126 151 152
f 127 152 178
f 127 178 153
f 127 153 154
f 127 154 155
f 127 155 156
f 127 156 157
f 127 157 158
f 127 158 159
f 127 159 160
f 127 160 161
f 127 161 162
f 127 162 163
f 127 163 128
f 137 164 165
f 137 165 138
f 138 165 166
f 138 166 142
f 138 142 140
f 138 140 139
f 141 142 166
f 141 166 167
f 151 168 152
f 152 169 170
f 152 170 171
f 152 171 172
f 152 172 173
f 152 173 174
f 152 174 175
f 152 175 176
f 152 176 177
f 152 177 178
f 152 168 169
f 153 178 186
f 153 186 179
f 153 179 154
f 154 179 180
f 164 181 182
f 164 182 165
f 165 182 183
f 165 183 166
f 166 183 167
f 167 183 184
f 177 185 186
f 177 186 178
f 179 186 194
f 179 194 187
f 179 187 180
f 180 187 188
f 181 189 190
f 181 190 182
f 182 190 191
f 182 191 183
f 183 191 184
f 184 191 192
f 185 193 194
f 185 194 186
f 187 194 202
f 187 202 195
f 187 195 188
f 188 195 196
f 189 197 198
f 189 198 190
f 190 198 199
f 190 199 191
f 191 199 192
f 192 199 200
f 193 201 202
f 193 202 194
f 195 202 210
f 195 210 203
f 195 203 196
f 196 203 204
f 197 205 206
f 197 206 198
f 198 206 207
f 198 207 199
f 199 207 200
f 200 207 208
f 201 209 210
f 201 210 202
f 203 211 204
f 203 210 218
f 203 218 211
f 204 211 212
f 205 213 214
f 205 214 206
f 206 214 215
f 206 215 207
f 207 215 208
f 208 215 216
f 209 217 218
f 209 218 210
f 211 219 212
f 211 218 226
f 211 226 219
f 212 219 220
f 213 221 214
f 214 221 222
f 214 222 223
f 214 223 215
f 215 223 224
f 215 224 216
f 217 225 226
f 217 226 218
f 219 227 220
f 219 226 232
f 219 232 227
f 220 227 228
f 221 228 229
f 221 229 222
f 222 229 230
f 222 230 223
f 223 230 224
f 224 230 231
f 225 231 232
f 225 232 226
f 227 229 228
f 227 232 230
f 227 230 229
f 230 232 231

