# https://github.com/mikedh/trimesh
v -0.09753679 0.61036170 -0.23844933
v -0.09753679 0.61036170 -0.28494500
v -0.09882709 0.61025597 -0.23844933
v -0.09578951 0.61034925 -0.23844933
v -0.09578951 0.61034302 -0.28494500
v -0.09925719 0.61021866 -0.28494500
v -0.09925719 0.61021866 -0.23844933
v -0.09570886 0.61033682 -0.23844933
v -0.09570886 0.61033682 -0.28494500
v -0.09947225 0.61019378 -0.28494500
v -0.14240170 0.60485197 -0.23844933
v -0.09570886 0.60245778 -0.23844933
v -0.09570886 0.60245778 -0.28494500
v -0.27344809 0.58854045 -0.28494500
v -0.27344809 0.58854045 -0.23844933
v -0.35734467 0.54683820 -0.23844933
v -0.35734467 0.54683820 -0.28494500
v -0.28979193 0.58577938 -0.28494500
v -0.28979193 0.58577938 -0.23844933
v -0.37027458 0.54683820 -0.23844933
v -0.37027458 0.54683820 -0.28494500
v -0.30581320 0.58160667 -0.28494500
v -0.30584007 0.58160667 -0.23844933
v -0.36457574 0.55155816 -0.23844933
v -0.36457574 0.55155816 -0.28494500
v -0.32145811 0.57605340 -0.28494500
v -0.30809811 0.58084176 -0.23844933
v -0.36347361 0.55232927 -0.23844933
v -0.35092003 0.56096696 -0.28494500
v -0.33651165 0.56915693 -0.28494500
v -0.32145811 0.57605340 -0.23844933
v -0.31995277 0.57663174 -0.23844933
v -0.35242538 0.55993468 -0.23844933
v -0.35092003 0.56096696 -0.23844933
v -0.34976414 0.56163859 -0.23844933
v -0.33651165 0.56915693 -0.23844933
f 1 2 3
f 1 3 7
f 1 7 11
f 1 11 15
f 1 15 19
f 1 19 23
f 1 23 27
f 1 27 32
f 1 32 31
f 1 31 36
f 1 36 35
f 1 35 34
f 1 34 33
f 1 33 28
f 1 28 24
f 1 24 20
f 1 20 16
f 1 16 12
f 1 12 8
f 1 8 4
f 1 4 2
f 2 4 5
f 2 5 9
f 2 9 13
f 2 13 17
f 2 17 21
f 2 21 25
f 2 25 29
f 2 29 30
f 2 30 26
f 2 26 22
f 2 22 18
f 2 18 14
f 2 14 10
f 2 10 6
f 2 6 3
f 3 6 7
f 4 8 9
f 4 9 5
f 6 10 7
f 7 10 11
f 8 12 13
f 8 13 9
f 10 14 11
f 11 14 15
f 12 16 17
f 12 17 13
f 14 18 19
f 14 19 15
f 16 20 21
f 16 21 17
f 18 22 23
f 18 23 19
f 20 24 25
f 20 25 21
f 22 26 27
f 22 27 23
f 24 28 25
f 25 28 29
f 26 30 36
f 26 36 31
f 26 31 32
f 26 32 27
f 28 33 29
f 29 33 34
f 29 34 35
f 29 35 30
f 30 35 36

