# https://github.com/mikedh/trimesh
v -0.41766303 0.47079817 -0.23844933
v -0.41766303 0.47079817 -0.28494500
v -0.42619188 0.47079817 -0.23844933
v -0.43139659 0.38736323 -0.23844933
v -0.42619188 0.47079817 -0.28494500
v -0.43139659 0.38736323 -0.28494500
v -0.43079439 0.45841687 -0.23844933
v -0.43941454 0.38736323 -0.23844933
v -0.43079439 0.45841687 -0.28494500
v -0.43941454 0.38736323 -0.28494500
v -0.43519687 0.44244205 -0.28494500
v -0.43519904 0.44243389 -0.23844933
v -0.43978414 0.39196947 -0.23844933
v -0.43987110 0.39306386 -0.28494500
v -0.43819273 0.42614055 -0.28494500
v -0.43819273 0.42614055 -0.23844933
v -0.43987110 0.39306386 -0.23844933
v -0.43986242 0.39441959 -0.23844933
v -0.43975371 0.40964304 -0.28494500
v -0.43962762 0.41099061 -0.23844933
v -0.43836449 0.42432746 -0.23844933
v -0.43975371 0.40964304 -0.23844933
f 1 2 5
f 1 5 3
f 1 3 7
f 1 7 12
f 1 12 16
f 1 16 21
f 1 21 20
f 1 20 22
f 1 22 18
f 1 18 17
f 1 17 13
f 1 13 8
f 1 8 4
f 1 4 6
f 1 6 2
f 2 6 10
f 2 10 14
f 2 14 19
f 2 19 15
f 2 15 11
f 2 11 9
f 2 9 5
f 3 5 9
f 3 9 7
f 4 8 10
f 4 10 6
f 7 9 11
f 7 11 12
f 8 13 10
f 10 13 14
f 11 15 12
f 12 15 16
f 13 17 14
f 14 17 18
f 14 18 19
f 15 19 20
f 15 20 21
f 15 21 16
f 18 22 19
f 19 22 20

