# https://github.com/mikedh/trimesh
v -0.06849486 0.59138464 -0.09719496
v -0.06849486 0.59138464 -0.23844479
v -0.08098069 0.60298710 -0.09704269
v -0.06851687 0.59140508 -0.09704269
v -0.08024826 0.59138464 -0.09704269
v -0.08024826 0.59138464 -0.23844479
v -0.08317168 0.60502300 -0.23844479
v -0.08317168 0.60502300 -0.09704269
v -0.10060530 0.60199143 -0.09704269
v -0.10060530 0.60199143 -0.23844479
v -0.08449822 0.60615428 -0.23844479
v -0.08449822 0.60615428 -0.09704269
v -0.10060530 0.61005333 -0.09704269
v -0.10060530 0.61005333 -0.23844479
v -0.08591906 0.60716479 -0.23844479
v -0.08591906 0.60716479 -0.09704269
v -0.09925361 0.61022052 -0.09704269
v -0.09925361 0.61022052 -0.23844479
v -0.08742164 0.60804901 -0.23844479
v -0.08742164 0.60804901 -0.09704269
v -0.09751528 0.61036170 -0.09704269
v -0.09882296 0.61025582 -0.23844479
v -0.08899965 0.60879761 -0.23844479
v -0.08899965 0.60879761 -0.09704269
v -0.09577066 0.61034870 -0.09704269
v -0.09751528 0.61036170 -0.23844479
v -0.09022874 0.60925458 -0.23844479
v -0.09063425 0.60940505 -0.09704269
v -0.09403232 0.61018337 -0.09704269
v -0.09534000 0.61030784 -0.23844479
v -0.09577066 0.61034870 -0.23844479
v -0.09063425 0.60940505 -0.23844479
v -0.09231600 0.60986943 -0.09704269
v -0.09403232 0.61018337 -0.23844479
v -0.09231600 0.60986943 -0.23844479
f 1 2 3
f 1 3 4
f 1 4 5
f 1 5 6
f 1 6 2
f 2 6 10
f 2 10 14
f 2 14 18
f 2 18 22
f 2 22 26
f 2 26 31
f 2 31 30
f 2 30 34
f 2 34 35
f 2 35 32
f 2 32 27
f 2 27 23
f 2 23 19
f 2 19 15
f 2 15 11
f 2 11 7
f 2 7 3
f 3 7 8
f 3 8 12
f 3 12 16
f 3 16 20
f 3 20 24
f 3 24 28
f 3 28 33
f 3 33 29
f 3 29 25
f 3 25 21
f 3 21 17
f 3 17 13
f 3 13 9
f 3 9 5
f 3 5 4
f 5 9 10
f 5 10 6
f 7 11 12
f 7 12 8
f 9 13 14
f 9 14 10
f 11 15 16
f 11 16 12
f 13 17 18
f 13 18 14
f 15 19 20
f 15 20 16
f 17 21 22
f 17 22 18
f 19 23 24
f 19 24 20
f 21 25 31
f 21 31 26
f 21 26 22
f 23 27 24
f 24 27 28
f 25 29 30
f 25 30 31
f 27 32 28
f 28 32 35
f 28 35 33
f 29 33 35
f 29 35 34
f 29 34 30

