# https://github.com/mikedh/trimesh
v -0.31911077 0.57691928 0.23450554
v -0.31911077 0.56832959 0.23450554
v -0.31911077 0.57695370 0.21661865
v -0.31973132 0.57671287 0.23450554
v -0.38801146 0.51837400 0.23450554
v -0.31911077 0.56832959 -0.04236167
v -0.31911077 0.57695370 -0.04236167
v -0.32146480 0.57604771 0.23450554
v -0.38801146 0.51837400 -0.04236167
v -0.38801146 0.53049018 0.23450554
v -0.32146480 0.57604771 -0.04236167
v -0.33653324 0.56914956 0.23450554
v -0.38801146 0.53049018 -0.04236167
v -0.37918218 0.53920030 0.23450554
v -0.33653324 0.56914956 -0.04236167
v -0.33875910 0.56788805 0.23450554
v -0.38413980 0.53430911 -0.04236167
v -0.37736103 0.54099507 0.23450554
v -0.37736103 0.54099507 -0.04236167
v -0.34481616 0.56444760 -0.04236167
v -0.35094741 0.56096126 0.23450554
v -0.36571906 0.55061692 0.23450554
v -0.37192451 0.54549062 -0.04236167
v -0.35094741 0.56096126 -0.04236167
v -0.35215478 0.56012981 0.23450554
v -0.36458590 0.55155156 0.23450554
v -0.36458590 0.55155156 -0.04236167
v -0.35877841 0.55555972 -0.04236167
f 1 2 6
f 1 6 7
f 1 7 3
f 1 3 4
f 1 4 8
f 1 8 12
f 1 12 16
f 1 16 21
f 1 21 25
f 1 25 26
f 1 26 22
f 1 22 18
f 1 18 14
f 1 14 10
f 1 10 5
f 1 5 2
f 2 5 9
f 2 9 6
f 3 7 11
f 3 11 8
f 3 8 4
f 5 10 13
f 5 13 9
f 6 9 13
f 6 13 17
f 6 17 19
f 6 19 23
f 6 23 27
f 6 27 28
f 6 28 24
f 6 24 20
f 6 20 15
f 6 15 11
f 6 11 7
f 8 11 15
f 8 15 12
f 10 14 13
f 12 15 16
f 13 14 17
f 14 18 19
f 14 19 17
f 15 20 16
f 16 20 21
f 18 22 23
f 18 23 19
f 20 24 21
f 21 24 25
f 22 26 27
f 22 27 23
f 24 28 25
f 25 28 26
f 26 28 27

