# https://github.com/mikedh/trimesh
v -0.09366877 0.08205892 0.09097167
v -0.39372656 0.28848421 0.09097167
v -0.09366877 0.07252509 0.09097167
v -0.09366877 0.08205892 -0.28484537
v -0.39372656 0.27592747 0.09097167
v -0.39372656 0.28848421 -0.28484537
v -0.14424626 0.10524872 0.09097167
v -0.09366877 0.07252509 -0.28484537
v -0.39096565 0.27262973 0.09097167
v -0.39372656 0.27592747 -0.28484537
v -0.35319410 0.24047686 0.09097167
v -0.35316473 0.24043457 -0.28484537
v -0.38702990 0.26861327 0.09097167
v -0.39096565 0.27262973 -0.28484537
v -0.36212298 0.24681864 0.09097167
v -0.36673430 0.25007409 -0.28484537
v -0.37933461 0.26081287 0.09097167
v -0.37933461 0.26083400 -0.28484537
v -0.36670492 0.25007409 0.09097167
v -0.37504639 0.25715577 0.09097167
f 1 2 5
f 1 5 9
f 1 9 13
f 1 13 17
f 1 17 20
f 1 20 19
f 1 19 15
f 1 15 11
f 1 11 7
f 1 7 3
f 1 3 8
f 1 8 4
f 1 4 6
f 1 6 2
f 2 6 10
f 2 10 5
f 3 7 8
f 4 8 12
f 4 12 16
f 4 16 18
f 4 18 14
f 4 14 10
f 4 10 6
f 5 10 14
f 5 14 9
f 7 11 12
f 7 12 8
f 9 14 13
f 11 15 12
f 12 15 16
f 13 14 18
f 13 18 17
f 15 19 16
f 16 19 20
f 16 20 17
f 16 17 18

