# https://github.com/mikedh/trimesh
v -0.34921588 0.23788858 0.09097168
v -0.34921588 0.23788858 0.28484826
v -0.34921588 0.24744251 0.09097168
v -0.22875840 0.15992930 0.09097168
v -0.34921588 0.24744251 0.28484826
v -0.14424104 0.10523814 0.09097168
v -0.07335987 0.05940140 0.28484826
v -0.07335987 0.06891851 0.09097168
v -0.07335987 0.06891851 0.28484826
v -0.07335987 0.05940140 0.09097168
f 1 2 5
f 1 5 3
f 1 3 8
f 1 8 10
f 1 10 6
f 1 6 4
f 1 4 2
f 2 4 6
f 2 6 7
f 2 7 9
f 2 9 5
f 3 5 9
f 3 9 8
f 6 10 7
f 7 10 8
f 7 8 9

