# https://github.com/mikedh/trimesh
v -0.08622437 0.68480598 -0.10299998
v -0.08514029 0.68475703 -0.09702637
v -0.08513539 0.68475703 -0.10299998
v -0.08731335 0.68475703 -0.10299998
v -0.08731824 0.68475703 -0.09702637
v -0.08622681 0.68480353 -0.09702637
v -0.08405864 0.68461511 -0.09702637
v -0.08405620 0.68461511 -0.10299998
v -0.08839254 0.68461511 -0.10299998
v -0.08839743 0.68461266 -0.09702637
v -0.08299414 0.68438018 -0.09702637
v -0.08298925 0.68437773 -0.10299998
v -0.08945949 0.68437773 -0.10299998
v -0.08946194 0.68437773 -0.09702637
v -0.08195411 0.68405226 -0.09702637
v -0.08194921 0.68404983 -0.10299998
v -0.09049952 0.68404983 -0.10299998
v -0.09050197 0.68404983 -0.09702637
v -0.08094833 0.68363626 -0.09702637
v -0.08094344 0.68363380 -0.10299998
v -0.09150530 0.68363380 -0.10299998
v -0.09151019 0.68363135 -0.09702637
v -0.07997927 0.68313213 -0.09702637
v -0.07997681 0.68312970 -0.10299998
v -0.09247437 0.68312970 -0.10299998
v -0.09247681 0.68312724 -0.09702637
v -0.07905914 0.68254727 -0.09702637
v -0.07905669 0.68254483 -0.10299998
v -0.09339204 0.68254483 -0.10299998
v -0.09339694 0.68254238 -0.09702637
v -0.07819530 0.68188410 -0.09702637
v -0.07819040 0.68187921 -0.10299998
v -0.09425833 0.68187921 -0.10299998
v -0.09426078 0.68187676 -0.09702637
v -0.07739018 0.68114752 -0.09702637
v -0.07738774 0.68114261 -0.10299998
v -0.09506100 0.68114261 -0.10299998
v -0.09506588 0.68114018 -0.09702637
v -0.07665360 0.68034241 -0.09702637
v -0.07665115 0.68033996 -0.10299998
v -0.09579759 0.68033996 -0.10299998
v -0.09580248 0.68033507 -0.09702637
v -0.07598798 0.67947856 -0.09702637
v -0.07598553 0.67947367 -0.10299998
v -0.09646321 0.67947367 -0.10299998
v -0.09646565 0.67947121 -0.09702637
v -0.07540311 0.67855845 -0.09702637
v -0.07540066 0.67855599 -0.10299998
v -0.09704807 0.67855599 -0.10299998
v -0.09705052 0.67855110 -0.09702637
v -0.07489900 0.67759182 -0.09702637
v -0.07489655 0.67758694 -0.10299998
v -0.09755219 0.67758694 -0.10299998
v -0.09755463 0.67758202 -0.09702637
v -0.07448053 0.67658359 -0.09702637
v -0.07448053 0.67658116 -0.10299998
v -0.09796820 0.67658116 -0.10299998
v -0.09797065 0.67657625 -0.09702637
v -0.07415262 0.67554358 -0.09702637
v -0.07415262 0.67554112 -0.10299998
v -0.09829611 0.67554112 -0.10299998
v -0.09829856 0.67553623 -0.09702637
v -0.07391769 0.67447907 -0.09702637
v -0.07391525 0.67447662 -0.10299998
v -0.09853349 0.67447662 -0.10299998
v -0.09853349 0.67447173 -0.09702637
v -0.07377332 0.67339988 -0.09702637
v -0.07377332 0.67339497 -0.10299998
v -0.09867542 0.67339497 -0.10299998
v -0.09867542 0.67339008 -0.09702637
v -0.07372682 0.67230846 -0.09702637
v -0.07372682 0.67230600 -0.10299998
v -0.09872437 0.67230600 -0.10299998
v -0.09872192 0.67230355 -0.09702637
v -0.07377332 0.67122192 -0.09702637
v -0.07377332 0.67121703 -0.10299998
v -0.09867542 0.67121703 -0.10299998
v -0.09867542 0.67121212 -0.09702637
v -0.07391525 0.67014028 -0.09702637
v -0.07391525 0.67013784 -0.10299998
v -0.09853349 0.67013784 -0.10299998
v -0.09853105 0.67013293 -0.09702637
v -0.07415018 0.66907577 -0.09702637
v -0.07415262 0.66907089 -0.10299998
v -0.09829611 0.66906843 -0.09702637
v -0.09829611 0.66907089 -0.10299998
v -0.07447809 0.66803576 -0.09702637
v -0.07448053 0.66803085 -0.10299998
v -0.09796820 0.66802841 -0.09702637
v -0.09796820 0.66803085 -0.10299998
v -0.07489410 0.66702998 -0.09702637
v -0.07489655 0.66702507 -0.10299998
v -0.09755219 0.66702507 -0.10299998
v -0.09754973 0.66702018 -0.09702637
v -0.07539822 0.66606090 -0.09702637
v -0.07540066 0.66605847 -0.10299998
v -0.09704807 0.66605847 -0.10299998
v -0.09704563 0.66605356 -0.09702637
v -0.07598308 0.66514079 -0.09702637
v -0.07598553 0.66513834 -0.10299998
v -0.09646321 0.66513834 -0.10299998
v -0.09646075 0.66513345 -0.09702637
v -0.07664626 0.66427694 -0.09702637
v -0.07665115 0.66427205 -0.10299998
v -0.09579759 0.66427205 -0.10299998
v -0.09579513 0.66426959 -0.09702637
v -0.07738285 0.66347183 -0.09702637
v -0.07738774 0.66346940 -0.10299998
v -0.09506100 0.66346940 -0.10299998
v -0.09505855 0.66346449 -0.09702637
v -0.07818796 0.66273525 -0.09702637
v -0.07819040 0.66273279 -0.10299998
v -0.09425833 0.66273279 -0.10299998
v -0.09425343 0.66272790 -0.09702637
v -0.07905179 0.66206963 -0.09702637
v -0.07905669 0.66206717 -0.10299998
v -0.09339204 0.66206717 -0.10299998
v -0.09338960 0.66206474 -0.09702637
v -0.07997192 0.66148476 -0.09702637
v -0.07997681 0.66148231 -0.10299998
v -0.09247437 0.66148231 -0.10299998
v -0.09246947 0.66147988 -0.09702637
v -0.08093855 0.66098066 -0.09702637
v -0.08094344 0.66097820 -0.10299998
v -0.09150530 0.66097820 -0.10299998
v -0.09150040 0.66097575 -0.09702637
v -0.08194677 0.66056218 -0.09702637
v -0.08194921 0.66056218 -0.10299998
v -0.09049952 0.66056218 -0.10299998
v -0.09049462 0.66055975 -0.09702637
v -0.08298680 0.66023428 -0.09702637
v -0.08298925 0.66023428 -0.10299998
v -0.08945949 0.66023428 -0.10299998
v -0.08945460 0.66023182 -0.09702637
v -0.08405131 0.65999935 -0.09702637
v -0.08405620 0.65999689 -0.10299998
v -0.08839254 0.65999689 -0.10299998
v -0.08839009 0.65999689 -0.09702637
v -0.08513050 0.65985497 -0.09702637
v -0.08513539 0.65985497 -0.10299998
v -0.08731335 0.65985497 -0.10299998
v -0.08730845 0.65985497 -0.09702637
v -0.08622192 0.65980848 -0.09702637
v -0.08622437 0.65980602 -0.10299998
f 1 2 3
f 1 3 8
f 1 8 12
f 1 12 16
f 1 16 20
f 1 20 24
f 1 24 28
f 1 28 32
f 1 32 36
f 1 36 40
f 1 40 44
f 1 44 48
f 1 48 52
f 1 52 56
f 1 56 60
f 1 60 64
f 1 64 68
f 1 68 72
f 1 72 76
f 1 76 80
f 1 80 84
f 1 84 88
f 1 88 92
f 1 92 96
f 1 96 100
f 1 100 104
f 1 104 108
f 1 108 112
f 1 112 116
f 1 116 120
f 1 120 124
f 1 124 128
f 1 128 132
f 1 132 136
f 1 136 140
f 1 140 144
f 1 144 141
f 1 141 137
f 1 137 133
f 1 133 129
f 1 129 125
f 1 125 121
f 1 121 117
f 1 117 113
f 1 113 109
f 1 109 105
f 1 105 101
f 1 101 97
f 1 97 93
f 1 93 90
f 1 90 86
f 1 86 81
f 1 81 77
f 1 77 73
f 1 73 69
f 1 69 65
f 1 65 61
f 1 61 57
f 1 57 53
f 1 53 49
f 1 49 45
f 1 45 41
f 1 41 37
f 1 37 33
f 1 33 29
f 1 29 25
f 1 25 21
f 1 21 17
f 1 17 13
f 1 13 9
f 1 9 4
f 1 4 5
f 1 5 6
f 1 6 2
f 2 7 3
f 2 6 5
f 2 5 10
f 2 10 14
f 2 14 18
f 2 18 22
f 2 22 26
f 2 26 30
f 2 30 34
f 2 34 38
f 2 38 42
f 2 42 46
f 2 46 50
f 2 50 54
f 2 54 58
f 2 58 62
f 2 62 66
f 2 66 70
f 2 70 74
f 2 74 78
f 2 78 82
f 2 82 85
f 2 85 89
f 2 89 94
f 2 94 98
f 2 98 102
f 2 102 106
f 2 106 110
f 2 110 114
f 2 114 118
f 2 118 122
f 2 122 126
f 2 126 130
f 2 130 134
f 2 134 138
f 2 138 142
f 2 142 143
f 2 143 139
f 2 139 135
f 2 135 131
f 2 131 127
f 2 127 123
f 2 123 119
f 2 119 115
f 2 115 111
f 2 111 107
f 2 107 103
f 2 103 99
f 2 99 95
f 2 95 91
f 2 91 87
f 2 87 83
f 2 83 79
f 2 79 75
f 2 75 71
f 2 71 67
f 2 67 63
f 2 63 59
f 2 59 55
f 2 55 51
f 2 51 47
f 2 47 43
f 2 43 39
f 2 39 35
f 2 35 31
f 2 31 27
f 2 27 23
f 2 23 19
f 2 19 15
f 2 15 11
f 2 11 7
f 3 7 8
f 4 9 5
f 5 9 10
f 7 11 8
f 8 11 12
f 9 13 14
f 9 14 10
f 11 15 16
f 11 16 12
f 13 17 18
f 13 18 14
f 15 19 20
f 15 20 16
f 17 21 18
f 18 21 22
f 19 23 20
f 20 23 24
f 21 25 22
f 22 25 26
f 23 27 28
f 23 28 24
f 25 29 30
f 25 30 26
f 27 31 28
f 28 31 32
f 29 33 30
f 30 33 34
f 31 35 32
f 32 35 36
f 33 37 38
f 33 38 34
f 35 39 40
f 35 40 36
f 37 41 38
f 38 41 42
f 39 43 40
f 40 43 44
f 41 45 42
f 42 45 46
f 43 47 48
f 43 48 44
f 45 49 46
f 46 49 50
f 47 51 48
f 48 51 52
f 49 53 54
f 49 54 50
f 51 55 52
f 52 55 56
f 53 57 58
f 53 58 54
f 55 59 60
f 55 60 56
f 57 61 62
f 57 62 58
f 59 63 64
f 59 64 60
f 61 65 62
f 62 65 66
f 63 67 64
f 64 67 68
f 65 69 70
f 65 70 66
f 67 71 72
f 67 72 68
f 69 73 70
f 70 73 74
f 71 75 76
f 71 76 72
f 73 77 78
f 73 78 74
f 75 79 76
f 76 79 80
f 77 81 78
f 78 81 82
f 79 83 80
f 80 83 84
f 81 85 82
f 81 86 85
f 83 87 88
f 83 88 84
f 85 86 90
f 85 90 89
f 87 91 92
f 87 92 88
f 89 93 94
f 89 90 93
f 91 95 92
f 92 95 96
f 93 97 98
f 93 98 94
f 95 99 100
f 95 100 96
f 97 101 102
f 97 102 98
f 99 103 100
f 100 103 104
f 101 105 102
f 102 105 106
f 103 107 104
f 104 107 108
f 105 109 110
f 105 110 106
f 107 111 112
f 107 112 108
f 109 113 110
f 110 113 114
f 111 115 112
f 112 115 116
f 113 117 114
f 114 117 118
f 115 119 120
f 115 120 116
f 117 121 118
f 118 121 122
f 119 123 124
f 119 124 120
f 121 125 126
f 121 126 122
f 123 127 124
f 124 127 128
f 125 129 130
f 125 130 126
f 127 131 132
f 127 132 128
f 129 133 134
f 129 134 130
f 131 135 136
f 131 136 132
f 133 137 134
f 134 137 138
f 135 139 136
f 136 139 140
f 137 141 138
f 138 141 142
f 139 143 144
f 139 144 140
f 141 144 142
f 142 144 143

