# https://github.com/mikedh/trimesh
v -0.04417305 0.56878089 0.23450554
v -0.04962233 0.56291803 0.23450554
v -0.04649190 0.56628334 -0.04236167
v -0.04417305 0.56878089 -0.04236167
v -0.06038265 0.60016255 0.09699338
v -0.07793895 0.60016255 0.23450554
v -0.08972937 0.60016255 0.23450554
v -0.04962233 0.56291803 -0.04236167
v -0.07219090 0.59482107 -0.04236167
v -0.06038265 0.60016255 0.08501459
v -0.08972937 0.60016255 -0.04236167
v -0.07793895 0.60016255 -0.04236167
f 1 2 3
f 1 3 4
f 1 4 10
f 1 10 5
f 1 5 6
f 1 6 7
f 1 7 2
f 2 7 11
f 2 11 8
f 2 8 3
f 3 8 11
f 3 11 12
f 3 12 9
f 3 9 4
f 4 9 10
f 5 10 12
f 5 12 11
f 5 11 7
f 5 7 6
f 9 12 10

