# https://github.com/mikedh/trimesh
v -0.09040134 0.62136686 0.29999856
v -0.08949929 0.62134395 0.29999856
v -0.09040134 0.62136686 0.28500103
v -0.09126239 0.62127523 0.29999856
v -0.08949929 0.62134395 0.28500103
v -0.08863827 0.62127523 0.29999856
v -0.09126239 0.62127523 0.28500103
v -0.09577261 0.61034925 0.28499516
v -0.09753570 0.61034925 0.28499516
v -0.09925778 0.61021182 0.28499516
v -0.27466471 0.59846127 0.29999856
v -0.08863827 0.62127523 0.28500103
v -0.08777721 0.62111489 0.29999856
v -0.27466471 0.59846127 0.28500103
v -0.09405053 0.61016603 0.28499516
v -0.27343465 0.58854313 0.28499516
v -0.29188559 0.59555225 0.29999856
v -0.08777721 0.62111489 0.28500103
v -0.09232845 0.60986825 0.28499516
v -0.08695718 0.62088584 0.29999856
v -0.29188559 0.59555225 0.28500103
v -0.28979448 0.58577154 0.28499516
v -0.30877844 0.59115436 0.29999856
v -0.08695718 0.62088584 0.28500103
v -0.09064736 0.60938723 0.28499516
v -0.08613712 0.62056515 0.29999856
v -0.30582630 0.58160274 0.28499516
v -0.30877844 0.59115436 0.28500103
v -0.32522028 0.58531345 0.29999856
v -0.08613712 0.62056515 0.28500103
v -0.08900727 0.60879169 0.28499516
v -0.08535808 0.62019867 0.29999856
v -0.32144809 0.57603668 0.28499516
v -0.32522028 0.58531345 0.28500103
v -0.34104708 0.57805235 0.29999856
v -0.08535808 0.62019867 0.28500103
v -0.08744920 0.60803579 0.28499516
v -0.08457906 0.61976346 0.29999856
v -0.33649587 0.56914209 0.28499516
v -0.34104708 0.57805235 0.28500103
v -0.35621785 0.56941694 0.29999856
v -0.08457906 0.61976346 0.28500103
v -0.08593211 0.60716538 0.28499516
v -0.08388202 0.61925955 0.29999856
v -0.35092859 0.56096479 0.28499516
v -0.35621785 0.56941694 0.28500103
v -0.37060959 0.55952173 0.29999856
v -0.08388202 0.61925955 0.28500103
v -0.08453804 0.60613464 0.28499516
v -0.08322598 0.61868690 0.29999856
v -0.36458230 0.55155058 0.28499516
v -0.37060959 0.55952173 0.28500103
v -0.38405828 0.54838962 0.29999856
v -0.08322598 0.61868690 0.28500103
v -0.08318499 0.60501226 0.28499516
v -0.03738565 0.57608249 0.29999856
v -0.37733393 0.54099110 0.28499516
v -0.38405828 0.54838962 0.28500103
v -0.39648191 0.53615802 0.29999856
v -0.03738565 0.57608249 0.28500103
v -0.04419200 0.56877561 0.28499516
v -0.03619658 0.57489139 0.29999856
v -0.38914253 0.52933216 0.28499516
v -0.39648191 0.53615802 0.28500103
v -0.40779848 0.52287278 0.29999856
v -0.03619658 0.57489139 0.28500103
v -0.07211441 0.38736325 0.28500103
v -0.04964528 0.56291176 0.28499516
v -0.03508953 0.57358578 0.28500103
v -0.03414649 0.57218853 0.28500103
v -0.03328544 0.57069967 0.28500103
v -0.03254742 0.56916500 0.28500103
v -0.03197338 0.56758451 0.28500103
v -0.03152235 0.56593529 0.28500103
v -0.03119434 0.56426320 0.28500103
v -0.03103032 0.56256817 0.28500103
v -0.03098933 0.56087316 0.28500103
v -0.03111233 0.55917815 0.28500103
v -0.03139935 0.55750603 0.28500103
v -0.03508953 0.57358578 0.29999856
v -0.39988508 0.51671116 0.28499516
v -0.40779848 0.52287278 0.28500103
v -0.41788501 0.50864839 0.29999856
v -0.07211441 0.38736325 0.29999856
v -0.43137469 0.38736325 0.28499516
v -0.03414649 0.57218853 0.29999856
v -0.03328544 0.57069967 0.29999856
v -0.03254742 0.56916500 0.29999856
v -0.03197338 0.56758451 0.29999856
v -0.03152235 0.56593529 0.29999856
v -0.03119434 0.56426320 0.29999856
v -0.03103032 0.56256817 0.29999856
v -0.03098933 0.56087316 0.29999856
v -0.03111233 0.55917815 0.29999856
v -0.03139935 0.55750603 0.29999856
v -0.40947957 0.50324267 0.28499516
v -0.41788501 0.50864839 0.28500103
v -0.42670046 0.49362232 0.29999856
v -0.44941559 0.38736325 0.29999856
v -0.43941110 0.38736325 0.28499516
v -0.41788501 0.48894957 0.28499516
v -0.42670046 0.49362232 0.28500103
v -0.43420383 0.47786326 0.29999856
v -0.44986663 0.39270024 0.29999856
v -0.44941559 0.38736325 0.28500103
v -0.44986663 0.39270024 0.28500103
v -0.43986211 0.39306674 0.28499516
v -0.42497836 0.47396932 0.28499516
v -0.43420383 0.47786326 0.28500103
v -0.44027213 0.46150867 0.29999856
v -0.44970261 0.41015432 0.29999856
v -0.44970261 0.41015432 0.28500103
v -0.43973911 0.40965039 0.28499516
v -0.43075967 0.45843932 0.28499516
v -0.44027213 0.46150867 0.28500103
v -0.44494637 0.44469596 0.29999856
v -0.44806254 0.42751676 0.29999856
v -0.44806254 0.42751676 0.28500103
v -0.43818103 0.42614242 0.28499516
v -0.43518788 0.44245120 0.28499516
v -0.44494637 0.44469596 0.28500103
f 1 2 5
f 1 5 3
f 1 3 7
f 1 7 4
f 1 4 11
f 1 11 17
f 1 17 23
f 1 23 29
f 1 29 35
f 1 35 41
f 1 41 47
f 1 47 53
f 1 53 59
f 1 59 65
f 1 65 83
f 1 83 98
f 1 98 103
f 1 103 110
f 1 110 116
f 1 116 117
f 1 117 111
f 1 111 104
f 1 104 99
f 1 99 84
f 1 84 95
f 1 95 94
f 1 94 93
f 1 93 92
f 1 92 91
f 1 91 90
f 1 90 89
f 1 89 88
f 1 88 87
f 1 87 86
f 1 86 80
f 1 80 62
f 1 62 56
f 1 56 50
f 1 50 44
f 1 44 38
f 1 38 32
f 1 32 26
f 1 26 20
f 1 20 13
f 1 13 6
f 1 6 2
f 2 6 12
f 2 12 5
f 3 5 8
f 3 8 9
f 3 9 10
f 3 10 7
f 4 7 14
f 4 14 11
f 5 12 8
f 6 13 18
f 6 18 12
f 7 10 14
f 8 15 19
f 8 19 25
f 8 25 31
f 8 31 37
f 8 37 43
f 8 43 49
f 8 49 55
f 8 55 61
f 8 61 68
f 8 68 85
f 8 85 100
f 8 100 107
f 8 107 113
f 8 113 119
f 8 119 120
f 8 120 114
f 8 114 108
f 8 108 101
f 8 101 96
f 8 96 81
f 8 81 63
f 8 63 57
f 8 57 51
f 8 51 45
f 8 45 39
f 8 39 33
f 8 33 27
f 8 27 22
f 8 22 16
f 8 16 10
f 8 10 9
f 8 12 15
f 10 16 14
f 11 14 21
f 11 21 17
f 12 18 19
f 12 19 15
f 13 20 24
f 13 24 18
f 14 16 21
f 16 22 21
f 17 21 28
f 17 28 23
f 18 24 19
f 19 24 25
f 20 26 30
f 20 30 24
f 21 22 27
f 21 27 28
f 23 28 34
f 23 34 29
f 24 30 31
f 24 31 25
f 26 32 36
f 26 36 30
f 27 33 34
f 27 34 28
f 29 34 40
f 29 40 35
f 30 36 31
f 31 36 37
f 32 38 42
f 32 42 36
f 33 39 34
f 34 39 40
f 35 40 46
f 35 46 41
f 36 42 37
f 37 42 43
f 38 44 48
f 38 48 42
f 39 45 40
f 40 45 46
f 41 46 52
f 41 52 47
f 42 48 43
f 43 48 49
f 44 50 54
f 44 54 48
f 45 51 52
f 45 52 46
f 47 52 58
f 47 58 53
f 48 54 55
f 48 55 49
f 50 56 60
f 50 60 54
f 51 57 58
f 51 58 52
f 53 58 64
f 53 64 59
f 54 60 61
f 54 61 55
f 56 62 66
f 56 66 60
f 57 63 64
f 57 64 58
f 59 64 82
f 59 82 65
f 60 66 61
f 61 67 68
f 61 66 69
f 61 69 70
f 61 70 71
f 61 71 72
f 61 72 73
f 61 73 74
f 61 74 75
f 61 75 76
f 61 76 77
f 61 77 78
f 61 78 79
f 61 79 67
f 62 80 69
f 62 69 66
f 63 81 82
f 63 82 64
f 65 82 97
f 65 97 83
f 67 79 95
f 67 95 84
f 67 84 99
f 67 99 105
f 67 105 100
f 67 100 85
f 67 85 68
f 69 80 86
f 69 86 70
f 70 86 87
f 70 87 71
f 71 87 88
f 71 88 72
f 72 88 89
f 72 89 73
f 73 89 90
f 73 90 74
f 74 90 91
f 74 91 75
f 75 91 92
f 75 92 76
f 76 92 93
f 76 93 77
f 77 93 94
f 77 94 78
f 78 94 95
f 78 95 79
f 81 96 82
f 82 96 97
f 83 97 102
f 83 102 98
f 96 101 97
f 97 101 102
f 98 102 109
f 98 109 103
f 99 104 106
f 99 106 105
f 100 105 106
f 100 106 107
f 101 108 109
f 101 109 102
f 103 109 115
f 103 115 110
f 104 111 112
f 104 112 106
f 106 112 113
f 106 113 107
f 108 114 109
f 109 114 115
f 110 115 121
f 110 121 116
f 111 117 118
f 111 118 112
f 112 118 113
f 113 118 119
f 114 120 121
f 114 121 115
f 116 121 118
f 116 118 117
f 118 121 119
f 119 121 120

