# https://github.com/mikedh/trimesh
v -0.36417504 0.54152719 0.23450554
v -0.36417504 0.54152719 0.28499514
v -0.36417504 0.55184535 0.23450554
v -0.28817483 0.57794807 0.23450554
v -0.36417504 0.55184535 0.28499514
v -0.28817483 0.57794807 0.28499514
v -0.35215189 0.56013649 0.23450554
v -0.28817483 0.58606048 0.23450554
v -0.35093917 0.56096909 0.28499514
v -0.28817483 0.58605612 0.28499514
v -0.35093917 0.56096909 0.23450554
v -0.28980420 0.58578149 0.23450554
v -0.28981165 0.58578149 0.28499514
v -0.33652777 0.56915125 0.28499514
v -0.33652777 0.56915125 0.23450554
v -0.29411944 0.58466120 0.23450554
v -0.30584497 0.58160542 0.28499514
v -0.32146165 0.57604746 0.28499514
v -0.32280086 0.57543717 0.23450554
v -0.30584497 0.58160542 0.23450554
v -0.31972812 0.57671442 0.23450554
v -0.31983229 0.57667518 0.23450554
v -0.32146165 0.57604746 0.23450554
f 1 2 5
f 1 5 3
f 1 3 7
f 1 7 11
f 1 11 15
f 1 15 19
f 1 19 23
f 1 23 22
f 1 22 21
f 1 21 20
f 1 20 16
f 1 16 12
f 1 12 8
f 1 8 4
f 1 4 6
f 1 6 2
f 2 6 10
f 2 10 13
f 2 13 17
f 2 17 18
f 2 18 14
f 2 14 9
f 2 9 5
f 3 5 7
f 4 8 10
f 4 10 6
f 5 9 7
f 7 9 11
f 8 12 13
f 8 13 10
f 9 14 15
f 9 15 11
f 12 16 13
f 13 16 17
f 14 18 19
f 14 19 15
f 16 20 17
f 17 20 21
f 17 21 18
f 18 21 22
f 18 22 23
f 18 23 19

