# https://github.com/mikedh/trimesh
v -0.23250245 0.65255120 0.08486796
v -0.23255139 0.65363762 0.08486796
v -0.23255139 0.65146477 0.08486796
v -0.23251224 0.65227959 -0.04235568
v -0.23250245 0.65255120 -0.08483001
v -0.23269331 0.65471916 0.08486796
v -0.23255139 0.65363762 -0.08483001
v -0.23269331 0.65038324 0.08486796
v -0.23255139 0.65146232 -0.04235568
v -0.23255139 0.65146232 -0.08483001
v -0.23286948 0.65551440 -0.04235568
v -0.23293065 0.65578355 0.08486796
v -0.23269331 0.65471916 -0.08483001
v -0.23292821 0.64931884 0.08486796
v -0.23275203 0.65011409 -0.04235568
v -0.23269331 0.65038080 -0.04235568
v -0.23269331 0.65038080 -0.08483001
v -0.23293065 0.65578355 -0.08483001
v -0.23317535 0.65656168 -0.04235568
v -0.23325854 0.65682348 0.08486796
v -0.23325609 0.64827891 0.08486796
v -0.23301140 0.64905704 -0.04235568
v -0.23293065 0.64931639 -0.08483001
v -0.23325854 0.65682348 -0.08483001
v -0.23356930 0.65757714 -0.04235568
v -0.23367451 0.65783161 0.08486796
v -0.23367451 0.64727079 0.08486796
v -0.23336131 0.64802443 -0.04235568
v -0.23325854 0.64827646 -0.08483001
v -0.23367451 0.65782917 -0.08483001
v -0.23417857 0.65879814 0.08486796
v -0.23417857 0.65879814 -0.08483001
v -0.23417857 0.64630426 0.08486796
v -0.23417857 0.64630182 -0.04235568
v -0.23367451 0.64727079 -0.08483001
v -0.23476338 0.65971816 0.08486796
v -0.23476338 0.65971573 -0.08483001
v -0.23476338 0.64538424 0.08486796
v -0.23417857 0.64630182 -0.08483001
v -0.23542894 0.66058193 0.08486796
v -0.23542894 0.66058193 -0.08483001
v -0.23542649 0.64451803 0.08486796
v -0.23492977 0.64516645 -0.04235568
v -0.23476338 0.64538424 -0.08483001
v -0.23597949 0.66118387 -0.04235568
v -0.23616546 0.66138695 0.08486796
v -0.23616546 0.66138452 -0.08483001
v -0.23616301 0.64371545 0.08486796
v -0.23542894 0.64451803 -0.08483001
v -0.23696804 0.66212347 0.08486796
v -0.23696804 0.66212103 -0.08483001
v -0.23696804 0.64297893 0.08486796
v -0.23636610 0.64352949 -0.04235568
v -0.23616546 0.64371545 -0.08483001
v -0.23761647 0.66262018 -0.04235568
v -0.23783425 0.66278659 0.08486796
v -0.23783425 0.66278659 -0.08483001
v -0.23783180 0.64231338 0.08486796
v -0.23696804 0.64297893 -0.08483001
v -0.23875183 0.66337139 -0.04235568
v -0.23875428 0.66337139 0.08486796
v -0.23875183 0.66337139 -0.08483001
v -0.23875183 0.64172856 0.08486796
v -0.23875183 0.64172856 -0.08483001
v -0.23783425 0.64231338 -0.08483001
v -0.23972080 0.66387545 0.08486796
v -0.23972080 0.66387545 -0.08483001
v -0.23971836 0.64122450 0.08486796
v -0.23972080 0.64122450 -0.08483001
v -0.24047445 0.66418866 -0.04235568
v -0.24072893 0.66429386 0.08486796
v -0.24072648 0.66429143 -0.08483001
v -0.24072648 0.64080854 0.08486796
v -0.23997284 0.64111927 -0.04235568
v -0.24072648 0.64080854 -0.08483001
v -0.24150704 0.66453857 -0.04235568
v -0.24176886 0.66462176 0.08486796
v -0.24176642 0.66461931 -0.08483001
v -0.24176642 0.64048064 0.08486796
v -0.24098830 0.64072532 -0.04235568
v -0.24176642 0.64048064 -0.08483001
v -0.24256410 0.66479794 -0.04235568
v -0.24283326 0.66485665 0.08486796
v -0.24283326 0.66485665 -0.08483001
v -0.24283082 0.64024329 0.08486796
v -0.24203557 0.64041948 -0.04235568
v -0.24283326 0.64024329 -0.08483001
v -0.24391235 0.66499857 -0.04235568
v -0.24391479 0.66499857 0.08486796
v -0.24391235 0.66499857 -0.08483001
v -0.24391235 0.64009892 0.08486796
v -0.24391235 0.64009892 -0.08483001
v -0.24500122 0.66504752 0.08486796
v -0.24500122 0.66504752 -0.08483001
v -0.24500122 0.64005245 0.08486796
v -0.24418640 0.64008669 -0.04235568
v -0.24500122 0.64005245 -0.08483001
v -0.24608764 0.66499857 0.08486796
v -0.24608764 0.66499857 -0.08483001
v -0.24608520 0.64009892 0.08486796
v -0.24608764 0.64009892 -0.04235568
v -0.24608764 0.64009892 -0.08483001
v -0.24716918 0.66485665 0.08486796
v -0.24716673 0.66485665 -0.08483001
v -0.24716673 0.64024329 0.08486796
v -0.24716673 0.64024329 -0.08483001
v -0.24823358 0.66461931 0.08486796
v -0.24796442 0.66468049 -0.04235568
v -0.24823358 0.66461931 -0.08483001
v -0.24823113 0.64047820 0.08486796
v -0.24743589 0.64030202 -0.04235568
v -0.24823358 0.64048064 -0.08483001
v -0.24927351 0.66429143 0.08486796
v -0.24901169 0.66437462 -0.04235568
v -0.24927351 0.66429143 -0.08483001
v -0.24927106 0.64080608 0.08486796
v -0.24849295 0.64056140 -0.04235568
v -0.24927351 0.64080854 -0.08483001
v -0.25028163 0.66387545 0.08486796
v -0.25002715 0.66398067 -0.04235568
v -0.25027918 0.66387545 -0.08483001
v -0.25027918 0.64122450 0.08486796
v -0.24952554 0.64091130 -0.04235568
v -0.25027918 0.64122450 -0.08483001
v -0.25124816 0.66337139 0.08486796
v -0.25124816 0.66337139 -0.08483001
v -0.25124571 0.64172856 0.08486796
v -0.25124816 0.64172856 -0.04235568
v -0.25124816 0.64172856 -0.08483001
v -0.25216819 0.66278659 0.08486796
v -0.25216575 0.66278659 -0.08483001
v -0.25216575 0.64231338 0.08486796
v -0.25216575 0.64231338 -0.08483001
v -0.25303195 0.66212103 0.08486796
v -0.25281418 0.66228985 -0.04235568
v -0.25303195 0.66212103 -0.08483001
v -0.25303195 0.64297648 0.08486796
v -0.25238352 0.64247976 -0.04235568
v -0.25303195 0.64297893 -0.08483001
v -0.25383698 0.66138452 0.08486796
v -0.25363389 0.66157048 -0.04235568
v -0.25383453 0.66138452 -0.08483001
v -0.25383453 0.64371299 0.08486796
v -0.25383453 0.64371545 -0.08483001
v -0.25457350 0.66058193 0.08486796
v -0.25457105 0.66058193 -0.08483001
v -0.25457105 0.64451803 0.08486796
v -0.25402050 0.64391609 -0.04235568
v -0.25457105 0.64451803 -0.08483001
v -0.25523661 0.65971573 0.08486796
v -0.25507022 0.65993350 -0.04235568
v -0.25523661 0.65971573 -0.08483001
v -0.25523661 0.64538178 0.08486796
v -0.25523661 0.64538424 -0.08483001
v -0.25582142 0.65879569 0.08486796
v -0.25582142 0.65879814 -0.04235568
v -0.25582142 0.65879814 -0.08483001
v -0.25582142 0.64630182 0.08486796
v -0.25582142 0.64630182 -0.08483001
v -0.25632548 0.65782917 0.08486796
v -0.25632548 0.65782917 -0.08483001
v -0.25632548 0.64726834 0.08486796
v -0.25632548 0.64727079 -0.08483001
v -0.25674390 0.65682103 0.08486796
v -0.25663868 0.65707551 -0.04235568
v -0.25674145 0.65682348 -0.08483001
v -0.25674145 0.64827646 0.08486796
v -0.25643070 0.64752282 -0.04235568
v -0.25674145 0.64827646 -0.08483001
v -0.25707178 0.65578110 0.08486796
v -0.25698859 0.65604293 -0.04235568
v -0.25706934 0.65578355 -0.08483001
v -0.25706934 0.64931639 0.08486796
v -0.25682465 0.64853829 -0.04235568
v -0.25706934 0.64931639 -0.08483001
v -0.25730669 0.65471670 0.08486796
v -0.25724796 0.65498586 -0.04235568
v -0.25730669 0.65471916 -0.08483001
v -0.25730669 0.65038080 0.08486796
v -0.25713051 0.64958556 -0.04235568
v -0.25730669 0.65038080 -0.08483001
v -0.25744861 0.65363517 0.08486796
v -0.25730669 0.65471916 -0.04235568
v -0.25744861 0.65363762 -0.08483001
v -0.25744861 0.65146232 0.08486796
v -0.25744861 0.65146232 -0.08483001
v -0.25749510 0.65255120 0.08486796
v -0.25744861 0.65363762 -0.04235568
v -0.25749999 0.65255120 -0.04235568
v -0.25749510 0.65255120 -0.08483001
f 1 2 6
f 1 6 12
f 1 12 20
f 1 20 26
f 1 26 31
f 1 31 36
f 1 36 40
f 1 40 46
f 1 46 50
f 1 50 56
f 1 56 61
f 1 61 66
f 1 66 71
f 1 71 77
f 1 77 83
f 1 83 89
f 1 89 93
f 1 93 98
f 1 98 103
f 1 103 107
f 1 107 113
f 1 113 119
f 1 119 125
f 1 125 130
f 1 130 134
f 1 134 140
f 1 140 145
f 1 145 150
f 1 150 155
f 1 155 160
f 1 160 164
f 1 164 170
f 1 170 176
f 1 176 182
f 1 182 187
f 1 187 185
f 1 185 179
f 1 179 173
f 1 173 167
f 1 167 162
f 1 162 158
f 1 158 153
f 1 153 147
f 1 147 143
f 1 143 137
f 1 137 132
f 1 132 127
f 1 127 122
f 1 122 116
f 1 116 110
f 1 110 105
f 1 105 100
f 1 100 95
f 1 95 91
f 1 91 85
f 1 85 79
f 1 79 73
f 1 73 68
f 1 68 63
f 1 63 58
f 1 58 52
f 1 52 48
f 1 48 42
f 1 42 38
f 1 38 33
f 1 33 27
f 1 27 21
f 1 21 14
f 1 14 8
f 1 8 3
f 1 3 4
f 1 4 5
f 1 5 7
f 1 7 2
f 2 7 13
f 2 13 6
f 3 8 16
f 3 16 9
f 3 9 4
f 4 9 10
f 4 10 5
f 5 10 17
f 5 17 23
f 5 23 29
f 5 29 35
f 5 35 39
f 5 39 44
f 5 44 49
f 5 49 54
f 5 54 59
f 5 59 65
f 5 65 64
f 5 64 69
f 5 69 75
f 5 75 81
f 5 81 87
f 5 87 92
f 5 92 97
f 5 97 102
f 5 102 106
f 5 106 112
f 5 112 118
f 5 118 124
f 5 124 129
f 5 129 133
f 5 133 139
f 5 139 144
f 5 144 149
f 5 149 154
f 5 154 159
f 5 159 163
f 5 163 169
f 5 169 175
f 5 175 181
f 5 181 186
f 5 186 190
f 5 190 184
f 5 184 178
f 5 178 172
f 5 172 166
f 5 166 161
f 5 161 157
f 5 157 152
f 5 152 146
f 5 146 142
f 5 142 136
f 5 136 131
f 5 131 126
f 5 126 121
f 5 121 115
f 5 115 109
f 5 109 104
f 5 104 99
f 5 99 94
f 5 94 90
f 5 90 84
f 5 84 78
f 5 78 72
f 5 72 67
f 5 67 62
f 5 62 57
f 5 57 51
f 5 51 47
f 5 47 41
f 5 41 37
f 5 37 32
f 5 32 30
f 5 30 24
f 5 24 18
f 5 18 13
f 5 13 7
f 6 11 12
f 6 13 11
f 8 14 15
f 8 15 16
f 9 16 17
f 9 17 10
f 11 13 18
f 11 18 12
f 12 19 20
f 12 18 19
f 14 21 22
f 14 22 23
f 14 23 15
f 15 23 17
f 15 17 16
f 18 24 19
f 19 24 20
f 20 25 26
f 20 24 25
f 21 27 28
f 21 28 29
f 21 29 22
f 22 29 23
f 24 30 25
f 25 30 26
f 26 30 32
f 26 32 31
f 27 33 34
f 27 34 39
f 27 39 35
f 27 35 28
f 28 35 29
f 31 32 36
f 32 37 36
f 33 38 34
f 34 38 44
f 34 44 39
f 36 37 41
f 36 41 40
f 38 42 43
f 38 43 44
f 40 45 46
f 40 41 45
f 41 47 45
f 42 48 54
f 42 54 49
f 42 49 43
f 43 49 44
f 45 47 46
f 46 47 51
f 46 51 50
f 48 52 53
f 48 53 54
f 50 55 56
f 50 51 55
f 51 57 55
f 52 58 59
f 52 59 53
f 53 59 54
f 55 57 56
f 56 60 61
f 56 57 62
f 56 62 60
f 58 63 64
f 58 64 65
f 58 65 59
f 60 66 61
f 60 62 67
f 60 67 66
f 63 68 64
f 64 68 69
f 66 70 71
f 66 67 70
f 67 72 70
f 68 73 74
f 68 74 69
f 69 74 75
f 70 72 71
f 71 76 77
f 71 72 76
f 72 78 76
f 73 79 80
f 73 80 75
f 73 75 74
f 75 80 81
f 76 78 77
f 77 82 83
f 77 78 82
f 78 84 82
f 79 85 86
f 79 86 81
f 79 81 80
f 81 86 87
f 82 84 83
f 83 88 89
f 83 84 90
f 83 90 88
f 85 91 92
f 85 92 87
f 85 87 86
f 88 93 89
f 88 90 94
f 88 94 93
f 91 95 96
f 91 96 92
f 92 96 97
f 93 94 99
f 93 99 98
f 95 100 101
f 95 101 102
f 95 102 97
f 95 97 96
f 98 99 103
f 99 104 103
f 100 105 101
f 101 105 106
f 101 106 102
f 103 104 108
f 103 108 107
f 104 109 108
f 105 110 111
f 105 111 106
f 106 111 112
f 107 108 109
f 107 109 114
f 107 114 113
f 109 115 114
f 110 116 117
f 110 117 112
f 110 112 111
f 112 117 118
f 113 114 115
f 113 115 120
f 113 120 119
f 115 121 120
f 116 122 123
f 116 123 118
f 116 118 117
f 118 123 124
f 119 120 121
f 119 121 126
f 119 126 125
f 122 127 128
f 122 128 129
f 122 129 124
f 122 124 123
f 125 126 130
f 126 131 130
f 127 132 128
f 128 132 133
f 128 133 129
f 130 131 135
f 130 135 134
f 131 136 135
f 132 137 138
f 132 138 133
f 133 138 139
f 134 135 136
f 134 136 141
f 134 141 140
f 136 142 141
f 137 143 144
f 137 144 139
f 137 139 138
f 140 141 142
f 140 142 146
f 140 146 145
f 143 147 148
f 143 148 144
f 144 148 149
f 145 146 151
f 145 151 150
f 146 152 151
f 147 153 149
f 147 149 148
f 149 153 154
f 150 151 152
f 150 152 157
f 150 157 156
f 150 156 155
f 153 158 159
f 153 159 154
f 155 156 160
f 156 157 161
f 156 161 160
f 158 162 159
f 159 162 163
f 160 161 165
f 160 165 164
f 161 166 165
f 162 167 168
f 162 168 163
f 163 168 169
f 164 165 166
f 164 166 171
f 164 171 170
f 166 172 171
f 167 173 174
f 167 174 169
f 167 169 168
f 169 174 175
f 170 171 172
f 170 172 177
f 170 177 176
f 172 178 177
f 173 179 180
f 173 180 175
f 173 175 174
f 175 180 181
f 176 177 183
f 176 183 188
f 176 188 182
f 177 178 183
f 178 184 188
f 178 188 183
f 179 185 186
f 179 186 181
f 179 181 180
f 182 188 189
f 182 189 187
f 184 190 189
f 184 189 188
f 185 187 189
f 185 189 186
f 186 189 190

