# https://github.com/mikedh/trimesh
v -0.08622560 0.65980602 -0.08483001
v -0.08731202 0.65985741 -0.08483001
v -0.08513673 0.65985741 -0.08483001
v -0.08622560 0.65980602 -0.04235568
v -0.08731202 0.65985741 -0.04235568
v -0.08839110 0.65999689 -0.08483001
v -0.08405765 0.65999689 -0.08483001
v -0.08405519 0.65999689 0.08486796
v -0.08513673 0.65985741 0.08486796
v -0.08622560 0.65981091 0.08486796
v -0.08730958 0.65985741 0.08486796
v -0.08839110 0.65999689 0.08486796
v -0.08945795 0.66023671 -0.08483001
v -0.08945551 0.66023182 0.08486796
v -0.08299080 0.66023671 -0.08483001
v -0.08325995 0.66017555 -0.04235568
v -0.08299080 0.66023671 0.08486796
v -0.09049789 0.66056218 -0.08483001
v -0.09049544 0.66056218 0.08486796
v -0.09049789 0.66056218 -0.04235568
v -0.08195086 0.66056218 -0.08483001
v -0.08195086 0.66056218 0.08486796
v -0.09150356 0.66098066 -0.08483001
v -0.09150356 0.66098066 0.08486796
v -0.08094518 0.66098066 -0.08483001
v -0.08119721 0.66087541 -0.04235568
v -0.08094273 0.66098066 0.08486796
v -0.09247254 0.66148231 -0.08483001
v -0.09247008 0.66148231 0.08486796
v -0.09247254 0.66148231 -0.04235568
v -0.07997865 0.66148231 -0.08483001
v -0.08022089 0.66135505 -0.04235568
v -0.07997621 0.66148231 0.08486796
v -0.09339012 0.66206717 -0.08483001
v -0.09339012 0.66206717 0.08486796
v -0.07905862 0.66206717 -0.08483001
v -0.07928863 0.66192034 -0.04235568
v -0.07905618 0.66206717 0.08486796
v -0.09360790 0.66223358 -0.04235568
v -0.09425633 0.66273279 -0.08483001
v -0.09425633 0.66273279 0.08486796
v -0.07819242 0.66273279 -0.08483001
v -0.07819242 0.66273279 0.08486796
v -0.09505891 0.66347183 -0.08483001
v -0.09505891 0.66346940 0.08486796
v -0.07738983 0.66347183 -0.08483001
v -0.07759048 0.66328585 -0.04235568
v -0.07738739 0.66347183 0.08486796
v -0.09524487 0.66367004 -0.04235568
v -0.09579543 0.66427205 -0.08483001
v -0.09579543 0.66427205 0.08486796
v -0.07665332 0.66427205 -0.08483001
v -0.07683683 0.66407138 -0.04235568
v -0.07665087 0.66427205 0.08486796
v -0.09646099 0.66514079 -0.08483001
v -0.09646099 0.66513588 0.08486796
v -0.07598776 0.66514079 -0.08483001
v -0.07598776 0.66514079 0.08486796
v -0.09660780 0.66536836 -0.04235568
v -0.09704579 0.66606090 -0.08483001
v -0.09704579 0.66605601 0.08486796
v -0.07540295 0.66606090 -0.08483001
v -0.07554976 0.66582842 -0.04235568
v -0.07540295 0.66606090 0.08486796
v -0.09717304 0.66630072 -0.04235568
v -0.09754985 0.66702507 -0.08483001
v -0.09754985 0.66702507 0.08486796
v -0.07489888 0.66702507 -0.08483001
v -0.07489888 0.66702507 0.08486796
v -0.09796583 0.66803085 -0.08483001
v -0.09796583 0.66803085 0.08486796
v -0.07448291 0.66803085 -0.08483001
v -0.07458568 0.66777879 -0.04235568
v -0.07448047 0.66803576 0.08486796
v -0.09829371 0.66907089 -0.08483001
v -0.09829371 0.66907089 0.08486796
v -0.07415503 0.66907089 -0.08483001
v -0.07423578 0.66881149 -0.04235568
v -0.07415258 0.66907577 0.08486796
v -0.09835488 0.66934251 -0.04235568
v -0.09853107 0.67014028 -0.08483001
v -0.09853107 0.67013539 0.08486796
v -0.07391768 0.67014028 -0.08483001
v -0.07397641 0.66986865 -0.04235568
v -0.07391768 0.67014028 0.08486796
v -0.09867299 0.67121947 -0.08483001
v -0.09867299 0.67121947 0.08486796
v -0.07377576 0.67121947 -0.08483001
v -0.07377576 0.67121947 0.08486796
v -0.09871948 0.67230846 -0.08483001
v -0.09872437 0.67230600 -0.04235568
v -0.09871948 0.67230600 0.08486796
v -0.07372682 0.67230600 -0.08483001
v -0.07373661 0.67203681 -0.04235568
v -0.07372682 0.67230600 0.08486796
v -0.09867299 0.67339254 -0.08483001
v -0.09867299 0.67339254 0.08486796
v -0.07377576 0.67339254 -0.08483001
v -0.07376107 0.67312091 -0.04235568
v -0.07377576 0.67339254 0.08486796
v -0.09853107 0.67447662 -0.08483001
v -0.09853107 0.67447173 0.08486796
v -0.09853107 0.67447662 -0.04235568
v -0.07391768 0.67447662 -0.08483001
v -0.07391768 0.67447662 0.08486796
v -0.09829371 0.67554112 -0.08483001
v -0.09847234 0.67474336 -0.04235568
v -0.09829616 0.67553623 0.08486796
v -0.07415503 0.67554112 -0.08483001
v -0.07409385 0.67526949 -0.04235568
v -0.07415503 0.67554112 0.08486796
v -0.09796583 0.67658116 -0.08483001
v -0.09821297 0.67580052 -0.04235568
v -0.09796828 0.67657625 0.08486796
v -0.07448291 0.67658116 -0.08483001
v -0.07448291 0.67658116 0.08486796
v -0.09754985 0.67758694 -0.08483001
v -0.09786306 0.67683321 -0.04235568
v -0.09754985 0.67758694 0.08486796
v -0.07489888 0.67758694 -0.08483001
v -0.07489888 0.67758694 0.08486796
v -0.09704579 0.67855599 -0.08483001
v -0.09704579 0.67855110 0.08486796
v -0.09704579 0.67855599 -0.04235568
v -0.07540295 0.67855599 -0.08483001
v -0.07540295 0.67855599 0.08486796
v -0.09646099 0.67947121 -0.08483001
v -0.09646099 0.67947121 0.08486796
v -0.07598776 0.67947121 -0.08483001
v -0.07584094 0.67924365 -0.04235568
v -0.07598776 0.67947612 0.08486796
v -0.09579543 0.68033996 -0.08483001
v -0.09579787 0.68033996 0.08486796
v -0.07665332 0.68033996 -0.08483001
v -0.07665332 0.68033996 0.08486796
v -0.09505891 0.68114018 -0.08483001
v -0.09561191 0.68054063 -0.04235568
v -0.09506136 0.68114018 0.08486796
v -0.07738983 0.68114018 -0.08483001
v -0.07720386 0.68094196 -0.04235568
v -0.07738983 0.68114261 0.08486796
v -0.09425633 0.68187921 -0.08483001
v -0.09485827 0.68132616 -0.04235568
v -0.09425633 0.68187921 0.08486796
v -0.07819242 0.68187921 -0.08483001
v -0.07819242 0.68187921 0.08486796
v -0.09339012 0.68254483 -0.08483001
v -0.09339257 0.68254483 0.08486796
v -0.07905862 0.68254483 -0.08483001
v -0.07884084 0.68237843 -0.04235568
v -0.07905862 0.68254483 0.08486796
v -0.09247254 0.68312970 -0.08483001
v -0.09247254 0.68312970 0.08486796
v -0.07997865 0.68312970 -0.08483001
v -0.07974620 0.68298287 -0.04235568
v -0.07997865 0.68312970 0.08486796
v -0.09150356 0.68363135 -0.08483001
v -0.09150601 0.68363135 0.08486796
v -0.08094518 0.68363135 -0.08483001
v -0.08094518 0.68363135 0.08486796
v -0.09049789 0.68404983 -0.08483001
v -0.09125153 0.68373659 -0.04235568
v -0.09049789 0.68404983 0.08486796
v -0.08195086 0.68404983 -0.08483001
v -0.08195086 0.68404983 -0.04235568
v -0.08195330 0.68404983 0.08486796
v -0.08945795 0.68437529 -0.08483001
v -0.08945795 0.68437529 0.08486796
v -0.08299080 0.68437529 -0.08483001
v -0.08299324 0.68438018 0.08486796
v -0.08839110 0.68461511 -0.08483001
v -0.08918879 0.68443645 -0.04235568
v -0.08839355 0.68461511 0.08486796
v -0.08405765 0.68461511 -0.08483001
v -0.08405765 0.68461511 0.08486796
v -0.08731202 0.68475460 -0.08483001
v -0.08731202 0.68475460 0.08486796
v -0.08513673 0.68475460 -0.08483001
v -0.08513673 0.68475460 -0.04235568
v -0.08513917 0.68475460 0.08486796
v -0.08622560 0.68480598 -0.08483001
v -0.08622560 0.68480109 0.08486796
v -0.08622560 0.68480598 -0.04235568
f 1 2 6
f 1 6 13
f 1 13 18
f 1 18 23
f 1 23 28
f 1 28 34
f 1 34 40
f 1 40 44
f 1 44 50
f 1 50 55
f 1 55 60
f 1 60 66
f 1 66 70
f 1 70 75
f 1 75 81
f 1 81 86
f 1 86 90
f 1 90 96
f 1 96 101
f 1 101 106
f 1 106 112
f 1 112 117
f 1 117 122
f 1 122 127
f 1 127 132
f 1 132 136
f 1 136 142
f 1 142 147
f 1 147 152
f 1 152 157
f 1 157 161
f 1 161 167
f 1 167 171
f 1 171 176
f 1 176 181
f 1 181 178
f 1 178 174
f 1 174 169
f 1 169 164
f 1 164 159
f 1 159 154
f 1 154 149
f 1 149 145
f 1 145 139
f 1 139 134
f 1 134 129
f 1 129 125
f 1 125 120
f 1 120 115
f 1 115 109
f 1 109 104
f 1 104 98
f 1 98 93
f 1 93 88
f 1 88 83
f 1 83 77
f 1 77 72
f 1 72 68
f 1 68 62
f 1 62 57
f 1 57 52
f 1 52 46
f 1 46 42
f 1 42 36
f 1 36 31
f 1 31 25
f 1 25 21
f 1 21 15
f 1 15 7
f 1 7 3
f 1 3 9
f 1 9 4
f 1 4 5
f 1 5 2
f 2 5 12
f 2 12 6
f 3 7 8
f 3 8 9
f 4 9 10
f 4 10 11
f 4 11 5
f 5 11 12
f 6 12 14
f 6 14 13
f 7 15 16
f 7 16 8
f 8 17 22
f 8 22 27
f 8 27 33
f 8 33 38
f 8 38 43
f 8 43 48
f 8 48 54
f 8 54 58
f 8 58 64
f 8 64 69
f 8 69 74
f 8 74 79
f 8 79 85
f 8 85 89
f 8 89 95
f 8 95 100
f 8 100 105
f 8 105 111
f 8 111 116
f 8 116 121
f 8 121 126
f 8 126 131
f 8 131 135
f 8 135 141
f 8 141 146
f 8 146 151
f 8 151 156
f 8 156 160
f 8 160 166
f 8 166 170
f 8 170 175
f 8 175 180
f 8 180 182
f 8 182 177
f 8 177 173
f 8 173 168
f 8 168 163
f 8 163 158
f 8 158 153
f 8 153 148
f 8 148 144
f 8 144 138
f 8 138 133
f 8 133 128
f 8 128 123
f 8 123 119
f 8 119 114
f 8 114 108
f 8 108 102
f 8 102 97
f 8 97 92
f 8 92 87
f 8 87 82
f 8 82 76
f 8 76 71
f 8 71 67
f 8 67 61
f 8 61 56
f 8 56 51
f 8 51 45
f 8 45 41
f 8 41 35
f 8 35 29
f 8 29 24
f 8 24 19
f 8 19 14
f 8 14 12
f 8 12 11
f 8 11 10
f 8 10 9
f 8 16 17
f 13 14 18
f 14 19 20
f 14 20 18
f 15 21 22
f 15 22 17
f 15 17 16
f 18 20 24
f 18 24 23
f 19 24 20
f 21 25 26
f 21 26 27
f 21 27 22
f 23 24 30
f 23 30 28
f 24 29 30
f 25 31 32
f 25 32 27
f 25 27 26
f 27 32 33
f 28 30 35
f 28 35 34
f 29 35 30
f 31 36 37
f 31 37 33
f 31 33 32
f 33 37 38
f 34 39 40
f 34 35 39
f 35 41 39
f 36 42 38
f 36 38 37
f 38 42 43
f 39 41 40
f 40 41 45
f 40 45 44
f 42 46 47
f 42 47 48
f 42 48 43
f 44 49 50
f 44 45 49
f 45 51 49
f 46 52 53
f 46 53 48
f 46 48 47
f 48 53 54
f 49 51 50
f 50 51 56
f 50 56 55
f 52 57 54
f 52 54 53
f 54 57 58
f 55 59 60
f 55 56 59
f 56 61 59
f 57 62 63
f 57 63 58
f 58 63 64
f 59 61 60
f 60 65 66
f 60 61 65
f 61 67 66
f 61 66 65
f 62 68 69
f 62 69 64
f 62 64 63
f 66 67 71
f 66 71 70
f 68 72 73
f 68 73 69
f 69 73 74
f 70 71 76
f 70 76 75
f 72 77 78
f 72 78 74
f 72 74 73
f 74 78 79
f 75 80 81
f 75 76 80
f 76 82 80
f 77 83 84
f 77 84 79
f 77 79 78
f 79 84 85
f 80 82 81
f 81 82 86
f 82 87 86
f 83 88 89
f 83 89 85
f 83 85 84
f 86 87 91
f 86 91 90
f 87 92 91
f 88 93 94
f 88 94 89
f 89 94 95
f 90 91 96
f 91 92 97
f 91 97 96
f 93 98 99
f 93 99 95
f 93 95 94
f 95 99 100
f 96 97 103
f 96 103 101
f 97 102 103
f 98 104 105
f 98 105 100
f 98 100 99
f 101 103 107
f 101 107 106
f 102 108 107
f 102 107 103
f 104 109 110
f 104 110 105
f 105 110 111
f 106 107 108
f 106 108 113
f 106 113 112
f 108 114 113
f 109 115 116
f 109 116 111
f 109 111 110
f 112 113 114
f 112 114 118
f 112 118 117
f 114 119 118
f 115 120 121
f 115 121 116
f 117 118 119
f 117 119 124
f 117 124 122
f 119 123 124
f 120 125 126
f 120 126 121
f 122 124 128
f 122 128 127
f 123 128 124
f 125 129 130
f 125 130 131
f 125 131 126
f 127 128 133
f 127 133 132
f 129 134 131
f 129 131 130
f 131 134 135
f 132 133 137
f 132 137 136
f 133 138 137
f 134 139 140
f 134 140 135
f 135 140 141
f 136 137 138
f 136 138 143
f 136 143 142
f 138 144 142
f 138 142 143
f 139 145 141
f 139 141 140
f 141 145 146
f 142 144 148
f 142 148 147
f 145 149 150
f 145 150 146
f 146 150 151
f 147 148 152
f 148 153 152
f 149 154 155
f 149 155 151
f 149 151 150
f 151 155 156
f 152 153 158
f 152 158 157
f 154 159 160
f 154 160 156
f 154 156 155
f 157 158 162
f 157 162 161
f 158 163 161
f 158 161 162
f 159 164 165
f 159 165 160
f 160 165 166
f 161 163 168
f 161 168 167
f 164 169 170
f 164 170 165
f 165 170 166
f 167 168 172
f 167 172 171
f 168 173 172
f 169 174 170
f 170 174 175
f 171 172 173
f 171 173 176
f 173 177 176
f 174 178 179
f 174 179 175
f 175 179 180
f 176 177 183
f 176 183 181
f 177 182 183
f 178 181 183
f 178 183 179
f 179 183 180
f 180 183 182

