# https://github.com/mikedh/trimesh
v -0.01456294 0.02132994 -0.02170389
v -0.01457844 0.02137155 -0.02170389
v -0.09366877 0.07251980 -0.02170389
v -0.01456294 0.02132994 -0.10557453
v -0.01555418 0.02335090 -0.10557453
v -0.02133128 0.03508440 -0.02170389
v -0.09366877 0.07251980 -0.10557453
v -0.09366877 0.08205399 -0.02170389
v -0.02145518 0.03532216 -0.10557453
v -0.02145518 0.03532216 -0.02170389
v -0.09366877 0.08205399 -0.10557453
v -0.06525572 0.06366914 -0.02170389
v -0.02750331 0.03923925 -0.10557453
f 1 2 6
f 1 6 10
f 1 10 12
f 1 12 8
f 1 8 3
f 1 3 7
f 1 7 4
f 1 4 2
f 2 4 5
f 2 5 6
f 3 8 11
f 3 11 7
f 4 7 11
f 4 11 13
f 4 13 9
f 4 9 5
f 5 9 6
f 6 9 10
f 8 12 11
f 9 13 10
f 10 13 12
f 11 12 13

