# https://github.com/mikedh/trimesh
v -0.01456095 0.02133459 0.25964435
v -0.02145104 0.03532135 0.25964435
v -0.06777065 0.05576352 0.25964435
v -0.01456095 0.02133459 0.16500602
v -0.01490057 0.02203323 0.16500602
v -0.02145104 0.03532135 0.16500602
v -0.07335986 0.06891191 0.25964435
v -0.07335986 0.05938246 0.25964435
v -0.06777065 0.05576352 0.16500602
v -0.07335986 0.06891191 0.16500602
v -0.07335986 0.05938246 0.16500602
f 1 2 7
f 1 7 8
f 1 8 3
f 1 3 9
f 1 9 4
f 1 4 5
f 1 5 2
f 2 5 6
f 2 6 10
f 2 10 7
f 3 8 11
f 3 11 9
f 4 9 11
f 4 11 10
f 4 10 6
f 4 6 5
f 7 10 11
f 7 11 8

