# https://github.com/mikedh/trimesh
v -0.10060844 0.61005355 -0.04236585
v -0.10060844 0.60198770 -0.04236585
v -0.10060844 0.61005355 -0.08499581
v -0.22974899 0.59398246 -0.04236585
v -0.10060844 0.60198770 -0.08499581
v -0.33917985 0.55845639 -0.04236585
v -0.27344193 0.58854295 -0.08499581
v -0.27344193 0.58854295 -0.04236585
v -0.33917985 0.55845639 -0.08499581
v -0.33917985 0.56764852 -0.04236585
v -0.28978884 0.58578026 -0.08499581
v -0.28570212 0.58647219 -0.04236585
v -0.33917985 0.56764852 -0.08499581
v -0.33710146 0.56882533 -0.08499581
v -0.33651763 0.56915360 -0.04236585
v -0.30583216 0.58160844 -0.08499581
v -0.30181550 0.58265898 -0.04236585
v -0.28978884 0.58578026 -0.04236585
v -0.33651763 0.56915360 -0.08499581
v -0.33626076 0.56927482 -0.08499581
v -0.32145513 0.57605277 -0.04236585
v -0.30583216 0.58160844 -0.04236585
v -0.31498643 0.57853767 -0.08499581
v -0.32145513 0.57605277 -0.08499581
v -0.31498643 0.57853767 -0.04236585
v -0.31578042 0.57823463 -0.08499581
f 1 2 5
f 1 5 3
f 1 3 4
f 1 4 8
f 1 8 12
f 1 12 18
f 1 18 17
f 1 17 22
f 1 22 25
f 1 25 21
f 1 21 15
f 1 15 10
f 1 10 6
f 1 6 2
f 2 6 9
f 2 9 5
f 3 5 9
f 3 9 13
f 3 13 14
f 3 14 19
f 3 19 20
f 3 20 24
f 3 24 26
f 3 26 23
f 3 23 16
f 3 16 11
f 3 11 7
f 3 7 4
f 4 7 8
f 6 10 13
f 6 13 9
f 7 11 12
f 7 12 8
f 10 14 13
f 10 15 14
f 11 16 17
f 11 17 18
f 11 18 12
f 14 15 19
f 15 20 19
f 15 21 20
f 16 22 17
f 16 23 25
f 16 25 22
f 20 21 24
f 21 25 26
f 21 26 24
f 23 26 25

