# https://github.com/mikedh/trimesh
v -0.42619059 0.47079817 -0.23844933
v -0.42618386 0.47079817 -0.28494500
v -0.41766110 0.47079817 -0.23844933
v -0.42565161 0.47224947 -0.23844933
v -0.42501157 0.47396128 -0.28494500
v -0.41766110 0.47079817 -0.28494500
v -0.35736840 0.54683200 -0.23844933
v -0.42501157 0.47396128 -0.23844933
v -0.42443214 0.47518188 -0.23844933
v -0.41868518 0.48728358 -0.23844933
v -0.41789691 0.48893584 -0.28494500
v -0.35736840 0.54683200 -0.28494500
v -0.37030414 0.54683200 -0.23844933
v -0.41790364 0.48892840 -0.23844933
v -0.41043863 0.50165528 -0.23844933
v -0.40950888 0.50322567 -0.28494500
v -0.37030414 0.54683200 -0.28494500
v -0.37736490 0.54098952 -0.23844933
v -0.40950888 0.50322567 -0.23844933
v -0.40872734 0.50432718 -0.23844933
v -0.39990814 0.51673404 -0.28494500
v -0.37736490 0.54098952 -0.28494500
v -0.38820533 0.53030194 -0.23844933
v -0.39990814 0.51672658 -0.23844933
v -0.39903227 0.51776111 -0.23844933
v -0.39035455 0.52795750 -0.23844933
v -0.38916876 0.52934928 -0.28494500
v -0.38916876 0.52934928 -0.23844933
f 1 2 6
f 1 6 3
f 1 3 7
f 1 7 13
f 1 13 18
f 1 18 23
f 1 23 28
f 1 28 26
f 1 26 25
f 1 25 24
f 1 24 20
f 1 20 19
f 1 19 15
f 1 15 14
f 1 14 10
f 1 10 9
f 1 9 8
f 1 8 4
f 1 4 5
f 1 5 2
f 2 5 11
f 2 11 16
f 2 16 21
f 2 21 27
f 2 27 22
f 2 22 17
f 2 17 12
f 2 12 6
f 3 6 12
f 3 12 7
f 4 8 5
f 5 8 9
f 5 9 10
f 5 10 11
f 7 12 17
f 7 17 13
f 10 14 11
f 11 14 15
f 11 15 16
f 13 17 22
f 13 22 18
f 15 19 16
f 16 19 20
f 16 20 21
f 18 22 23
f 20 24 21
f 21 24 25
f 21 25 26
f 21 26 27
f 22 27 23
f 23 27 28
f 26 28 27

