# https://github.com/mikedh/trimesh
v -0.28816740 0.57795112 0.23450554
v -0.28816740 0.57795112 0.28499514
v -0.28816740 0.58606329 0.23450554
v -0.09390923 0.60222732 0.23450554
v -0.28816740 0.58606329 0.28499514
v -0.09390923 0.60222732 0.28499514
v -0.27344972 0.58854738 0.23450554
v -0.09390923 0.61016182 0.23450554
v -0.27344972 0.58854738 0.28499514
v -0.09390923 0.61016182 0.28499514
v -0.09927148 0.61021892 0.23450554
v -0.09404234 0.61018405 0.23450554
v -0.09927148 0.61021892 0.28499514
v -0.09404234 0.61018405 0.28499514
v -0.09799748 0.61032362 0.23450554
v -0.09577272 0.61034901 0.23450554
v -0.09752210 0.61036170 0.28499514
v -0.09577272 0.61034901 0.28499514
v -0.09752210 0.61036170 0.23450554
f 1 2 5
f 1 5 3
f 1 3 7
f 1 7 11
f 1 11 15
f 1 15 19
f 1 19 16
f 1 16 12
f 1 12 8
f 1 8 4
f 1 4 6
f 1 6 2
f 2 6 10
f 2 10 14
f 2 14 18
f 2 18 17
f 2 17 13
f 2 13 9
f 2 9 5
f 3 5 9
f 3 9 7
f 4 8 10
f 4 10 6
f 7 9 13
f 7 13 11
f 8 12 14
f 8 14 10
f 11 13 15
f 12 16 18
f 12 18 14
f 13 17 15
f 15 17 19
f 16 19 17
f 16 17 18

