# https://github.com/mikedh/trimesh
v -0.10060844 0.61048560 -0.08500053
v -0.10060844 0.61005269 -0.08499581
v -0.10060844 0.61048560 -0.09699939
v -0.33917985 0.61048560 -0.08500053
v -0.27344193 0.58854532 -0.08499581
v -0.10060844 0.60199062 -0.08499581
v -0.10060844 0.60756225 -0.09702885
v -0.10063178 0.61004761 -0.09702885
v -0.33917985 0.61048560 -0.09699939
v -0.33917985 0.56764909 -0.08499581
v -0.33651763 0.56915149 -0.08499581
v -0.33626076 0.56927881 -0.08499581
v -0.32145513 0.57605240 -0.08499581
v -0.31781211 0.57745296 -0.08499581
v -0.31498643 0.57853774 -0.08499581
v -0.30583216 0.58160877 -0.08499581
v -0.28978884 0.58577987 -0.08499581
v -0.10060844 0.60199062 -0.09702885
v -0.33917985 0.55846148 -0.08499581
v -0.27344193 0.58854532 -0.09702885
v -0.32145513 0.57605240 -0.09702885
v -0.33651763 0.56915149 -0.09702885
v -0.33843256 0.56807180 -0.09702885
v -0.33917985 0.56764909 -0.09702885
v -0.28978884 0.58577987 -0.09702885
v -0.30583216 0.58160877 -0.09702885
v -0.31498643 0.57853774 -0.09702885
v -0.31538343 0.57839005 -0.09702885
v -0.33917985 0.55846148 -0.09702885
f 1 2 6
f 1 6 18
f 1 18 7
f 1 7 3
f 1 3 9
f 1 9 4
f 1 4 2
f 2 5 17
f 2 17 16
f 2 16 15
f 2 15 14
f 2 14 13
f 2 13 12
f 2 12 11
f 2 11 10
f 2 10 19
f 2 19 6
f 2 4 5
f 3 7 8
f 3 8 9
f 4 9 24
f 4 24 29
f 4 29 19
f 4 19 10
f 4 10 11
f 4 11 12
f 4 12 13
f 4 13 14
f 4 14 15
f 4 15 16
f 4 16 17
f 4 17 5
f 6 19 29
f 6 29 18
f 7 18 29
f 7 29 24
f 7 24 23
f 7 23 22
f 7 22 21
f 7 21 28
f 7 28 27
f 7 27 26
f 7 26 25
f 7 25 20
f 7 20 8
f 8 20 9
f 9 21 22
f 9 22 23
f 9 23 24
f 9 20 25
f 9 25 26
f 9 26 27
f 9 27 28
f 9 28 21

