# https://github.com/mikedh/trimesh
v -0.34921589 0.23789202 0.09097168
v -0.35322913 0.24049148 0.09097168
v -0.34921589 0.24744472 0.09097168
v -0.34921589 0.23789202 0.28484826
v -0.35299676 0.24033781 0.28484826
v -0.36673851 0.25008900 0.09097168
v -0.35313493 0.24042745 0.28484826
v -0.35322913 0.24049148 0.28484826
v -0.40418290 0.30330114 0.09097168
v -0.34921589 0.24744472 0.28484826
v -0.37506019 0.25717670 0.09097168
v -0.36673851 0.25008900 0.28484826
v -0.41337130 0.30330114 0.09097168
v -0.40418290 0.30330114 0.28484826
v -0.37935605 0.26083900 0.09097168
v -0.37935605 0.26083900 0.28484826
v -0.41096586 0.29904981 0.09097168
v -0.41337130 0.30330114 0.28484826
v -0.39098755 0.27263261 0.09097168
v -0.39098755 0.27263261 0.28484826
v -0.40155137 0.28540583 0.09097168
v -0.41096586 0.29904981 0.28484826
v -0.39795893 0.28105846 0.09097168
v -0.40155137 0.28540583 0.28484826
f 1 2 6
f 1 6 11
f 1 11 15
f 1 15 19
f 1 19 23
f 1 23 21
f 1 21 17
f 1 17 13
f 1 13 9
f 1 9 3
f 1 3 10
f 1 10 4
f 1 4 5
f 1 5 2
f 2 5 7
f 2 7 8
f 2 8 12
f 2 12 6
f 3 9 14
f 3 14 10
f 4 10 14
f 4 14 18
f 4 18 22
f 4 22 24
f 4 24 20
f 4 20 16
f 4 16 12
f 4 12 8
f 4 8 7
f 4 7 5
f 6 12 11
f 9 13 18
f 9 18 14
f 11 12 16
f 11 16 15
f 13 17 22
f 13 22 18
f 15 16 20
f 15 20 19
f 17 21 24
f 17 24 22
f 19 20 23
f 20 24 23
f 21 23 24

