# https://github.com/mikedh/trimesh
v -0.05153449 0.61048560 -0.08499950
v -0.10060364 0.61048560 -0.08499950
v -0.09751490 0.61036032 -0.04236702
v -0.09707777 0.61035845 -0.04236702
v -0.09576638 0.61034912 -0.04236702
v -0.09403227 0.61018457 -0.04236702
v -0.09231737 0.60986860 -0.04236702
v -0.09189465 0.60975268 -0.04236702
v -0.09063129 0.60940492 -0.04236702
v -0.09022299 0.60925346 -0.04236702
v -0.08899805 0.60879726 -0.04236702
v -0.08742246 0.60804750 -0.04236702
v -0.08704298 0.60782686 -0.04236702
v -0.08591893 0.60716499 -0.04236702
v -0.08555865 0.60691072 -0.04236702
v -0.08449705 0.60615349 -0.04236702
v -0.08416080 0.60587116 -0.04236702
v -0.08316644 0.60502230 -0.04236702
v -0.06852015 0.59140896 -0.04236702
v -0.06849613 0.59138464 -0.04236702
v -0.05158253 0.61031919 -0.08499950
v -0.05153449 0.61048560 -0.09699674
v -0.10060364 0.61005182 -0.04236702
v -0.09925382 0.61022197 -0.04236702
v -0.10060364 0.61048560 -0.09699674
v -0.08024103 0.59138464 -0.04236702
v -0.06849613 0.59138464 -0.08520284
v -0.05267776 0.60845322 -0.08499950
v -0.05239434 0.60878603 -0.08499950
v -0.05214456 0.60914127 -0.08499950
v -0.05192359 0.60951709 -0.08499950
v -0.05173625 0.60991161 -0.08499950
v -0.05158253 0.61031919 -0.09699674
v -0.06852015 0.59140521 -0.09702885
v -0.08316644 0.60502419 -0.09702885
v -0.08449705 0.60615349 -0.09702885
v -0.08591893 0.60716499 -0.09702885
v -0.08742246 0.60804750 -0.09702885
v -0.08899805 0.60879726 -0.09702885
v -0.09063129 0.60940492 -0.09702885
v -0.09231737 0.60986860 -0.09702885
v -0.09403227 0.61018457 -0.09702885
v -0.09576638 0.61034912 -0.09702885
v -0.09751490 0.61036032 -0.09702885
v -0.10060364 0.60199151 -0.04236702
v -0.09925382 0.61022197 -0.09702885
v -0.10060364 0.61005182 -0.09702885
v -0.08024103 0.59138464 -0.09702885
v -0.05267776 0.60845322 -0.09699674
v -0.05239434 0.60878603 -0.09699674
v -0.05214456 0.60914127 -0.09699674
v -0.05192359 0.60951709 -0.09699674
v -0.05173625 0.60991161 -0.09699674
v -0.10060364 0.60199151 -0.09702885
f 1 2 3
f 1 3 4
f 1 4 5
f 1 5 6
f 1 6 7
f 1 7 8
f 1 8 9
f 1 9 10
f 1 10 11
f 1 11 12
f 1 12 13
f 1 13 14
f 1 14 15
f 1 15 16
f 1 16 17
f 1 17 18
f 1 18 19
f 1 19 20
f 1 20 21
f 1 21 33
f 1 33 22
f 1 22 25
f 1 25 2
f 2 23 24
f 2 24 3
f 2 25 47
f 2 47 54
f 2 54 45
f 2 45 23
f 3 24 23
f 3 23 45
f 3 45 26
f 3 26 20
f 3 20 19
f 3 19 18
f 3 18 17
f 3 17 16
f 3 16 15
f 3 15 14
f 3 14 13
f 3 13 12
f 3 12 11
f 3 11 10
f 3 10 9
f 3 9 8
f 3 8 7
f 3 7 6
f 3 6 5
f 3 5 4
f 20 26 48
f 20 48 27
f 20 27 49
f 20 49 28
f 20 28 29
f 20 29 30
f 20 30 31
f 20 31 32
f 20 32 21
f 21 32 53
f 21 53 33
f 22 33 34
f 22 34 35
f 22 35 36
f 22 36 37
f 22 37 38
f 22 38 39
f 22 39 40
f 22 40 41
f 22 41 42
f 22 42 43
f 22 43 44
f 22 44 25
f 25 44 46
f 25 46 47
f 26 45 54
f 26 54 48
f 27 48 34
f 27 34 49
f 28 49 50
f 28 50 29
f 29 50 51
f 29 51 30
f 30 51 52
f 30 52 31
f 31 52 53
f 31 53 32
f 33 53 34
f 34 48 54
f 34 54 47
f 34 47 46
f 34 46 44
f 34 44 43
f 34 43 42
f 34 42 41
f 34 41 40
f 34 40 39
f 34 39 38
f 34 38 37
f 34 37 36
f 34 36 35
f 34 53 52
f 34 52 51
f 34 51 50
f 34 50 49

