# https://github.com/mikedh/trimesh
v -0.42544186 0.47279462 0.23450554
v -0.42544186 0.47279462 0.28499514
v -0.42501003 0.47396299 0.23450554
v -0.41671517 0.47279462 0.23450554
v -0.41671517 0.47279462 0.28499514
v -0.42501003 0.47396299 0.28499514
v -0.41790272 0.48893523 0.23450554
v -0.36417505 0.54151989 0.23450554
v -0.36417505 0.54151989 0.28499514
v -0.41790272 0.48893523 0.28499514
v -0.41080739 0.50102135 0.23450554
v -0.36417505 0.55184185 0.23450554
v -0.36417505 0.55184185 0.28499514
v -0.40951188 0.50322656 0.28499514
v -0.40951188 0.50322656 0.23450554
v -0.36459489 0.55154782 0.23450554
v -0.36459489 0.55154782 0.28499514
v -0.40139097 0.51464725 0.23450554
v -0.39990952 0.51672865 0.28499514
v -0.36572247 0.55061931 0.23450554
v -0.37736405 0.54098602 0.28499514
v -0.39990952 0.51672865 0.23450554
v -0.38916759 0.52934867 0.28499514
v -0.39082897 0.52740654 0.23450554
v -0.37736405 0.54098602 0.23450554
v -0.37841366 0.53995692 0.23450554
v -0.38916759 0.52934867 0.23450554
v -0.39012123 0.52823446 0.23450554
f 1 2 6
f 1 6 3
f 1 3 7
f 1 7 11
f 1 11 15
f 1 15 18
f 1 18 22
f 1 22 24
f 1 24 28
f 1 28 27
f 1 27 26
f 1 26 25
f 1 25 20
f 1 20 16
f 1 16 12
f 1 12 8
f 1 8 4
f 1 4 5
f 1 5 2
f 2 5 9
f 2 9 13
f 2 13 17
f 2 17 21
f 2 21 23
f 2 23 19
f 2 19 14
f 2 14 10
f 2 10 6
f 3 6 10
f 3 10 7
f 4 8 9
f 4 9 5
f 7 10 11
f 8 12 13
f 8 13 9
f 10 14 11
f 11 14 15
f 12 16 17
f 12 17 13
f 14 18 15
f 14 19 18
f 16 20 17
f 17 20 21
f 18 19 22
f 19 23 24
f 19 24 22
f 20 25 21
f 21 25 26
f 21 26 23
f 23 26 27
f 23 27 28
f 23 28 24

