# https://github.com/mikedh/trimesh
v -0.05480621 0.15729130 0.30000001
v -0.05480621 0.15729130 0.28500055
v -0.24306758 0.15729130 0.30000001
v 0.03611251 -0.02219514 0.30000001
v -0.01347454 0.04135679 0.28486723
v -0.01404860 0.04202835 0.28486723
v -0.01464999 0.04264691 0.28486723
v -0.01530605 0.04321244 0.28486723
v -0.01601677 0.04372496 0.28486723
v -0.05800450 0.07087061 0.28486723
v -0.20990930 0.15729130 0.28486723
v 0.03605784 -0.02208911 0.28486723
v 0.03592116 -0.02191238 0.28486723
v -0.24306758 0.15729130 0.28500055
v -0.07323052 0.04738325 0.28500055
v 0.03592116 -0.02323783 0.30000001
v 0.03616718 -0.02235418 0.30000001
v 0.03608517 -0.02215978 0.28486723
v -0.22464328 0.15729130 0.28486723
v -0.07323052 0.04738325 0.28486723
v 0.03592116 -0.02323783 0.28486723
v 0.03597583 -0.02318483 0.30000001
v 0.03619452 -0.02253091 0.30000001
v 0.03616718 -0.02240721 0.28486723
v 0.03600317 -0.02314947 0.28486723
v 0.03603050 -0.02311413 0.30000001
v 0.03619452 -0.02258394 0.28486723
v 0.03619452 -0.02261930 0.30000001
v 0.03605784 -0.02307877 0.28486723
v 0.03611251 -0.02295507 0.30000001
v 0.03616718 -0.02276067 0.28486723
v 0.03616718 -0.02279601 0.30000001
v 0.03608517 -0.02300810 0.28486723
v 0.03613985 -0.02284903 0.28486723
f 1 2 11
f 1 11 19
f 1 19 14
f 1 14 3
f 1 3 16
f 1 16 22
f 1 22 26
f 1 26 30
f 1 30 32
f 1 32 28
f 1 28 23
f 1 23 17
f 1 17 4
f 1 4 2
f 2 5 6
f 2 6 7
f 2 7 8
f 2 8 9
f 2 9 10
f 2 10 11
f 2 4 12
f 2 12 13
f 2 13 5
f 3 14 20
f 3 20 15
f 3 15 16
f 4 17 18
f 4 18 12
f 5 13 12
f 5 12 18
f 5 18 24
f 5 24 27
f 5 27 31
f 5 31 34
f 5 34 33
f 5 33 29
f 5 29 25
f 5 25 21
f 5 21 20
f 5 20 19
f 5 19 11
f 5 11 10
f 5 10 9
f 5 9 8
f 5 8 7
f 5 7 6
f 14 19 20
f 15 20 21
f 15 21 16
f 16 21 22
f 17 23 27
f 17 27 24
f 17 24 18
f 21 25 22
f 22 25 29
f 22 29 26
f 23 28 27
f 26 29 30
f 27 28 32
f 27 32 31
f 29 33 30
f 30 33 34
f 30 34 32
f 31 32 34

