# https://github.com/mikedh/trimesh
v -0.41672146 0.47278626 0.28499514
v -0.41672146 0.47278626 0.23450554
v -0.42544956 0.47278626 0.28499514
v -0.43139672 0.38736323 0.28499514
v -0.42544956 0.47278626 0.23450554
v -0.43139672 0.38736323 0.23450554
v -0.42552889 0.47257720 0.23450554
v -0.43079386 0.45841947 0.28499514
v -0.43941544 0.38736323 0.28499514
v -0.43941544 0.38736323 0.23450554
v -0.43079386 0.45841947 0.23450554
v -0.43147380 0.45595253 0.23450554
v -0.43519757 0.44243871 0.28499514
v -0.43987327 0.39306646 0.28499514
v -0.43987327 0.39306646 0.23450554
v -0.43519757 0.44243871 0.23450554
v -0.43819155 0.42614019 0.28499514
v -0.43975540 0.40964095 0.28499514
v -0.43975540 0.40964095 0.23450554
v -0.43819155 0.42614019 0.23450554
v -0.43843407 0.42359798 0.23450554
f 1 2 5
f 1 5 3
f 1 3 8
f 1 8 13
f 1 13 17
f 1 17 18
f 1 18 14
f 1 14 9
f 1 9 4
f 1 4 6
f 1 6 2
f 2 6 10
f 2 10 15
f 2 15 19
f 2 19 21
f 2 21 20
f 2 20 16
f 2 16 12
f 2 12 11
f 2 11 7
f 2 7 5
f 3 5 7
f 3 7 8
f 4 9 10
f 4 10 6
f 7 11 8
f 8 11 12
f 8 12 13
f 9 14 15
f 9 15 10
f 12 16 13
f 13 16 20
f 13 20 17
f 14 18 19
f 14 19 15
f 17 20 21
f 17 21 18
f 18 21 19

