# https://github.com/mikedh/trimesh
v -0.04417305 0.56878190 0.28499514
v -0.04962086 0.56292264 0.28499514
v -0.04453332 0.56839343 0.23450554
v -0.04417305 0.56878190 0.23450554
v -0.07923083 0.60136621 0.23450554
v -0.08316455 0.60501956 0.28499514
v -0.09390923 0.60222636 0.28499514
v -0.04962086 0.56292264 0.23450554
v -0.04913887 0.56344057 0.23450554
v -0.08316455 0.60501956 0.23450554
v -0.08449363 0.60615257 0.28499514
v -0.09390923 0.61015739 0.28499514
v -0.09390923 0.60222636 0.23450554
v -0.08449363 0.60615257 0.23450554
v -0.08591522 0.60716534 0.28499514
v -0.09231725 0.60986606 0.28499514
v -0.09277488 0.60995392 0.23450554
v -0.09390923 0.61015739 0.23450554
v -0.08591522 0.60716534 0.23450554
v -0.08741958 0.60804862 0.28499514
v -0.09063276 0.60940360 0.28499514
v -0.09108553 0.60952847 0.23450554
v -0.09231725 0.60986606 0.23450554
v -0.08741958 0.60804862 0.23450554
v -0.08899695 0.60879316 0.28499514
v -0.08943512 0.60895965 0.23450554
v -0.09063276 0.60940360 0.23450554
v -0.08899695 0.60879316 0.23450554
f 1 2 3
f 1 3 4
f 1 4 5
f 1 5 6
f 1 6 11
f 1 11 15
f 1 15 20
f 1 20 25
f 1 25 21
f 1 21 16
f 1 16 12
f 1 12 7
f 1 7 2
f 2 7 13
f 2 13 8
f 2 8 9
f 2 9 3
f 3 9 8
f 3 8 13
f 3 13 18
f 3 18 17
f 3 17 23
f 3 23 22
f 3 22 27
f 3 27 26
f 3 26 28
f 3 28 24
f 3 24 19
f 3 19 14
f 3 14 10
f 3 10 5
f 3 5 4
f 5 10 6
f 6 10 14
f 6 14 11
f 7 12 18
f 7 18 13
f 11 14 19
f 11 19 15
f 12 16 17
f 12 17 18
f 15 19 24
f 15 24 20
f 16 21 22
f 16 22 23
f 16 23 17
f 20 24 28
f 20 28 25
f 21 25 26
f 21 26 27
f 21 27 22
f 25 28 26

