# https://github.com/mikedh/trimesh
v -0.33917985 0.55845639 -0.23844479
v -0.33917985 0.55845639 -0.09704269
v -0.33917985 0.56764852 -0.23844479
v -0.10060844 0.60198770 -0.23844479
v -0.33917985 0.56764852 -0.09704269
v -0.10060844 0.60198770 -0.09704269
v -0.33651763 0.56915360 -0.23844479
v -0.10060844 0.61005355 -0.23844479
v -0.33651763 0.56915360 -0.09704269
v -0.10060844 0.60756358 -0.09704269
v -0.32145513 0.57605277 -0.23844479
v -0.14240981 0.60485140 -0.23844479
v -0.10060844 0.61005355 -0.10144463
v -0.32145513 0.57605277 -0.09704269
v -0.10063178 0.61004851 -0.09704269
v -0.31538343 0.57839119 -0.09704269
v -0.32063779 0.57636589 -0.23844479
v -0.27344193 0.58854295 -0.23844479
v -0.27344193 0.58854295 -0.09704269
v -0.31498643 0.57853767 -0.09704269
v -0.31984380 0.57666894 -0.23844479
v -0.28574882 0.58646715 -0.23844479
v -0.28978884 0.58578026 -0.09704269
v -0.30583216 0.58160844 -0.09704269
v -0.30809738 0.58085086 -0.23844479
v -0.28978884 0.58578026 -0.23844479
v -0.30186219 0.58264381 -0.23844479
v -0.30583216 0.58160844 -0.23844479
f 1 2 5
f 1 5 3
f 1 3 7
f 1 7 11
f 1 11 17
f 1 17 21
f 1 21 25
f 1 25 28
f 1 28 27
f 1 27 26
f 1 26 22
f 1 22 18
f 1 18 12
f 1 12 8
f 1 8 4
f 1 4 6
f 1 6 2
f 2 6 10
f 2 10 15
f 2 15 19
f 2 19 23
f 2 23 24
f 2 24 20
f 2 20 16
f 2 16 14
f 2 14 9
f 2 9 5
f 3 5 9
f 3 9 7
f 4 8 13
f 4 13 10
f 4 10 6
f 7 9 14
f 7 14 11
f 8 12 13
f 10 13 15
f 11 14 16
f 11 16 17
f 12 18 19
f 12 19 13
f 13 19 15
f 16 20 21
f 16 21 17
f 18 22 19
f 19 22 23
f 20 24 25
f 20 25 21
f 22 26 23
f 23 26 27
f 23 27 24
f 24 27 28
f 24 28 25

