# https://github.com/mikedh/trimesh
v -0.05493061 0.15781053 -0.28500114
v -0.05493061 0.15781053 -0.29999854
v -0.21072606 0.15781053 -0.28484539
v -0.05800101 0.07087543 -0.28484539
v -0.01602972 0.04372264 -0.28484539
v -0.01531695 0.04320865 -0.28484539
v -0.01465900 0.04264147 -0.28484539
v -0.01402847 0.04202114 -0.28484539
v -0.01348018 0.04134765 -0.28484539
v 0.03594777 -0.02192623 -0.28484539
v 0.03603002 -0.02205028 -0.28484539
v 0.03611227 -0.02219207 -0.28484539
v -0.24386995 0.15781053 -0.29999854
v 0.03611227 -0.02219207 -0.29999854
v -0.22544754 0.15781053 -0.28484539
v 0.03616712 -0.02236931 -0.28484539
v -0.24386995 0.15781053 -0.28500114
v 0.03592037 -0.02325550 -0.29999854
v 0.03616712 -0.02236931 -0.29999854
v -0.07321594 0.04737371 -0.28484539
v 0.03619452 -0.02252883 -0.28484539
v 0.03592037 -0.02325550 -0.28484539
v 0.03603002 -0.02311371 -0.29999854
v 0.03619452 -0.02252883 -0.29999854
v 0.03619452 -0.02261746 -0.28484539
v 0.03603002 -0.02311371 -0.28484539
v 0.03611227 -0.02295419 -0.29999854
v 0.03619452 -0.02261746 -0.29999854
v 0.03616712 -0.02279467 -0.28484539
v 0.03611227 -0.02295419 -0.28484539
v 0.03616712 -0.02279467 -0.29999854
f 1 2 13
f 1 13 17
f 1 17 15
f 1 15 3
f 1 3 4
f 1 4 5
f 1 5 6
f 1 6 7
f 1 7 8
f 1 8 9
f 1 9 10
f 1 10 11
f 1 11 12
f 1 12 14
f 1 14 2
f 2 14 19
f 2 19 24
f 2 24 28
f 2 28 31
f 2 31 27
f 2 27 23
f 2 23 18
f 2 18 13
f 3 15 20
f 3 20 22
f 3 22 26
f 3 26 30
f 3 30 29
f 3 29 25
f 3 25 21
f 3 21 16
f 3 16 12
f 3 12 11
f 3 11 10
f 3 10 9
f 3 9 8
f 3 8 7
f 3 7 6
f 3 6 5
f 3 5 4
f 12 16 19
f 12 19 14
f 13 18 22
f 13 22 17
f 15 17 20
f 16 21 24
f 16 24 19
f 17 22 20
f 18 23 26
f 18 26 22
f 21 25 28
f 21 28 24
f 23 27 30
f 23 30 26
f 25 29 31
f 25 31 28
f 27 31 29
f 27 29 30

