# https://github.com/mikedh/trimesh
v -0.07209750 0.38736324 0.30000001
v -0.05479113 0.15729133 0.30000001
v -0.07209750 0.38736324 0.28500055
v -0.44943817 0.38736324 0.30000001
v -0.05479113 0.15729133 0.28500055
v -0.24307516 0.15729133 0.30000001
v -0.20996901 0.15729133 0.28486723
v -0.43135920 0.38736324 0.28486723
v -0.44943817 0.38736324 0.28500055
v -0.44843378 0.37529211 0.30000001
v -0.35861836 0.23210524 0.30000001
v -0.24307516 0.15729133 0.28500055
v -0.22468715 0.15729133 0.28486723
v -0.43939429 0.38734071 0.28486723
v -0.43854442 0.37653075 0.28486723
v -0.44843378 0.37529211 0.28500055
v -0.44553651 0.35808627 0.30000001
v -0.37287294 0.24221705 0.30000001
v -0.35861836 0.23210524 0.28500055
v -0.35170354 0.23951456 0.28486723
v -0.43576305 0.36018070 0.28486723
v -0.44553651 0.35808627 0.28500055
v -0.44113266 0.34119571 0.30000001
v -0.37287294 0.24221705 0.28500055
v -0.38616176 0.25352246 0.30000001
v -0.35305559 0.24039287 0.28486723
v -0.43159097 0.34414593 0.28486723
v -0.44113266 0.34119571 0.28500055
v -0.43529948 0.32477809 0.30000001
v -0.36673072 0.25009930 0.28486723
v -0.38616176 0.25352246 0.28500055
v -0.39840755 0.26595391 0.30000001
v -0.42602822 0.32853905 0.28486723
v -0.43529948 0.32477809 0.28500055
v -0.42803698 0.30890097 0.30000001
v -0.37932419 0.26084170 0.28486723
v -0.39840755 0.26595391 0.28500055
v -0.39099055 0.27262005 0.28486723
v -0.40949446 0.27937627 0.30000001
v -0.42803698 0.30890097 0.28500055
v -0.41911339 0.31345016 0.28486723
v -0.41942244 0.29372199 0.30000001
v -0.40949446 0.27937627 0.28500055
v -0.40153661 0.28538931 0.28486723
v -0.41096240 0.29903688 0.28486723
v -0.41942244 0.29372199 0.28500055
f 1 2 5
f 1 5 3
f 1 3 8
f 1 8 9
f 1 9 4
f 1 4 10
f 1 10 17
f 1 17 23
f 1 23 29
f 1 29 35
f 1 35 42
f 1 42 39
f 1 39 32
f 1 32 25
f 1 25 18
f 1 18 11
f 1 11 6
f 1 6 2
f 2 6 12
f 2 12 13
f 2 13 7
f 2 7 5
f 3 5 7
f 3 7 8
f 4 9 16
f 4 16 10
f 6 11 19
f 6 19 12
f 7 13 20
f 7 20 26
f 7 26 30
f 7 30 36
f 7 36 38
f 7 38 44
f 7 44 45
f 7 45 41
f 7 41 33
f 7 33 27
f 7 27 21
f 7 21 15
f 7 15 14
f 7 14 8
f 8 14 9
f 9 14 15
f 9 15 16
f 10 16 22
f 10 22 17
f 11 18 24
f 11 24 19
f 12 19 20
f 12 20 13
f 15 21 22
f 15 22 16
f 17 22 28
f 17 28 23
f 18 25 31
f 18 31 24
f 19 24 26
f 19 26 20
f 21 27 22
f 22 27 28
f 23 28 34
f 23 34 29
f 24 30 26
f 24 31 30
f 25 32 37
f 25 37 31
f 27 33 34
f 27 34 28
f 29 34 40
f 29 40 35
f 30 31 36
f 31 37 38
f 31 38 36
f 32 39 43
f 32 43 37
f 33 40 34
f 33 41 40
f 35 40 46
f 35 46 42
f 37 43 38
f 38 43 44
f 39 42 46
f 39 46 43
f 40 41 45
f 40 45 46
f 43 46 44
f 44 46 45

