# https://github.com/mikedh/trimesh
v -0.09366877 0.08205397 0.02008295
v -0.09059253 0.08006447 0.02008295
v -0.05798688 0.07086949 0.01999705
v -0.09366877 0.08205397 -0.02170389
v -0.09366877 0.07251882 0.02008295
v -0.06341479 0.06247855 0.02008295
v -0.05798688 0.07086949 -0.01999822
v -0.01602536 0.04370714 0.01999705
v -0.09366877 0.07251882 -0.02170389
v -0.06341479 0.06247855 -0.02170389
v -0.07320284 0.04736659 0.01999705
v -0.06780035 0.05577814 0.02008295
v -0.02145330 0.03531619 0.02008295
v -0.01602536 0.04370714 -0.01999822
v -0.01531351 0.04320203 0.01999705
v -0.07320284 0.04736659 -0.01999822
v -0.01561859 0.02201849 -0.02170389
v 0.03592758 -0.02324520 -0.01999822
v -0.02145330 0.03531619 -0.02170389
v 0.03592758 -0.02324520 0.01999705
v -0.01456351 0.02133814 0.02008295
v -0.01463980 0.04263507 0.01999705
v 0.03608011 -0.02212159 0.01999705
v 0.03599113 -0.02197729 0.01999705
v -0.01348303 0.04134653 0.01999705
v -0.01402961 0.04201658 0.01999705
v -0.01531351 0.04320203 -0.01999822
v -0.01456351 0.02133814 -0.02170389
v 0.03599113 -0.02318336 -0.01999822
v -0.01463980 0.04263507 -0.01999822
v -0.01402961 0.04201658 -0.01999822
v -0.01348303 0.04134653 -0.01999822
v 0.03599113 -0.02197729 -0.01999822
v 0.03608011 -0.02212159 -0.01999822
v -0.01457622 0.02137938 -0.02170389
v 0.03599113 -0.02318336 0.01999705
v 0.03608011 -0.02303905 0.01999705
v 0.03611825 -0.02295658 0.01999705
v 0.03616909 -0.02279164 0.01999705
v 0.03618180 -0.02270918 0.01999705
v 0.03618180 -0.02245147 0.01999705
v 0.03616909 -0.02236900 0.01999705
v 0.03611825 -0.02220406 0.01999705
v 0.03616909 -0.02236900 -0.01999822
v 0.03618180 -0.02245147 -0.01999822
v 0.03618180 -0.02270918 -0.01999822
v 0.03616909 -0.02279164 -0.01999822
v 0.03611825 -0.02295658 -0.01999822
v 0.03608011 -0.02303905 -0.01999822
v 0.03611825 -0.02220406 -0.01999822
f 1 2 3
f 1 3 7
f 1 7 4
f 1 4 9
f 1 9 5
f 1 5 12
f 1 12 21
f 1 21 13
f 1 13 6
f 1 6 2
f 2 6 3
f 3 6 13
f 3 13 8
f 3 8 14
f 3 14 7
f 4 7 10
f 4 10 19
f 4 19 35
f 4 35 28
f 4 28 17
f 4 17 9
f 5 11 12
f 5 9 16
f 5 16 11
f 7 14 19
f 7 19 10
f 8 15 27
f 8 27 14
f 8 13 15
f 9 17 18
f 9 18 16
f 11 20 12
f 11 16 18
f 11 18 20
f 12 20 21
f 13 22 15
f 13 21 23
f 13 23 24
f 13 24 25
f 13 25 26
f 13 26 22
f 14 27 19
f 15 22 30
f 15 30 27
f 17 28 18
f 18 29 36
f 18 36 20
f 18 28 29
f 19 27 30
f 19 30 31
f 19 31 32
f 19 32 33
f 19 33 34
f 19 34 35
f 20 36 21
f 21 36 37
f 21 37 38
f 21 38 39
f 21 39 40
f 21 40 41
f 21 41 42
f 21 42 43
f 21 43 23
f 22 26 31
f 22 31 30
f 23 43 50
f 23 50 34
f 23 34 33
f 23 33 24
f 24 33 32
f 24 32 25
f 25 32 31
f 25 31 26
f 28 35 50
f 28 50 44
f 28 44 45
f 28 45 46
f 28 46 47
f 28 47 48
f 28 48 49
f 28 49 29
f 29 49 37
f 29 37 36
f 34 50 35
f 37 49 48
f 37 48 38
f 38 48 47
f 38 47 39
f 39 47 46
f 39 46 40
f 40 46 45
f 40 45 41
f 41 45 44
f 41 44 42
f 42 44 50
f 42 50 43

