# https://github.com/mikedh/trimesh
v -0.06479922 0.63131541 -0.08500000
v -0.05235981 0.61487543 -0.08500000
v -0.06479922 0.63131541 -0.09700001
v -0.28264284 0.63131541 -0.08500000
v -0.05212287 0.61451657 -0.08500000
v -0.05235981 0.61487543 -0.09700001
v -0.28264284 0.63131541 -0.09700001
v -0.29339996 0.61048560 -0.08500000
v -0.05212287 0.61451657 -0.09700001
v -0.05190962 0.61413733 -0.08500000
v -0.29339996 0.61048560 -0.09700001
v -0.05155421 0.61048560 -0.08500000
v -0.05190962 0.61413733 -0.09700001
v -0.05172007 0.61373974 -0.08500000
v -0.05155421 0.61048560 -0.09700001
v -0.05148313 0.61074250 -0.08500000
v -0.05172007 0.61373974 -0.09700001
v -0.05157790 0.61332992 -0.08500000
v -0.05148313 0.61074250 -0.09700001
v -0.05138835 0.61117069 -0.08500000
v -0.05157790 0.61332992 -0.09700001
v -0.05145943 0.61290581 -0.08500000
v -0.05138835 0.61117069 -0.09700001
v -0.05136466 0.61160497 -0.08500000
v -0.05145943 0.61290581 -0.09700001
v -0.05138835 0.61247764 -0.08500000
v -0.05136466 0.61160497 -0.09700001
v -0.05134097 0.61204132 -0.08500000
v -0.05138835 0.61247764 -0.09700001
v -0.05134097 0.61204132 -0.09700001
f 1 2 6
f 1 6 3
f 1 3 7
f 1 7 4
f 1 4 8
f 1 8 12
f 1 12 16
f 1 16 20
f 1 20 24
f 1 24 28
f 1 28 26
f 1 26 22
f 1 22 18
f 1 18 14
f 1 14 10
f 1 10 5
f 1 5 2
f 2 5 9
f 2 9 6
f 3 6 9
f 3 9 13
f 3 13 17
f 3 17 21
f 3 21 25
f 3 25 29
f 3 29 30
f 3 30 27
f 3 27 23
f 3 23 19
f 3 19 15
f 3 15 11
f 3 11 7
f 4 7 11
f 4 11 8
f 5 10 13
f 5 13 9
f 8 11 15
f 8 15 12
f 10 14 17
f 10 17 13
f 12 15 19
f 12 19 16
f 14 18 21
f 14 21 17
f 16 19 23
f 16 23 20
f 18 22 25
f 18 25 21
f 20 23 27
f 20 27 24
f 22 26 29
f 22 29 25
f 24 27 30
f 24 30 28
f 26 28 30
f 26 30 29

