# https://github.com/mikedh/trimesh
v -0.09366877 0.07251980 0.02008989
v -0.09366877 0.07251980 0.09097167
v -0.09366877 0.08205399 0.02008989
v -0.01456294 0.02132994 0.02008989
v -0.09366877 0.08205399 0.09097167
v -0.01456294 0.02132994 0.09097167
v -0.06342037 0.06248035 0.02008989
v -0.02145518 0.03532216 0.02008989
v -0.01944946 0.03126240 0.09097167
v -0.06342037 0.06248035 0.09097167
v -0.02145518 0.03532216 0.09097167
f 1 2 5
f 1 5 3
f 1 3 7
f 1 7 8
f 1 8 4
f 1 4 6
f 1 6 2
f 2 6 9
f 2 9 11
f 2 11 10
f 2 10 5
f 3 5 10
f 3 10 7
f 4 8 9
f 4 9 6
f 7 10 11
f 7 11 8
f 8 11 9

