# https://github.com/mikedh/trimesh
v -0.35681105 0.62096169 0.08500000
v -0.35671879 0.61967045 0.08500000
v -0.35681105 0.62096169 0.09700001
v -0.35678521 0.62225753 0.08500000
v -0.35671879 0.61967045 0.09700001
v -0.35651951 0.61838842 0.08500000
v -0.35678521 0.62225753 0.09700001
v -0.35665236 0.62354416 0.08500000
v -0.35651951 0.61838842 0.09700001
v -0.35620952 0.61713394 0.08500000
v -0.35665236 0.62354416 0.09700001
v -0.35640880 0.62481700 0.08500000
v -0.35620952 0.61713394 0.09700001
v -0.35579252 0.61590705 0.08500000
v -0.35640880 0.62481700 0.09700001
v -0.35605453 0.62606229 0.08500000
v -0.35579252 0.61590705 0.09700001
v -0.35527219 0.61472149 0.08500000
v -0.35605453 0.62606229 0.09700001
v -0.35559325 0.62727080 0.08500000
v -0.35527219 0.61472149 0.09700001
v -0.35464852 0.61358191 0.08500000
v -0.35559325 0.62727080 0.09700001
v -0.35503231 0.62843796 0.08500000
v -0.35464852 0.61358191 0.09700001
v -0.35393260 0.61250664 0.08500000
v -0.35503231 0.62843796 0.09700001
v -0.35437174 0.62954999 0.08500000
v -0.35393260 0.61250664 0.09700001
v -0.35312441 0.61149572 0.08500000
v -0.35437174 0.62954999 0.09700001
v -0.35361524 0.63060228 0.08500000
v -0.35312441 0.61149572 0.09700001
v -0.35223136 0.61055373 0.08500000
v -0.35361524 0.63060228 0.09700001
v -0.35277384 0.63158563 0.08500000
v -0.35223136 0.61055373 0.09700001
v -0.35126450 0.60969443 0.08500000
v -0.35277384 0.63158563 0.09700001
v -0.35184757 0.63249088 0.08500000
v -0.35126450 0.60969443 0.09700001
v -0.35022383 0.60892245 0.08500000
v -0.35184757 0.63249088 0.09700001
v -0.35085119 0.63331341 0.08500000
v -0.35022383 0.60892245 0.09700001
v -0.34912043 0.60824696 0.08500000
v -0.35085119 0.63331341 0.09700001
v -0.34978469 0.63404863 0.08500000
v -0.34912043 0.60824696 0.09700001
v -0.34796167 0.60766339 0.08500000
v -0.34978469 0.63404863 0.09700001
v -0.31911077 0.65328844 0.08500000
v -0.34796167 0.60766339 0.09700001
v -0.34675862 0.60718548 0.08500000
v -0.31911077 0.65328844 0.09700001
v -0.31911077 0.63692058 0.08500000
v -0.34675862 0.60718548 0.09700001
v -0.34551867 0.60681328 0.08500000
v -0.31911077 0.63692058 0.09700001
v -0.33573934 0.60890406 0.08500000
v -0.34551867 0.60681328 0.09700001
v -0.34425290 0.60654676 0.08500000
v -0.33573934 0.60890406 0.09700001
v -0.33597552 0.60855485 0.08500000
v -0.34425290 0.60654676 0.09700001
v -0.34296497 0.60639053 0.08500000
v -0.33597552 0.60855485 0.09700001
v -0.33623753 0.60822859 0.08500000
v -0.34296497 0.60639053 0.09700001
v -0.34167336 0.60634458 0.08500000
v -0.33623753 0.60822859 0.09700001
v -0.33652537 0.60792071 0.08500000
v -0.34167336 0.60634458 0.09700001
v -0.34037806 0.60641350 0.08500000
v -0.33652537 0.60792071 0.09700001
v -0.33683905 0.60764500 0.08500000
v -0.34037806 0.60641350 0.09700001
v -0.33909752 0.60659271 0.08500000
v -0.33683905 0.60764500 0.09700001
v -0.33717487 0.60739227 0.08500000
v -0.33909752 0.60659271 0.09700001
v -0.33868790 0.60668921 0.08500000
v -0.33717487 0.60739227 0.09700001
v -0.33752914 0.60716711 0.08500000
v -0.33868790 0.60668921 0.09700001
v -0.33828565 0.60681328 0.08500000
v -0.33752914 0.60716711 0.09700001
v -0.33790186 0.60697412 0.08500000
v -0.33828565 0.60681328 0.09700001
v -0.33790186 0.60697412 0.09700001
f 1 2 5
f 1 5 3
f 1 3 7
f 1 7 4
f 1 4 8
f 1 8 12
f 1 12 16
f 1 16 20
f 1 20 24
f 1 24 28
f 1 28 32
f 1 32 36
f 1 36 40
f 1 40 44
f 1 44 48
f 1 48 52
f 1 52 56
f 1 56 60
f 1 60 64
f 1 64 68
f 1 68 72
f 1 72 76
f 1 76 80
f 1 80 84
f 1 84 88
f 1 88 86
f 1 86 82
f 1 82 78
f 1 78 74
f 1 74 70
f 1 70 66
f 1 66 62
f 1 62 58
f 1 58 54
f 1 54 50
f 1 50 46
f 1 46 42
f 1 42 38
f 1 38 34
f 1 34 30
f 1 30 26
f 1 26 22
f 1 22 18
f 1 18 14
f 1 14 10
f 1 10 6
f 1 6 2
f 2 6 9
f 2 9 5
f 3 5 9
f 3 9 13
f 3 13 17
f 3 17 21
f 3 21 25
f 3 25 29
f 3 29 33
f 3 33 37
f 3 37 41
f 3 41 45
f 3 45 49
f 3 49 53
f 3 53 57
f 3 57 61
f 3 61 65
f 3 65 69
f 3 69 73
f 3 73 77
f 3 77 81
f 3 81 85
f 3 85 89
f 3 89 90
f 3 90 87
f 3 87 83
f 3 83 79
f 3 79 75
f 3 75 71
f 3 71 67
f 3 67 63
f 3 63 59
f 3 59 55
f 3 55 51
f 3 51 47
f 3 47 43
f 3 43 39
f 3 39 35
f 3 35 31
f 3 31 27
f 3 27 23
f 3 23 19
f 3 19 15
f 3 15 11
f 3 11 7
f 4 7 11
f 4 11 8
f 6 10 13
f 6 13 9
f 8 11 15
f 8 15 12
f 10 14 17
f 10 17 13
f 12 15 19
f 12 19 16
f 14 18 21
f 14 21 17
f 16 19 23
f 16 23 20
f 18 22 25
f 18 25 21
f 20 23 27
f 20 27 24
f 22 26 29
f 22 29 25
f 24 27 31
f 24 31 28
f 26 30 33
f 26 33 29
f 28 31 35
f 28 35 32
f 30 34 37
f 30 37 33
f 32 35 39
f 32 39 36
f 34 38 41
f 34 41 37
f 36 39 43
f 36 43 40
f 38 42 45
f 38 45 41
f 40 43 47
f 40 47 44
f 42 46 49
f 42 49 45
f 44 47 51
f 44 51 48
f 46 50 53
f 46 53 49
f 48 51 55
f 48 55 52
f 50 54 57
f 50 57 53
f 52 55 59
f 52 59 56
f 54 58 61
f 54 61 57
f 56 59 63
f 56 63 60
f 58 62 65
f 58 65 61
f 60 63 67
f 60 67 64
f 62 66 69
f 62 69 65
f 64 67 71
f 64 71 68
f 66 70 73
f 66 73 69
f 68 71 75
f 68 75 72
f 70 74 77
f 70 77 73
f 72 75 79
f 72 79 76
f 74 78 81
f 74 81 77
f 76 79 83
f 76 83 80
f 78 82 85
f 78 85 81
f 80 83 87
f 80 87 84
f 82 86 89
f 82 89 85
f 84 87 90
f 84 90 88
f 86 88 90
f 86 90 89

