# https://github.com/mikedh/trimesh
v -0.39372656 0.27594373 -0.13740267
v -0.39372656 0.27594373 0.09097167
v -0.40155755 0.28541046 0.09097167
v -0.40156202 0.28542136 -0.28484537
v -0.39372656 0.27595463 -0.28484537
v -0.39372656 0.28848605 0.09097167
v -0.41097172 0.29906524 -0.28484537
v -0.41096725 0.29906524 0.09097167
v -0.39372656 0.28848605 -0.28484537
v -0.43139668 0.38736323 0.09097167
v -0.41636530 0.30856469 0.09097167
v -0.41915156 0.31347255 -0.28484537
v -0.43139668 0.38736323 -0.28484537
v -0.43941551 0.38736323 0.09097167
v -0.41914709 0.31347255 0.09097167
v -0.42604784 0.32854516 -0.28484537
v -0.42604784 0.32854516 0.09097167
v -0.43941551 0.38736323 -0.28484537
v -0.43854341 0.37653320 0.09097167
v -0.43160689 0.34415218 -0.28484537
v -0.42971511 0.33882987 0.09097167
v -0.43854341 0.37654411 -0.28484537
v -0.43760423 0.37097095 0.09097167
v -0.43578401 0.36019546 -0.28484537
v -0.43160689 0.34415218 0.09097167
v -0.43436181 0.35473136 0.09097167
v -0.43577954 0.36019546 0.09097167
f 1 2 3
f 1 3 4
f 1 4 5
f 1 5 9
f 1 9 6
f 1 6 2
f 2 6 10
f 2 10 14
f 2 14 19
f 2 19 23
f 2 23 27
f 2 27 26
f 2 26 25
f 2 25 21
f 2 21 17
f 2 17 15
f 2 15 11
f 2 11 8
f 2 8 3
f 3 7 4
f 3 8 7
f 4 7 12
f 4 12 16
f 4 16 20
f 4 20 24
f 4 24 22
f 4 22 18
f 4 18 13
f 4 13 9
f 4 9 5
f 6 9 13
f 6 13 10
f 7 8 11
f 7 11 12
f 10 13 18
f 10 18 14
f 11 15 12
f 12 15 17
f 12 17 16
f 14 18 19
f 16 17 21
f 16 21 20
f 18 22 19
f 19 22 24
f 19 24 23
f 20 21 25
f 20 25 26
f 20 26 24
f 23 24 27
f 24 26 27

